<svg xmlns="http://www.w3.org/2000/svg" xml:space="preserve" version="1.1" style="shape-rendering:geometricPrecision; text-rendering:geometricPrecision; image-rendering:optimizeQuality; fill-rule:evenodd; clip-rule:evenodd"
viewBox="0 0 26.54 46.31"
 xmlns:xlink="http://www.w3.org/1999/xlink"
 xmlns:xodm="http://www.corel.com/coreldraw/odm/2003">
  <g>
   <path d="M4.56 10.69l0 2.99 -1.12 0 -3.44 7.74 0 20.98 1.95 3.9 21.74 0 2.84 -3.79 0 -22.18 -7.6 -5.97 0 -3.79 1.52 0 0 -5.26 -1.52 0 0 -5.32 -14.38 0 0 5.32 -1.52 0 0 5.26 1.52 0 0 0.12zm1.78 7.03l-2.44 5.84 0 16.57 1.13 2.32 15.7 0 1.91 -2.94 0 -16.23 -6.2 -5.56 -10.11 0zm-0.68 6.16l1.85 -4.41 8.29 0c1.7,1.53 3.4,3.06 5.11,4.58l0 14.95 -1.1 1.69 -13.68 0 -0.47 -0.95 0 -15.83 0.01 -0.02zm0.66 -8.44l0 -2.28 8.26 0c3.4,2.69 6.82,5.35 10.22,8.03l0 20.76c-0.65,0.87 -1.31,1.74 -1.96,2.61l-19.8 0 -1.28 -2.55 0 -20.23c0.94,-2.11 1.87,-4.23 2.82,-6.34l1.74 0zm0.12 -13.68l1.64 0 0 2.28 1.29 0 0 -2.28 1.75 0 0 2.28 1.29 0 0 -2.28 1.75 0 0 2.28 1.29 0 0 -2.28 1.75 0 0 4.03 -10.88 0 0 -4.03 0.12 0zm-1.52 5.32l13.8 0 0 1.75 -13.92 0 0 -1.75 0.12 0zm12.28 3.16l0 3.34 -2.2 -1.7 -8.68 0 0 -1.75 10.88 0 0 0.12z"/>
   <path d="M14.21 35.5c0.09,-0.27 0.22,-0.53 0.39,-0.76l2.13 -2.84 2.13 2.84c0.17,0.23 0.3,0.48 0.39,0.75 0.09,0.27 0.14,0.56 0.14,0.84 0,0.73 -0.3,1.4 -0.78,1.88 -0.48,0.48 -1.15,0.78 -1.88,0.78 -0.73,0 -1.4,-0.3 -1.88,-0.78 -0.48,-0.48 -0.78,-1.15 -0.78,-1.88 0,-0.28 0.05,-0.57 0.14,-0.84zm-1.8 -11.05l1.76 2.34c0.17,0.23 0.3,0.48 0.39,0.75 0.09,0.27 0.14,0.56 0.14,0.84 0,0.73 -0.3,1.4 -0.78,1.88 -0.48,0.48 -1.15,0.78 -1.88,0.78 -0.73,0 -1.4,-0.3 -1.88,-0.78 -0.48,-0.48 -0.78,-1.15 -0.78,-1.88 0,-0.28 0.05,-0.57 0.14,-0.84 0.09,-0.27 0.22,-0.53 0.39,-0.76l2.13 -2.84 0.37 0.49zm-1.15 4.72c0.2,0.2 0.48,0.32 0.78,0.32 0.3,0 0.58,-0.12 0.78,-0.32 0.2,-0.2 0.32,-0.48 0.32,-0.78 0,-0.12 -0.02,-0.24 -0.06,-0.35 -0.04,-0.11 -0.09,-0.22 -0.16,-0.31l-0.88 -1.18 -0.88 1.18c-0.07,0.09 -0.13,0.2 -0.16,0.31 -0.04,0.11 -0.06,0.23 -0.06,0.35 0,0.3 0.12,0.58 0.32,0.78zm6.25 7.95c0.2,-0.2 0.32,-0.48 0.32,-0.78 0,-0.12 -0.02,-0.24 -0.06,-0.35 -0.04,-0.11 -0.09,-0.22 -0.16,-0.31l-0.88 -1.18 -0.88 1.18c-0.07,0.09 -0.13,0.2 -0.16,0.31 -0.04,0.11 -0.06,0.23 -0.06,0.35 0,0.3 0.12,0.58 0.32,0.78 0.2,0.2 0.48,0.32 0.78,0.32 0.3,0 0.58,-0.12 0.78,-0.32z"/>
   <path d="M17.63 29.76l3.93 2.29 0 1.99 -4.79 -2.8 -3.86 2.25 0 4.52 3.86 2.25 4.79 -2.8 0 1.99 -3.47 2.03 -2.64 0 -3.4 -1.98 -3.5 1.98 -3.48 0 6.13 -3.47 0 -4.52 -3.86 -2.25 -2.36 1.38 0 -1.99 1.5 -0.87 0 -4.54 -0.55 -0.35 -0.94 -0.61 0 -0.7 0.42 -1.01 1.3 0.78 0.65 0.4 3.85 -2.24 0 -2.83 1.72 0 0 2.83 3.86 2.25 2.98 -1.74 1.34 1.2 -3.46 2.02 0 4.52zm-9.44 0l3.86 2.25 3.86 -2.25 0 -4.52 -3.86 -2.25 -3.86 2.25 0 4.52z"/>
  </g>
</svg>