<svg xmlns="http://www.w3.org/2000/svg" xml:space="preserve" version="1.1" style="shape-rendering:geometricPrecision; text-rendering:geometricPrecision; image-rendering:optimizeQuality; fill-rule:evenodd; clip-rule:evenodd"
viewBox="0 0 70.17 75.19"
 xmlns:xlink="http://www.w3.org/1999/xlink"
 xmlns:xodm="http://www.corel.com/coreldraw/odm/2003">
 <g>
  <path d="M70.17 25.06l0 -10.02 -8.77 0 0 -3.76 -15.04 0 0 3.76 -22.56 0 0 -3.76 -15.04 0 0 3.76 -8.77 0 0 10.02 3.76 0 0 40.1 -3.76 0 0 10.03 70.17 0 0 -10.03 -3.76 0 0 -40.1 3.76 0zm-45.14 37.91l24.51 -22.87 -9.7 0 6.27 -10.03 -18.13 0 -7.31 17.54 8.97 0 -4.61 15.35zm-0.6 -17.86l5.22 -12.53 11.95 0 -6.27 10.02 7.85 0 -13.09 12.21 2.91 -9.71 -8.58 0zm-13.16 -41.35l10.03 0 0 2.51 -10.03 0 0 -2.51zm41.35 6.27l2.51 0 0 -3.76 3.76 0 0 -2.51 -3.76 0 0 -3.76 -2.51 0 0 3.76 -3.76 0 0 2.51 3.76 0 0 3.76zm-3.76 3.76l10.02 0 0 1.25 -10.02 0 0 -1.25zm-37.59 0l10.03 0 0 1.25 -10.03 0 0 -1.25zm-8.77 8.77l0 -5.01 65.16 0 0 5.01 -65.16 -0zm65.16 45.11l0 5.01 -65.16 0 0 -5.01 65.16 0zm-3.76 -2.51l-57.64 0 0 -40.1 57.64 0 0 40.1z"/>
 </g>
</svg>
