<svg xmlns="http://www.w3.org/2000/svg" xml:space="preserve" version="1.1" style="shape-rendering:geometricPrecision; text-rendering:geometricPrecision; image-rendering:optimizeQuality; fill-rule:evenodd; clip-rule:evenodd"
viewBox="0 0 58.85 80.87"
 xmlns:xlink="http://www.w3.org/1999/xlink"
 xmlns:xodm="http://www.corel.com/coreldraw/odm/2003">
 <g>
  <path d="M55.21 80.87l-55.21 0 0 -80.87 18.2 0 0 10.85 26.49 0 14.16 16.1 0 53.92 -3.63 0zm-48.15 -12.59l0 -49.23 33.46 0 10.08 10.08 1.18 1.18 0 2.84 0 38.75 -44.72 -0 0 -3.62zm3.63 0l0 -35.51 37.45 0 0 35.51 -37.45 -0zm28.32 -45.59l6.83 6.83 -35.15 0 0 -6.83 28.32 0zm-2.39 27.65l3.2 1 1.03 -3.29 -2.24 -0.7 0.7 -2.23 -3.29 -1.03 -1 3.2 -4.29 2.24 0 -4.84 2.37 -2.37 -2.44 -2.44 -1.66 1.66 -1.66 -1.66 -2.44 2.44 2.37 2.37 0 4.84 -4.29 -2.24 -1 -3.2 -3.29 1.03 0.7 2.23 -2.24 0.7 1.03 3.29 3.2 -1 3.89 2.04 -3.89 2.04 -3.2 -1 -1.03 3.29 2.24 0.7 -0.7 2.24 3.29 1.03 1 -3.2 4.29 -2.24 0 4.84 -2.37 2.37 2.44 2.44 1.66 -1.66 1.66 1.66 2.44 -2.44 -2.37 -2.37 0 -4.84 4.29 2.24 1 3.2 3.29 -1.03 -0.7 -2.24 2.24 -0.7 -1.03 -3.29 -3.2 1 -3.89 -2.04 3.89 -2.04zm18.58 26.9l-51.58 0 0 -62.75 39.41 0 12.17 13.83 0 48.92zm-51.58 -73.6l10.93 0 0 5.96 -10.93 0 0 -5.96z"/>
 </g>
</svg>