<svg xmlns="http://www.w3.org/2000/svg" xml:space="preserve" version="1.1" style="shape-rendering:geometricPrecision; text-rendering:geometricPrecision; image-rendering:optimizeQuality; fill-rule:evenodd; clip-rule:evenodd"
viewBox="0 0 76.67 100.57"
 xmlns:xlink="http://www.w3.org/1999/xlink"
 xmlns:xodm="http://www.corel.com/coreldraw/odm/2003">
  <g>
   <path d="M41.93 15.97l-33.69 5.98 0 5.12c0,0.28 0.09,0.56 0.25,0.79l5.27 7.38 -1.44 0 0 5.44 -2.72 -0c-0.22,0 0,6.84 0,9.18l-9.36 17.39c-0.11,0.2 -0.16,0.42 -0.16,0.65 0,8.93 -0.16,32.67 0,32.67l40.83 0c0.14,0 0,-25.77 0,-32.67 0,-0.22 -0.06,-0.45 -0.16,-0.65l-9.36 -17.39 0 -9.18 -2.72 -0 0 -4.08c0,-0.1 -0.04,-0.2 -0.06,-0.29l3.43 -2.58c0.86,3.17 3.88,14.27 3.89,14.27l6.52 -2.25c0.08,-0.03 -2.05,-13.29 -2.74,-17.77l3.38 -2.54c0.42,-0.31 0.62,-0.84 0.52,-1.36l-1.68 -8.11zm-29.6 27.43l16.33 0 0 5.44 -16.33 0 0 -5.44zm9.53 40.59c-0.89,0.23 -2.4,-0.45 -2.72,-2.94l0 -29.48 2.72 0 0 32.42zm-10.08 -32.42l4.63 0 0 27.73 -1.2 -1.2c-1.5,-1.5 -3.49,-2.32 -5.61,-2.32 -2.12,0 -4.11,0.83 -5.61,2.32l-1.2 1.2 0 -11.05 8.98 -16.68zm26.41 30.74l-1.2 -1.2c-1.5,-1.5 -3.49,-2.32 -5.61,-2.32 -2.12,0 -4.11,0.83 -5.61,2.32l-1.2 1.2 0 -30.74 4.63 0 8.98 16.68 0 14.07zm-23.14 -41.63l0 -2.72 10.89 0 0 2.72 -10.89 0zm24.34 3.16l-1.63 0.54 -3.38 -12.41 2.86 -2.14 2.15 14.01zm-13.9 -8.6l-8.37 0 -6.15 -8.6 0 -2.5 28.87 -5.02 0.93 4.66 -15.28 11.46z"/>
   <path d="M51.8 26.69c2.25,0 4.08,-1.83 4.08,-4.08 0,-2.25 -1.83,-4.08 -4.08,-4.08 -2.25,0 -4.08,1.83 -4.08,4.08 0,2.25 1.83,4.08 4.08,4.08zm0 -5.44c0.75,0 1.36,0.61 1.36,1.36 0,0.75 -0.61,1.36 -1.36,1.36 -0.75,0 -1.36,-0.61 -1.36,-1.36 0,-0.75 0.61,-1.36 1.36,-1.36zm0 0z"/>
   <path d="M54.52 10.89c3,0 5.44,-2.44 5.44,-5.44 0,-3 -2.44,-5.44 -5.44,-5.44 -3,0 -5.44,2.44 -5.44,5.44 0,3 2.44,5.44 5.44,5.44zm0 -8.17c1.5,0 2.72,1.22 2.72,2.72 0,1.5 -1.22,2.72 -2.72,2.72 -1.5,0 -2.72,-1.22 -2.72,-2.72 0,-1.5 1.22,-2.72 2.72,-2.72zm0 0z"/>
   <path d="M68.5 25.34c4.5,0 8.17,-3.66 8.17,-8.17 0,-4.5 -3.66,-8.17 -8.17,-8.17 -4.5,0 -8.17,3.66 -8.17,8.17 0,4.5 3.66,8.17 8.17,8.17zm0 -13.61c3,0 5.44,2.44 5.44,5.44 0,3 -2.44,5.44 -5.44,5.44 -3,0 -5.44,-2.44 -5.44,-5.44 0,-3 2.44,-5.44 5.44,-5.44zm0 0z"/>
  </g>
</svg>