<svg xmlns="http://www.w3.org/2000/svg" xml:space="preserve" version="1.1" style="shape-rendering:geometricPrecision; text-rendering:geometricPrecision; image-rendering:optimizeQuality; fill-rule:evenodd; clip-rule:evenodd"
viewBox="0 0 77.83 73.96"
 xmlns:xlink="http://www.w3.org/1999/xlink"
 xmlns:xodm="http://www.corel.com/coreldraw/odm/2003">
  <g>
   <g>
    <path d="M36.88 41.58c1.3,1.3 3.4,1.3 4.7,0 1.3,-1.3 1.3,-3.4 0,-4.7 -1.3,-1.3 -3.4,-1.3 -4.7,0 -1.3,1.3 -1.3,3.4 0,4.7zm3.13 -3.13c0.43,0.43 0.43,1.14 0,1.57 -0.43,0.43 -1.14,0.43 -1.57,0 -0.43,-0.43 -0.43,-1.13 0,-1.57 0.43,-0.43 1.14,-0.43 1.57,0z"/>
    <path d="M46.28 32.18c1.3,1.3 3.4,1.3 4.7,0 1.3,-1.3 1.3,-3.4 0,-4.7 -1.3,-1.3 -3.4,-1.3 -4.7,0 -1.3,1.3 -1.3,3.4 0,4.7zm3.13 -3.13c0.43,0.43 0.43,1.14 0,1.57 -0.43,0.43 -1.14,0.43 -1.57,0 -0.43,-0.43 -0.43,-1.14 0,-1.57 0.43,-0.43 1.14,-0.43 1.57,0z"/>
    <path d="M32.58 27.25c0.16,0.58 0.46,1.09 0.86,1.49 0.81,0.81 2.03,1.18 3.21,0.86 1.77,-0.47 2.82,-2.3 2.35,-4.07 -0.47,-1.77 -2.3,-2.83 -4.07,-2.35 -0.86,0.23 -1.57,0.78 -2.02,1.55 -0.44,0.77 -0.56,1.66 -0.33,2.52l-0 0zm2.92 -1.93c0.4,-0.11 0.8,0.02 1.07,0.29 0.13,0.13 0.23,0.3 0.29,0.5 0.16,0.59 -0.19,1.2 -0.78,1.36 -0.59,0.16 -1.2,-0.2 -1.36,-0.78 -0.08,-0.29 -0.04,-0.58 0.11,-0.84 0.15,-0.26 0.39,-0.44 0.67,-0.52z"/>
    <path d="M25.53 39c1.77,0.47 3.6,-0.58 4.07,-2.35 0.47,-1.77 -0.58,-3.6 -2.35,-4.07 -1.77,-0.47 -3.6,0.58 -4.07,2.35 -0.32,1.19 0.05,2.4 0.87,3.21 0.4,0.4 0.9,0.7 1.48,0.86zm-0.21 -3.5c0.16,-0.59 0.77,-0.94 1.36,-0.78 0.59,0.16 0.94,0.77 0.78,1.36 -0.16,0.59 -0.77,0.94 -1.36,0.78 -0.59,-0.16 -0.94,-0.77 -0.78,-1.36z"/>
    <path d="M32.18 46.28c-1.3,-1.3 -3.4,-1.3 -4.7,0 -1.3,1.3 -1.3,3.4 0,4.7 1.3,1.3 3.4,1.3 4.7,0 1.3,-1.3 1.3,-3.4 0,-4.7zm-3.13 3.13c-0.43,-0.43 -0.43,-1.13 0,-1.57 0.43,-0.43 1.14,-0.43 1.57,0 0.43,0.43 0.43,1.13 0,1.57 -0.43,0.43 -1.14,0.43 -1.57,0z"/>
    <path d="M45.89 51.21c-0.48,-1.77 -2.3,-2.82 -4.07,-2.35 -1.77,0.47 -2.82,2.3 -2.35,4.07l0 0c0.16,0.58 0.46,1.09 0.86,1.48 0.81,0.81 2.03,1.18 3.21,0.87 1.77,-0.48 2.82,-2.3 2.35,-4.07l0 0zm-2.92 1.93c-0.59,0.16 -1.2,-0.19 -1.36,-0.78 -0.16,-0.59 0.19,-1.2 0.78,-1.36 0.59,-0.16 1.2,0.19 1.36,0.78 0.16,0.59 -0.19,1.2 -0.78,1.36z"/>
    <path d="M49.73 45.03c0.4,0.4 0.9,0.7 1.49,0.86 0.86,0.23 1.75,0.11 2.52,-0.33 0.77,-0.44 1.32,-1.16 1.55,-2.02 0.47,-1.77 -0.58,-3.6 -2.35,-4.07 -1.77,-0.47 -3.6,0.58 -4.07,2.35 -0.32,1.19 0.05,2.4 0.86,3.21l0 -0zm2.63 -3.42c0.19,0.05 0.36,0.15 0.5,0.29 0.27,0.27 0.39,0.68 0.29,1.07 -0.08,0.29 -0.26,0.52 -0.52,0.67 -0.26,0.15 -0.56,0.19 -0.84,0.11 -0.59,-0.16 -0.94,-0.77 -0.78,-1.36 0.16,-0.59 0.77,-0.94 1.36,-0.78z"/>
    <path d="M33.75 44.72c3.02,3.02 7.94,3.02 10.97,0 3.02,-3.02 3.02,-7.94 0,-10.97 -3.02,-3.02 -7.94,-3.02 -10.97,0 -3.02,3.02 -3.02,7.94 0,10.97zm9.4 -9.4c2.16,2.16 2.16,5.67 0,7.83 -2.16,2.16 -5.67,2.16 -7.83,0 -2.16,-2.16 -2.16,-5.67 0,-7.83 2.16,-2.16 5.67,-2.16 7.83,0z"/>
    <path d="M16.52 22.78c0.43,-0.43 0.43,-1.13 0,-1.57 -0.43,-0.43 -1.13,-0.43 -1.57,0 -0.43,0.43 -0.43,1.13 0,1.57 0.43,0.43 1.13,0.43 1.57,0z"/>
    <path d="M22.78 16.52c0.43,-0.43 0.43,-1.13 0,-1.57 -0.43,-0.43 -1.13,-0.43 -1.57,0 -0.43,0.43 -0.43,1.13 0,1.57 0.43,0.43 1.13,0.43 1.57,0z"/>
    <path d="M55.74 8.66c2.93,1.58 5.65,3.59 8.06,6.01 6.77,6.77 10.16,15.67 10.16,24.56 0,8.9 -3.39,17.79 -10.16,24.56 -6.77,6.77 -15.67,10.16 -24.56,10.16 -8.9,0 -17.79,-3.39 -24.56,-10.16 -2.41,-2.41 -4.43,-5.12 -6.01,-8.06 -1.47,-2.74 -2.57,-5.67 -3.27,-8.74l-0.63 0.63 -4.76 -4.76 0.44 -2.18c0.69,-3.43 1.85,-6.71 3.46,-9.76 1.58,-3 3.58,-5.78 5.96,-8.27 -0.09,-0.85 -0.01,-1.72 0.26,-2.54 0.28,-0.85 0.75,-1.64 1.42,-2.31 0.67,-0.67 1.47,-1.15 2.32,-1.42 0.72,-0.24 1.49,-0.33 2.24,-0.28 -0.05,-0.75 0.05,-1.52 0.28,-2.24 0.28,-0.85 0.75,-1.65 1.42,-2.32 0.67,-0.67 1.47,-1.14 2.31,-1.42 0.82,-0.27 1.69,-0.35 2.54,-0.26 2.49,-2.38 5.27,-4.38 8.27,-5.96 3.05,-1.6 6.33,-2.77 9.76,-3.46l2.18 -0.44 4.77 4.76 -0.63 0.63c3.07,0.7 6,1.79 8.74,3.27zm-33.74 4.15c-0.75,0 -1.5,0.29 -2.07,0.86 -0.57,0.57 -0.86,1.32 -0.86,2.07 0,0.75 0.29,1.5 0.86,2.07 0.57,0.57 1.32,0.86 2.07,0.86 0.75,0 1.5,-0.29 2.07,-0.86 0.57,-0.57 0.86,-1.32 0.86,-2.07 0,-0.75 -0.29,-1.5 -0.86,-2.07 -0.57,-0.57 -1.32,-0.86 -2.07,-0.86zm-3.34 9.19c0,-0.75 -0.29,-1.5 -0.86,-2.07 -0.57,-0.57 -1.32,-0.86 -2.07,-0.86 -0.75,0 -1.5,0.29 -2.07,0.86 -0.57,0.57 -0.86,1.32 -0.86,2.07 0,0.75 0.29,1.5 0.86,2.07 0.57,0.57 1.32,0.86 2.07,0.86 0.75,0 1.5,-0.29 2.07,-0.86 0.57,-0.57 0.86,-1.32 0.86,-2.07zm-15.4 19.87l1.5 1.5 38.61 -38.61 -1.5 -1.5 -0.6 0.12c-2.98,0.6 -5.83,1.59 -8.49,2.94 -2.54,1.28 -4.91,2.9 -7.06,4.8l0.05 0.04c0.15,0.12 0.29,0.25 0.42,0.38 1.16,1.16 1.74,2.68 1.74,4.2 0,1.52 -0.58,3.04 -1.74,4.19 -0.67,0.67 -1.47,1.15 -2.32,1.42 -0.72,0.24 -1.49,0.33 -2.24,0.28 0.05,0.75 -0.05,1.52 -0.28,2.24 -0.28,0.85 -0.75,1.65 -1.42,2.32 -1.16,1.16 -2.68,1.74 -4.2,1.74 -1.52,0 -3.04,-0.58 -4.2,-1.73 -0.14,-0.14 -0.26,-0.28 -0.38,-0.43l-0.04 -0.04c-1.9,2.15 -3.52,4.52 -4.8,7.06 -1.35,2.66 -2.34,5.51 -2.94,8.49l-0.12 0.6zm7.71 11.8c1.49,2.92 3.44,5.62 5.83,8 6.19,6.19 14.31,9.28 22.44,9.28 8.13,0 16.25,-3.09 22.44,-9.28 6.19,-6.19 9.28,-14.31 9.28,-22.44 0,-8.13 -3.09,-16.25 -9.28,-22.44 -2.38,-2.38 -5.08,-4.34 -8,-5.83 -2.88,-1.47 -5.98,-2.48 -9.22,-3.02l-10.55 10.55c3.36,-0.86 6.9,-0.9 10.27,-0.11 3.75,0.87 7.31,2.77 10.23,5.69 4.18,4.18 6.27,9.67 6.27,15.16 0,5.49 -2.09,10.98 -6.27,15.16 -4.18,4.18 -9.67,6.27 -15.16,6.27 -5.49,0 -10.98,-2.09 -15.16,-6.27 -2.92,-2.92 -4.81,-6.48 -5.69,-10.23 -0.79,-3.38 -0.75,-6.91 0.11,-10.27l-10.55 10.55c0.54,3.25 1.56,6.35 3.02,9.23zm28.27 -32.87c-4.72,0 -9.44,1.8 -13.04,5.39 -3.59,3.59 -5.39,8.32 -5.39,13.04 0,4.72 1.8,9.44 5.39,13.04 3.59,3.59 8.32,5.39 13.04,5.39 4.72,0 9.44,-1.8 13.04,-5.39 3.59,-3.59 5.39,-8.32 5.39,-13.04 0,-4.72 -1.8,-9.44 -5.39,-13.04 -3.59,-3.59 -8.32,-5.39 -13.04,-5.39z"/>
   </g>
   <path d="M71.65 0.43c-0.45,0 -0.87,0.21 -1.14,0.58 -3,4.08 -6.24,9.77 -4.61,13.7 0.82,1.98 2.69,3.2 5.54,3.63 0.07,0.01 0.14,0.02 0.21,0.02 0.07,0 0.14,-0 0.21,-0.02 2.85,-0.43 4.72,-1.65 5.54,-3.63 1.63,-3.93 -1.6,-9.62 -4.61,-13.7 -0.27,-0.36 -0.69,-0.58 -1.14,-0.58z"/>
  </g>
</svg>
