<svg xmlns="http://www.w3.org/2000/svg" xml:space="preserve" version="1.1" style="shape-rendering:geometricPrecision; text-rendering:geometricPrecision; image-rendering:optimizeQuality; fill-rule:evenodd; clip-rule:evenodd"
viewBox="0 0 45.42 78.95"
 xmlns:xlink="http://www.w3.org/1999/xlink"
 xmlns:xodm="http://www.corel.com/coreldraw/odm/2003">
 <g>
  <path d="M7.74 23.21l0 -4.88 -2.58 0 0 -9.31 2.58 0 0 -9.03 24.79 0 0 9.03 2.58 0 0 9.31 -2.58 0 0 6.13 12.9 10.13 0 37.79 -4.92 6.56 -37.11 0 -3.39 -6.77 0 -35.68 5.9 -13.28 1.83 0zm13.81 38.78l11.58 0 0 2.32 -11.58 0 0 -2.32zm6.29 -4.63l5.29 0 0 2.32c-3.86,0 -7.72,0 -11.58,0l0 -2.32 6.29 0zm4.13 -4.63l1.16 0 0 2.32 -11.58 0 0 -2.32c3.47,0 6.95,0 10.42,0zm-4.63 -2.32c2.56,0 4.63,-2.07 4.63,-4.63 0,-1.4 -3.63,-8.56 -5.49,-6.56 -0.63,0.7 -3.77,4.31 -3.77,6.56 0,2.56 2.08,4.63 4.63,4.63zm0 -8.63c1.23,1.54 2.32,3.28 2.32,4 0,3.09 -4.63,3.09 -4.63,0 0,-0.74 1.09,-2.46 2.32,-4zm-20.47 -2.29l3.95 -9.43 17.35 0 10.64 9.54 0 27.67 -3.33 5.12 -26.87 0 -2 -4.08 0 -28.19 0.26 -0.63zm3.1 1.29l3.08 -7.35 3.87 0 0 35.6 -6.23 0 -0.72 -1.47 0 -26.78zm9.26 -7.35l7.67 0 8.54 7.66 0 25.21 -1.78 2.73 -14.43 0 0 -35.6zm-8.13 -6.85l0 -3.87 13.74 0 17.21 13.52 0 35.06 -3.22 4.3 -33.38 0 -2.09 -4.17 0 -34.24 4.71 -10.59 3.03 0zm0 -23.21l2.58 0 0 3.87 2.58 0 0 -3.87 2.58 0 0 3.87 2.58 0 0 -3.87 2.58 0 0 3.87 2.58 0 0 -3.87 2.58 0 0 6.45 -18.06 0 0 -6.45zm-2.58 9.03l23.21 0 0 2.58 -23.21 0 0 -2.58zm20.63 5.16l0 5.27 -3.47 -2.69 -14.59 0 0 -2.58 18.06 0z"/>
 </g>
</svg>
