<svg xmlns="http://www.w3.org/2000/svg" xml:space="preserve" version="1.1" style="shape-rendering:geometricPrecision; text-rendering:geometricPrecision; image-rendering:optimizeQuality; fill-rule:evenodd; clip-rule:evenodd"
viewBox="0 0 91.77 76.3"
 xmlns:xlink="http://www.w3.org/1999/xlink"
 xmlns:xodm="http://www.corel.com/coreldraw/odm/2003">
  <g>
   <path d="M2.25 65.2c4.88,0 8.84,3.97 8.84,8.84l0 2.25 34.79 0 34.79 0 0 -2.25c0,-4.88 3.97,-8.84 8.84,-8.84l2.25 0 0 -65.2 -45.89 0 -45.89 0 0 65.2 2.25 0zm43.64 6.6l-30.49 0c-0.95,-5.56 -5.34,-9.96 -10.9,-10.9l0 -56.4 41.39 0 41.39 0 0 56.4c-5.56,0.95 -9.96,5.34 -10.9,10.9l-30.49 0z"/>
   <polygon points="14.84,42.52 10.34,42.52 10.34,30.03 14.84,30.03 "/>
   <path d="M19.05 64.79l0.64 1.16 5.82 0 0 -4.5 -3.21 0c-1.9,-3.02 -4.44,-5.56 -7.46,-7.46l0 -3.44 -4.5 0 0 6.05 1.16 0.64c3.18,1.76 5.79,4.37 7.55,7.55l0 0z"/>
   <polygon points="14.84,14.84 19.41,14.84 19.41,10.34 10.34,10.34 10.34,19.41 14.84,19.41 "/>
   <polygon points="76.93,42.52 81.43,42.52 81.43,30.03 76.93,30.03 "/>
   <path d="M72.72 64.79l-0.64 1.16 -5.82 0 0 -4.5 3.21 0c1.9,-3.02 4.44,-5.56 7.46,-7.46l0 -3.44 4.5 0 0 6.05 -1.16 0.64c-3.18,1.76 -5.79,4.37 -7.55,7.55l0 0z"/>
   <polygon points="76.93,14.84 72.36,14.84 72.36,10.34 81.43,10.34 81.43,19.41 76.93,19.41 "/>
   <g>
    <g>
     <path d="M57.55 22.62l-3.3 -2.2 -1.48 2.22c-1.34,2.02 -1.34,4.62 0,6.64 0.45,0.68 0.45,1.56 0,2.24l-1.48 2.22 3.3 2.2 1.48 -2.22c1.34,-2.02 1.34,-4.62 0,-6.64 -0.45,-0.68 -0.45,-1.56 0,-2.24l1.48 -2.22zm0 0z"/>
     <path d="M63.64 22.62l-3.3 -2.2 -1.48 2.22c-1.34,2.02 -1.34,4.62 0,6.64 0.45,0.68 0.45,1.56 0,2.24l-1.48 2.22 3.3 2.2 1.48 -2.22c1.34,-2.02 1.34,-4.62 0,-6.64 -0.45,-0.68 -0.45,-1.56 0,-2.24l1.48 -2.22zm0 0z"/>
     <path d="M51.45 22.62l-3.3 -2.2 -1.48 2.22c-1.34,2.02 -1.34,4.62 0,6.64 0.45,0.68 0.45,1.56 0,2.24l-1.48 2.22 3.3 2.2 1.48 -2.22c1.34,-2.02 1.34,-4.62 0,-6.64 -0.45,-0.68 -0.45,-1.56 0,-2.24l1.48 -2.22zm0 0z"/>
    </g>
    <g>
     <path d="M41.53 41.84l0 -16.36c0,-2.79 -2.27,-5.05 -5.05,-5.05 -2.79,0 -5.05,2.27 -5.05,5.05l0 16.36c-2.07,1.58 -3.29,4.01 -3.29,6.63 0,4.6 3.74,8.34 8.34,8.34 4.6,0 8.34,-3.74 8.34,-8.34 0,-2.62 -1.22,-5.05 -3.29,-6.63zm-5.05 12.79c-3.4,0 -6.16,-2.76 -6.16,-6.16 0,-2.08 1.05,-4 2.8,-5.15 0.31,-0.2 0.49,-0.54 0.49,-0.91l0 -16.93c0,-1.58 1.29,-2.87 2.87,-2.87 1.58,0 2.87,1.29 2.87,2.87l0 16.93c0,0.37 0.19,0.71 0.49,0.91 1.75,1.15 2.8,3.07 2.8,5.15 -0,3.4 -2.76,6.16 -6.16,6.16z"/>
     <path d="M37.56 45l0 -14.41c0,-0.6 -0.49,-1.09 -1.09,-1.09 -0.6,0 -1.09,0.49 -1.09,1.09l0 14.41c-1.47,0.46 -2.53,1.84 -2.53,3.46 0,2 1.62,3.63 3.63,3.63 2,0 3.63,-1.62 3.63,-3.63 0,-1.62 -1.07,-3 -2.54,-3.46z"/>
    </g>
   </g>
   <polygon  points="50.55,10.34 50.55,14.84 63.04,14.84 63.04,10.34 "/>
   <polygon  points="28.73,10.34 28.73,14.84 41.22,14.84 41.22,10.34 "/>
   <polygon  points="49.41,61.46 49.41,65.95 59.22,65.95 59.22,61.46 "/>
   <polygon  points="32.56,61.46 32.56,65.95 42.37,65.95 42.37,61.46 "/>
  </g>
</svg>
