<svg xmlns="http://www.w3.org/2000/svg" xml:space="preserve" version="1.1" style="shape-rendering:geometricPrecision; text-rendering:geometricPrecision; image-rendering:optimizeQuality; fill-rule:evenodd; clip-rule:evenodd"
viewBox="0 0 89.11 69.53"
 xmlns:xlink="http://www.w3.org/1999/xlink"
 xmlns:xodm="http://www.corel.com/coreldraw/odm/2003">
  <g>
   <path d="M13 0l8.76 0 0 69.53 -10.74 0 0 -69.53 1.97 0zm56.33 0l8.76 0 0 69.53 -10.74 0 0 -69.53 1.97 0z"/>
   <path d="M1.97 0l87.14 0 0 69.53 -89.11 0 0 -69.53 1.97 0zm83.19 3.95l-81.22 0 0 61.64 81.22 0 0 -61.64z"/>
   <path d="M32.7 29.05l6.14 0 0 -7.85 11.43 0 0 7.85 7.85 0 0 11.43 -7.85 0 0 7.85 -11.43 0 0 -7.85 -7.86 0 0 -11.43 1.71 0zm7.86 3.42l-6.14 0 0 4.59 7.86 0 0 7.85 4.58 0 0 -7.85 7.85 0 0 -4.59 -7.85 0 0 -7.85 -4.58 0 0 7.85 -1.71 0z"/>
  </g>
</svg>
