<svg xmlns="http://www.w3.org/2000/svg" xml:space="preserve" version="1.1" style="shape-rendering:geometricPrecision; text-rendering:geometricPrecision; image-rendering:optimizeQuality; fill-rule:evenodd; clip-rule:evenodd"
viewBox="0 0 118.17 125.68"
 xmlns:xlink="http://www.w3.org/1999/xlink"
 xmlns:xodm="http://www.corel.com/coreldraw/odm/2003">
 <g>
  <path d="M2.73 47.97l37.37 0 0 -13.37 10.7 0 0 -14.69 -20.79 0 0 -19.91 2.73 0 55.4 0 0 19.91 -20.79 0 0 14.69 10.7 0 0 13.37 40.1 0 0 63.26 -29.93 0 -5.01 14.45 -48.29 0 -5.01 -14.45 -29.93 0 0 -63.26 2.73 0zm56.35 48.81c-4.74,0 -9.03,-1.93 -12.14,-5.04l0.01 -0.01c-3.11,-3.12 -5.04,-7.41 -5.04,-12.14 0,-4.73 1.93,-9.02 5.04,-12.14l-0.01 -0.01c3.11,-3.11 7.41,-5.04 12.14,-5.04 4.73,0 9.02,1.93 12.14,5.04l0.01 -0.01c3.11,3.11 5.04,7.41 5.04,12.14 0,4.74 -1.93,9.03 -5.04,12.14l-0.01 -0.01c-3.12,3.11 -7.41,5.04 -12.14,5.04zm-8.28 -8.9c2.12,2.12 5.05,3.44 8.28,3.44 3.24,0 6.17,-1.31 8.28,-3.43l0 -0.01c2.12,-2.12 3.44,-5.05 3.44,-8.28 0,-3.23 -1.32,-6.16 -3.44,-8.28l0 -0.01c-2.11,-2.12 -5.05,-3.43 -8.28,-3.43 -3.23,0 -6.16,1.32 -8.28,3.44l-0.01 0c-2.12,2.11 -3.43,5.04 -3.43,8.28 0,3.24 1.31,6.17 3.43,8.28l0.01 0zm8.28 16.71c-6.89,0 -13.14,-2.8 -17.67,-7.33 -4.52,-4.53 -7.33,-10.77 -7.33,-17.67 0,-6.89 2.8,-13.14 7.33,-17.67 4.53,-4.53 10.77,-7.33 17.67,-7.33 6.89,0 13.14,2.8 17.67,7.33 4.53,4.52 7.33,10.77 7.33,17.67 0,6.89 -2.8,13.14 -7.33,17.67 -4.52,4.52 -10.77,7.33 -17.67,7.33zm-13.81 -11.19c3.54,3.54 8.42,5.73 13.81,5.73 5.38,0 10.27,-2.19 13.81,-5.73 3.54,-3.54 5.73,-8.42 5.73,-13.81 0,-5.38 -2.19,-10.27 -5.73,-13.81 -3.54,-3.54 -8.42,-5.73 -13.81,-5.73 -5.38,0 -10.27,2.19 -13.81,5.73 -3.54,3.54 -5.73,8.42 -5.73,13.81 0,5.38 2.19,10.27 5.73,13.81zm5.53 -78.96l2.73 0 13.83 0 15.33 0 0 -8.99 -47.21 0 0 8.99 15.33 0zm5.46 20.16l5.64 0 0 -14.69 -5.64 0 0 14.69zm-10.7 13.37l27.04 0 0 -7.91 -5.24 0 -16.56 0 -5.24 0 0 7.91zm-34.16 39.3l12.36 0 0 15.06 -15.09 0 0 -15.06 2.73 0zm6.9 5.46l-4.17 0 0 4.14 4.17 0 0 -4.14zm-6.9 -22.43l12.36 0 0 15.06 -15.09 0 0 -15.06 2.73 0zm6.9 5.46l-4.17 0 0 4.14 4.17 0 0 -4.14zm71.6 -20.57l19.59 0 0 15.09 -22.32 0 0 -15.09 2.73 0zm14.13 5.46l-11.4 0 0 4.17 11.4 0 0 -4.17zm-21.55 50.57l-46.8 0 3.12 8.99 40.57 0 3.12 -8.99zm30.22 -57.8l-34.64 0 -2.73 0 -35.23 0 -34.64 0 0 52.34 22.57 0 3.82 0 58.28 0 22.57 0 0 -52.34z"/>
 </g>
</svg>