<svg xmlns="http://www.w3.org/2000/svg" xml:space="preserve" version="1.1" style="shape-rendering:geometricPrecision; text-rendering:geometricPrecision; image-rendering:optimizeQuality; fill-rule:evenodd; clip-rule:evenodd"
viewBox="0 0 29.5 57.34"
 xmlns:xlink="http://www.w3.org/1999/xlink"
 xmlns:xodm="http://www.corel.com/coreldraw/odm/2003">
  <g>
   <path d="M23.92 7.87l-9.17 -7.87 -9.17 7.86c-3.54,3.04 -5.57,7.45 -5.57,12.12l0 27.51c0,3.8 3.09,6.9 6.9,6.9l2.93 0 0 2.95 1.97 0 0 -2.95 1.97 0 0 2.95 1.97 0 0 -2.95 1.97 0 0 2.95 1.97 0 0 -2.95 2.93 0c3.8,0 6.9,-3.09 6.9,-6.9l0 -27.51c0,-4.67 -2.03,-9.08 -5.57,-12.12zm-12.12 44.56l0 -1.97 1.97 0 0 1.97 -1.97 -0zm-2.81 -12.78l4.78 0 0 2.95 -0.98 0c-1.83,0 -3.35,-1.26 -3.79,-2.95zm7.73 2.95l-0.98 0 0 -2.95 4.78 0c-0.44,1.69 -1.97,2.95 -3.79,2.95zm-10.82 -4.92l0 -14.55c0,-1.2 0.97,-2.17 2.17,-2.17l13.36 0c1.2,0 2.17,0.97 2.17,2.17l0 14.55 -17.7 0zm17.7 6.88l0 1.97c0,1.08 -0.88,1.97 -1.97,1.97l-1.97 0 0 -0.98 1.97 0 0 -1.97 -13.77 0 0 1.97 1.97 0 0 0.98 -1.97 0c-1.08,0 -1.97,-0.88 -1.97,-1.97l0 -1.97 17.7 0zm-5.9 2.95l0 0.98 -1.97 0 0 -0.98 1.97 0zm-5.9 0l1.97 0 0 0.98 -1.97 0 0 -0.98zm3.93 4.92l0 -1.97 1.97 0 0 1.97 -1.97 -0zm11.8 -4.93c0,2.72 -2.21,4.93 -4.93,4.93l-2.93 0 0 -1.97 1.97 0c2.17,0 3.93,-1.76 3.93,-3.93l0 -3.93 -4.46 0c0.73,-0.81 1.24,-1.83 1.43,-2.95l3.04 0 0 -16.51c0,-2.28 -1.86,-4.14 -4.14,-4.14l-13.36 0c-2.28,0 -4.14,1.86 -4.14,4.14l0 16.51 3.04 0c0.19,1.12 0.7,2.14 1.43,2.95l-4.47 0 0 3.93c0,2.17 1.76,3.93 3.93,3.93l1.97 0 0 1.97 -2.93 -0c-2.72,0 -4.93,-2.21 -4.93,-4.93l0 -27.51c0,-4.09 1.78,-7.96 4.89,-10.63l7.89 -6.77 7.89 6.77c3.11,2.66 4.89,6.53 4.89,10.63l0 27.51 0 0z"/>
   <polygon points="20.65,28.83 21.63,27.84 20.65,26.86 15.73,26.86 15.73,24.89 14.75,23.91 13.77,24.89 13.77,26.86 8.85,26.86 7.87,27.84 8.85,28.83 13.77,28.83 13.77,30.79 8.85,30.79 7.87,31.78 8.85,32.76 13.77,32.76 13.77,34.73 14.75,35.71 15.73,34.73 15.73,32.76 20.65,32.76 21.63,31.78 20.65,30.79 15.73,30.79 15.73,28.83 "/>
  </g>
</svg>
