<svg xmlns="http://www.w3.org/2000/svg" xml:space="preserve" version="1.1" style="shape-rendering:geometricPrecision; text-rendering:geometricPrecision; image-rendering:optimizeQuality; fill-rule:evenodd; clip-rule:evenodd"
viewBox="0 0 118.53 113.19"
 xmlns:xlink="http://www.w3.org/1999/xlink"
 xmlns:xodm="http://www.corel.com/coreldraw/odm/2003">
  <g>
   <path d="M30.16 86.11l3.38 0 0 3.38 -3.38 0 0 -3.38zm34.43 -62.97l-4.57 10.52 -2.19 0 -4.57 -10.5 -3.13 1.29 1.42 3.28 -29.35 12.35 -1.61 -3.71 -3.14 1.27 15.2 34.95 -4.19 0c-5.07,0 -7.08,6.77 -2.54,9.44 -2.02,2.09 -2.93,5.06 -2.27,7.99l5.15 23.17 53.45 0 7.35 -30.61c6.61,-0.9 11.62,-6.55 11.62,-13.38 0,-5.8 -3.7,-10.87 -9.01,-12.75l8.19 -18.83 -3.14 -1.27 -1.62 3.73c-9.81,-4.13 -19.58,-8.25 -29.34,-12.37l1.42 -3.26 -3.13 -1.3zm29.7 20.03l-1.66 3.82 -20.19 -8.49c-0.13,-2.69 -2.34,-4.84 -5.05,-4.84l-3.68 -0 1.24 -2.85c9.78,4.12 19.55,8.24 29.34,12.36zm-47.18 32.19c5.59,-8.28 18.58,-4.3 18.58,5.67 0,5.62 -4.54,10.15 -10.15,10.15 -8.19,0 -12.91,-9.19 -8.43,-15.82zm3.35 -7.87c-2.21,0 -3.96,-1.28 -4.75,-3.38l19.66 0c-0.7,1.97 -2.55,3.38 -4.76,3.38l-10.15 0zm-17.95 -3.73l6.51 -2.74c0.57,1.33 1.71,2.35 3.1,2.81 0.03,0.18 0.06,0.37 0.11,0.55l-7.99 3.37 -1.74 -3.99zm36.56 -16.58l-15.23 0c-4.49,0 -6.78,5.46 -3.6,8.64 0.95,0.97 2.22,1.51 3.6,1.51l15.23 0c0,1.18 0.3,3.38 -1.69,3.38l-23.69 0c-0.93,0 -1.69,-0.76 -1.69,-1.69l0 -8.56c0,-0.79 0.18,-1.57 0.53,-2.26l4.18 -8.37c0.86,-1.71 2.64,-2.81 4.55,-2.81l16.12 0c0.93,0 1.69,0.76 1.69,1.69l0 8.46zm5.52 25.38l-8.51 0c-0.69,-0.86 -1.48,-1.63 -2.35,-2.29 2.32,-0.91 4.11,-2.82 4.88,-5.16l5.65 2.38c-0.23,1.74 -0.11,3.38 0.33,5.07l0 0zm-5.52 -18.61l-15.23 0c-2.2,0 -2.26,-3.38 0,-3.38l15.23 0 0 3.38zm-29.56 -7.26c-0.44,0.88 -0.73,1.84 -0.84,2.83l-10.44 4.39 -1.66 -3.82 14.24 -6 -1.3 2.6zm-0.9 6.53l0 4.32 -7.45 3.13 -1.59 -3.65 9.04 -3.8zm29.44 22.73l7.93 0c0.78,1.34 1.76,2.53 2.94,3.52l-2.55 6.64 -8.32 0c2.29,-5.64 0,-9.9 0,-10.15zm7.08 -11.76l-4.06 -1.71c1.21,-1.3 1.38,-2.49 1.38,-4.14l4.94 2.08c-0.95,1.12 -1.72,2.39 -2.27,3.76l-0 0zm5.09 -6.24l-7.76 -3.27 0 -4.32 12.99 5.47c-1.89,0.31 -3.64,1.05 -5.23,2.12zm9.39 -4.04l-17.16 -7.22 0 -4.52 18.82 7.92 -1.66 3.82zm-38.36 -20.26c-6.06,0 -8,5.68 -8.13,5.79l-17.91 7.54 -1.66 -3.82 29.34 -12.37 1.24 2.85 -2.88 -0zm-15.66 37.21l8.09 -3.41c0.94,1.28 2.2,2.25 3.66,2.82 -0.87,0.66 -1.66,1.43 -2.35,2.3l-8.65 0 -0.74 -1.71zm43.98 38.93l-48.07 0c-0.63,-2.81 -4.69,-20.34 -4.69,-21.69 0,-5.85 8.11,-7.46 10.35,-2.07l7.08 17 9.9 -0c2.02,5.66 10.53,3.68 9.78,-2.31l5.9 -2.95 -1.51 -3.03 -5.88 2.94c-2.67,-2.57 -7.04,-1.52 -8.28,1.96l-7.64 -0 -6.21 -14.92c-1.36,-3.27 -4.54,-5.39 -8.09,-5.39 -1.88,0 -4.1,0.32 -4.94,-0.52 -1.06,-1.05 -0.28,-2.87 1.2,-2.87l14.56 -0c-3.66,9.03 3.05,18.61 12.52,18.61 4.13,0 7.99,-1.89 10.54,-5.08l12.61 0 8.13 -21.14c0.59,-1.53 2.89,-0.81 2.51,0.78l-9.76 40.67zm-22.35 -8.46c0,-2.23 3.38,-2.23 3.38,0 0,2.23 -3.38,2.23 -3.38,0zm40.61 -32.15c0,4.65 -3.09,8.56 -7.37,9.75l2.29 -10.12c0,-5.17 -7.21,-6.54 -9.09,-1.69l-3.43 8.93c-6.66,-7.16 -0.15,-18.73 9.38,-16.83 4.76,0.91 8.22,5.1 8.22,9.96l0 0zm-38.92 11.84c0,0.49 -0.11,0.97 -0.34,1.46l3.06 1.45c0.45,-0.94 0.67,-1.92 0.67,-2.91 0,-3.73 -3.04,-6.77 -6.77,-6.77 -0.99,0 -1.97,0.23 -2.91,0.67l1.45 3.06c2.33,-1.11 4.84,0.68 4.84,3.04zm-3.38 6.77c0.99,0 1.97,-0.22 2.91,-0.67l-1.45 -3.06c-2.33,1.11 -4.84,-0.68 -4.84,-3.04 0,-0.49 0.11,-0.97 0.34,-1.46l-3.06 -1.45c-0.45,0.94 -0.67,1.91 -0.67,2.91 0,3.73 3.04,6.77 6.77,6.77l0 0zm6.77 -47.38l3.38 0 0 3.38 -3.38 0 0 -3.38zm-6.77 0l3.38 0 0 3.38 -3.38 0 0 -3.38zm-6.77 0l3.38 0 0 3.38 -3.38 0 0 -3.38zm63.8 -16.89l-43.53 -17.59 -4.9 12.12 43.53 17.59 4.9 -12.12zm-41.83 -21.83l47.78 19.3 -8.32 20.59 -52 -21.01 8.32 -20.59 4.23 1.71z"/>
   <path d="M4.25 19.3l47.75 -19.3 8.32 20.59 -52.01 21.01 -8.32 -20.59 4.25 -1.72zm1.7 4.24l43.53 -17.59 4.9 12.12 -43.53 17.59 -4.89 -12.12z"/>
  </g>
</svg>
