<svg xmlns="http://www.w3.org/2000/svg" xml:space="preserve" width="17.6447mm" height="17.6389mm" version="1.1" style="shape-rendering:geometricPrecision; text-rendering:geometricPrecision; image-rendering:optimizeQuality; fill-rule:evenodd; clip-rule:evenodd"
viewBox="0 0 80.56 80.54">
  <g>
   <path d="M42.49 37.61l0 20.69 -39.7 0 0 -20.69 39.7 0zm-18.84 4l-1.01 -1.7 -1.02 1.69c-0.39,0.65 -3.81,6.44 -3.81,9.55 0,2.54 2.21,4.7 4.82,4.7 2.61,0 4.82,-2.15 4.82,-4.7 0,-3.07 -3.41,-8.89 -3.8,-9.55z"/>
   <path d="M80.56 10.7l0 -6.83 -28.22 0 0 -3.87 -10.33 0 0 3.87 -6.73 -0 0 6.83 1.39 0 0 4.67 -19.61 0 0 -3.87 -10.33 0 0 3.87 -6.73 -0 0 6.83 1.39 0 0 51.49 -1.39 0 0 6.83 45.28 0 0 -6.83 -1.39 0 0 -4.67 36.68 0 0 -6.83 -1.39 0 0 -51.49 1.39 0zm-30.58 -8.35l0 1.51 -5.62 0 0 -1.51 5.62 0zm-40.9 11.5l5.61 0 0 1.51 -5.61 0 0 -1.51zm33.83 64.31l-40.56 0 0 -2.12 40.56 0 0 2.12zm-1.39 -40.07l0 19.69 -37.77 0 0 -19.69 37.77 0zm-37.77 -2.36l0 -13.54 37.77 0 0 13.54 -37.77 0zm37.77 24.41l0 13.54 -37.77 0 0 -13.54 37.77 0zm1.39 -40.31l-40.56 0 0 -2.12 40.56 0 0 2.12zm-3.88 -4.47l0 -4.67 0 0 37.77 0 0 13.54 -32.92 0 0 -2.04 1.39 0 0 -6.83 -6.24 0zm4.85 30.92l0 -19.69 32.92 0 0 19.69 -32.92 0zm32.92 2.36l0 13.54 -32.92 0 0 -13.54 32.92 0zm1.39 18.02l-34.32 0 0 -2.12 34.32 0 0 2.12zm0 -58.33l-40.56 0 0 -2.12 40.56 0 0 2.12z"/>
   <path d="M57.92 41.98c-1.31,0 -2.46,-1.09 -2.46,-2.34 0,-1.53 1.36,-4.45 2.46,-6.52 1.19,2.27 2.46,5.12 2.46,6.52 0,1.24 -1.15,2.34 -2.46,2.34z"/>
   <path d="M58.94 30.1l-1.01 -1.7 -1.02 1.69c-0.39,0.65 -3.8,6.44 -3.8,9.55 0,2.55 2.21,4.7 4.82,4.7 2.61,0 4.82,-2.15 4.82,-4.7 0,-3.07 -3.41,-8.89 -3.8,-9.54z"/>
  </g>
</svg>
