<svg xmlns="http://www.w3.org/2000/svg" xml:space="preserve" version="1.1" style="shape-rendering:geometricPrecision; text-rendering:geometricPrecision; image-rendering:optimizeQuality; fill-rule:evenodd; clip-rule:evenodd"
viewBox="0 0 84.33 107.67"
 xmlns:xlink="http://www.w3.org/1999/xlink"
 xmlns:xodm="http://www.corel.com/coreldraw/odm/2003">
 <g>
  <path d="M79.68 31.3l-17.28 -17.28c-0.39,-0.39 -0.92,-0.61 -1.47,-0.61l-9.38 -0 0 -2.29c0,-3.56 2.9,-6.46 6.46,-6.46l7.69 0 13.98 14.19 0 12.45zm-37.51 22.26c-0.66,0 -1.29,0.31 -1.68,0.85 -4.42,6.01 -9.19,14.39 -6.78,20.17 1.21,2.91 3.96,4.71 8.16,5.34 0.1,0.02 0.21,0.02 0.31,0.02 0.1,0 0.21,-0.01 0.31,-0.02 4.2,-0.63 6.94,-2.42 8.15,-5.34 2.4,-5.78 -2.36,-14.16 -6.78,-20.17 -0.39,-0.53 -1.02,-0.85 -1.68,-0.85zm4.61 19.42c-0.22,0.53 -0.89,2.13 -4.61,2.77 -3.73,-0.64 -4.39,-2.23 -4.61,-2.77 -1.11,-2.67 0.6,-7.69 4.61,-13.71 4.01,6.01 5.73,11.03 4.61,13.71zm-33.23 16.5l0 -63.01 42.83 0 12.9 12.91 1.51 1.51 0 3.63 0 49.6 -57.24 -0 0 -4.63zm4.65 0l0 -45.45 47.93 0 0 45.45 -47.93 -0zm36.25 -58.35l8.74 8.74 -44.99 0 0 -8.74 36.25 0zm25.23 71.9l-75.03 0 0 -85.45 55.41 0 19.62 19.62 0 65.83zm-68.77 -98.37l21.88 0 0 8.75 -21.88 0 0 -8.75zm35.99 8.27l0 -1.81c0,-3.07 1.25,-5.84 3.26,-7.86 2.01,-2.01 4.79,-3.26 7.86,-3.26l9.62 0 16.7 16.96 0 90.72 -84.33 0 0 -94.75 6.25 0 0 -12.92 31.19 0 0 12.92 9.45 0z"/>
 </g>
</svg>
