<svg xmlns="http://www.w3.org/2000/svg" xml:space="preserve" width="17.6447mm" height="17.6389mm" version="1.1" style="shape-rendering:geometricPrecision; text-rendering:geometricPrecision; image-rendering:optimizeQuality; fill-rule:evenodd; clip-rule:evenodd"
viewBox="0 0 92.99 92.96"
 xmlns:xlink="http://www.w3.org/1999/xlink"
 xmlns:xodm="http://www.corel.com/coreldraw/odm/2003">
 <g>
  <g>
   <path class="fil0" d="M49.04 43.41l0 23.89 -45.83 0 0 -23.89 45.83 0zm-21.74 4.61l-1.17 -1.96 -1.17 1.96c-0.45,0.75 -4.39,7.43 -4.39,11.02 0,2.94 2.55,5.42 5.56,5.42 3.01,0 5.56,-2.48 5.56,-5.42 0,-3.54 -3.94,-10.26 -4.39,-11.02z"/>
   <path class="fil0" d="M92.99 12.36l0 -7.89 -32.57 0 0 -4.47 -11.93 0 0 4.47 -7.77 -0 0 7.89 1.61 0 0 5.39 -22.64 0 0 -4.47 -11.93 0 0 4.47 -7.77 -0 0 7.89 1.61 0 0 59.44 -1.61 0 0 7.89 52.26 0 0 -7.89 -1.61 0 0 -5.39 42.34 0 0 -7.89 -1.61 0 0 -59.44 1.61 0zm-35.29 -9.63l0 1.74 -6.48 0 0 -1.74 6.48 0zm-47.21 13.28l6.48 0 0 1.74 -6.48 0 0 -1.74zm39.05 74.23l-46.82 0 0 -2.44 46.82 0 0 2.44zm-1.61 -46.25l0 22.72 -43.6 0 0 -22.72 43.6 0zm-43.6 -2.72l0 -15.63 43.6 0 0 15.63 -43.6 0zm43.6 28.17l0 15.63 -43.6 0 0 -15.63 43.6 0zm1.61 -46.53l-46.82 0 0 -2.44 46.82 0 0 2.44zm-4.48 -5.16l0 -5.39 0 0 43.6 0 0 15.63 -38 0 0 -2.36 1.61 0 0 -7.89 -7.2 0zm5.59 35.69l0 -22.72 38 0 0 22.72 -38 0zm38 2.72l0 15.63 -38 0 0 -15.63 38 0zm1.61 20.8l-39.61 0 0 -2.44 39.61 0 0 2.44zm0 -67.33l-46.82 0 0 -2.44 46.82 0 0 2.44z"/>
   <path class="fil0" d="M66.86 48.46c-1.51,0 -2.84,-1.26 -2.84,-2.7 0,-1.77 1.56,-5.13 2.83,-7.53 1.38,2.62 2.84,5.91 2.84,7.53 0,1.44 -1.33,2.7 -2.84,2.7z"/>
   <path class="fil0" d="M68.03 34.75l-1.17 -1.96 -1.17 1.96c-0.45,0.75 -4.39,7.43 -4.39,11.02 0,2.94 2.55,5.42 5.56,5.42 3.01,0 5.56,-2.48 5.56,-5.42 0,-3.54 -3.94,-10.26 -4.39,-11.02z"/>
  </g>
 </g>
</svg>
