<?xml version="1.0" encoding="UTF-8"?>
<!DOCTYPE svg PUBLIC "-//W3C//DTD SVG 1.1//EN" "http://www.w3.org/Graphics/SVG/1.1/DTD/svg11.dtd">
<!-- Creator: CorelDRAW 2020 (64-Bit) -->
<svg xmlns="http://www.w3.org/2000/svg" xml:space="preserve" width="20.0641mm" height="18.5524mm" version="1.1" style="shape-rendering:geometricPrecision; text-rendering:geometricPrecision; image-rendering:optimizeQuality; fill-rule:evenodd; clip-rule:evenodd"
viewBox="0 0 142.68 131.93"
 xmlns:xlink="http://www.w3.org/1999/xlink"
 xmlns:xodm="http://www.corel.com/coreldraw/odm/2003">
 <defs>
  <style type="text/css">
   <![CDATA[
    .fil0 {fill:black}
    .fil1 {fill:black;fill-rule:nonzero}
   ]]>
  </style>
 </defs>
 <g id="Слой_x0020_1">
  <metadata id="CorelCorpID_0Corel-Layer"/>
  <g id="_1328427059536">
   <path class="fil0" d="M96.7 127.42c-2.02,2.56 -4.88,4.06 -7.88,4.43 -2.97,0.36 -6.1,-0.42 -8.67,-2.43l-48.4 -37.9 -0.45 -15.06c-0.49,-13.83 -0.97,-27.65 -1.44,-41.48l28.98 -34.97 83.84 66.19 -45.92 61.13 -0.06 0.1zm-3.94 -3.1c-2.32,2.94 -6.58,3.46 -9.53,1.15l-46.55 -36.45 -0.38 -12.75 -0.83 -23.66 -0.55 -15.9 24.67 -29.76 76.17 60.13 -42.99 57.23z"/>
   <path class="fil0" d="M20.81 74.78l-0.68 -18.41c-0.21,-1.83 -0.02,-4.44 -0.02,-6.33l15.27 -0.51 1.05 30.02 -15.44 0.08 -0.18 -4.85zm5 -0.18c-0.24,-6.53 -0.68,-13.22 -0.68,-19.73l5.43 -0.18 0.7 19.88 -5.44 0.03z"/>
   <path class="fil0" d="M11.13 71.48l-0.67 -18.41 14.55 0 0.85 23.3 -14.56 -0.1 -0.18 -4.79zm5 -0.18l-0.48 -13.22 4.55 0 0.49 13.25 -4.55 -0.03z"/>
   <path class="fil0" d="M42.53 68.2l-1.06 -30.67 17.4 -21.08 25.32 20.19 -32.36 41.52 -9.21 -7.69 -0.08 -2.26zm5 -0.16l-1 -28.8 13.06 -15.82 17.61 14.04 -26.13 33.53 -3.54 -2.95z"/>
   <path class="fil1" d="M111.77 74.61l8.62 -1.08 2.4 1.86 -1.84 2.49 -8.8 1.1 -18.96 23.9 1.06 8.66 -1.68 2.17 -0.74 0 -1.91 -1.68 -1.1 -8.71 -23.95 -18.93 -8.89 1.05 -2.17 -1.92 1.88 -2.43 8.8 -1.1 18.95 -23.92 -1.08 -8.62 1.86 -2.4 2.49 1.85 1.1 8.8 23.1 17.84 0.87 1.04zm-20.77 24.49l16.99 -21.64 -0.08 -0.66 -21.79 -17.13 -0.16 -0.05 -0.29 0.14 -17.04 21.79 0.08 0.65 21.63 16.98 0.65 -0.08z"/>
   <path class="fil1" d="M9.08 83.85l-1.57 -2.64 -1.58 2.64c-0.61,1.01 -5.93,10.03 -5.93,14.87 0,3.96 3.44,7.31 7.5,7.31 4.07,0 7.5,-3.35 7.5,-7.31 0,-4.78 -5.32,-13.85 -5.92,-14.87zm-1.58 18.5c-2.04,0 -3.83,-1.7 -3.83,-3.64 0,-2.39 2.11,-6.93 3.83,-10.16 1.86,3.53 3.83,7.97 3.83,10.16 0,1.94 -1.79,3.64 -3.83,3.64z"/>
   <path class="fil0" d="M3.41 66.42l-0.67 -8.33 12.67 0 0.85 13.22 -12.68 -0.1 -0.18 -4.79zm5 -0.18l-0.48 -3.14 2.66 0 0.49 3.17 -2.67 -0.03z"/>
  </g>
 </g>
</svg>
