<svg xmlns="http://www.w3.org/2000/svg" xml:space="preserve" version="1.1" style="shape-rendering:geometricPrecision; text-rendering:geometricPrecision; image-rendering:optimizeQuality; fill-rule:evenodd; clip-rule:evenodd"
viewBox="0 0 78.49 101.66"
 xmlns:xlink="http://www.w3.org/1999/xlink"
 xmlns:xodm="http://www.corel.com/coreldraw/odm/2003">
 <g>
  <path d="M53.12 74.86l-11.73 0 0 -2.37 -5.38 0c0.52,4.1 2.37,7.89 5.34,10.86l1.17 1.17c0.75,0.75 0.75,1.97 0,2.73 -0.38,0.38 -0.87,0.56 -1.36,0.56 -0.49,0 -0.99,-0.19 -1.36,-0.56l-1.17 -1.17c-3.7,-3.7 -5.96,-8.46 -6.5,-13.59l-1.56 0 -4.95 14.14 -0.01 -0c-1.23,3.65 -3.39,6.78 -6.16,9.15 -2.82,2.42 -6.29,4.07 -10.05,4.7l-7.06 1.19 9.61 -29.18 -0.05 0 4.69 -13.8 10.71 0 -2.06 -5.91 -12.83 -3.69 -12.42 -38.48 32.84 -10.6 12.42 38.48 -8.19 10.42 3.41 9.78 0.91 0 0 -2.36 16.06 0 0 6.94 3.52 0 0 4.82 -3.52 0 0 6.78 -4.33 0zm12.14 -11.6l4.38 0 0 4.82 -4.38 0 0 -4.82zm6.2 0l7.04 0 0 4.82 -7.04 0 0 -4.82zm-7.67 -6.43l4.18 -1.34 1.47 4.59 -4.18 1.34 -1.47 -4.59zm5.9 -1.89l6.7 -2.15 1.47 4.59 -6.7 2.15 -1.47 -4.59zm-5.9 19.57l1.47 -4.59 4.18 1.34 -1.47 4.59 -4.18 -1.34zm5.91 1.89l1.47 -4.59 6.7 2.15 -1.47 4.59 -6.7 -2.15zm-16.57 -5.87l-7.41 0 0 -9.9 7.41 0 0 9.9zm-23.06 -65.1l0.88 2.73 -24.63 7.95 -0.88 -2.73 24.63 -7.95zm-14.24 40.13l-8.32 -25.78 24.63 -7.95 8.32 25.78 -7.22 9.18 -6.18 2.01 -11.24 -3.23zm13.74 6.47l3.63 -1.18 2.89 8.29 -4.04 0 -2.48 -7.11zm-8.02 33.17c-1.95,5.84 -6.93,10.01 -12.85,11.01l7.97 -24.2 9.49 0 -4.62 13.19zm-3.6 -17.05l1.75 -5.15 22.17 0 0 5.15 -23.92 0z"/>
 </g>
</svg>
