<svg xmlns="http://www.w3.org/2000/svg" xml:space="preserve" version="1.1" style="shape-rendering:geometricPrecision; text-rendering:geometricPrecision; image-rendering:optimizeQuality; fill-rule:evenodd; clip-rule:evenodd"
viewBox="0 0 109.38 109.11"
 xmlns:xlink="http://www.w3.org/1999/xlink"
 xmlns:xodm="http://www.corel.com/coreldraw/odm/2003">
 <g>
  <path d="M102.09 80.59l-0.7 -18.39 3.43 -4.72 -4.16 -7.64 0.84 -2.57 7.86 -3.74 0 -7.61 -7.86 -3.74 -0.84 -2.57 4.16 -7.64 -4.48 -6.16 -8.55 1.59 -2.19 -1.59 -1.13 -8.63 -7.24 -2.35 -5.99 6.31 -2.7 -0 -5.99 -6.32 -7.24 2.35 -0.35 2.69 -25.31 -1.51 -1.71 -1.71 -0.47 -3.83 -6.83 -2.84 -3.04 2.38 -2.47 0 -3.05 -2.38 -6.83 2.84 -0.47 3.83 -1.75 1.75 -3.83 0.47 -2.84 6.84 2.38 3.05 0 2.47 -2.38 3.04 2.26 5.45 -2.52 32.24c-0.06,0.41 -0.09,0.82 -0.1,1.24l0 0.07 -0.01 0 0 0.14c-0.01,3.7 1.86,7.15 4.96,9.16 3.1,2.02 7.01,2.33 10.39,0.83l10.78 -4.49c-1.75,4.93 0.27,10.41 4.81,13.03l-16.66 5.37c-5.51,1.1 -9.29,6.2 -8.74,11.79 0.55,5.59 5.25,9.86 10.87,9.87l0.1 0 67.1 -3.52 1.03 2.46 5.79 1.19 4.7 -4.57 1.2 -0.4 6.5 0.84 3.93 -4.42 -1.61 -6.36 0.26 -1.24 3.98 -5.21 -1.86 -5.61 -5.44 -1.54zm-29.19 -22.64c10.06,0 18.22,-8.16 18.22,-18.22 0,-10.07 -8.16,-18.22 -18.22,-18.22 -10.07,0 -18.22,8.16 -18.22,18.22 0.01,10.06 8.16,18.21 18.22,18.22zm0 -32.8c8.05,0 14.58,6.53 14.58,14.58 0,8.05 -6.53,14.58 -14.58,14.58 -8.05,0 -14.58,-6.53 -14.58,-14.58 0.01,-8.05 6.53,-14.57 14.58,-14.58zm18.22 56.49c-5.03,0 -9.11,4.08 -9.11,9.11 0,5.03 4.08,9.11 9.11,9.11 5.03,0 9.11,-4.08 9.11,-9.11 -0.01,-5.03 -4.08,-9.11 -9.11,-9.11zm0 14.58c-3.02,0 -5.47,-2.45 -5.47,-5.47 0,-3.02 2.45,-5.47 5.47,-5.47 3.02,0 5.47,2.45 5.47,5.47 0,3.02 -2.45,5.47 -5.47,5.47zm-71.07 1.82c0,2.01 -1.63,3.64 -3.64,3.64 -2.01,0 -3.64,-1.63 -3.64,-3.64 0,-2.01 1.63,-3.65 3.64,-3.65 2.01,0 3.64,1.63 3.64,3.65zm20.05 -25.51c0,2.01 -1.63,3.65 -3.64,3.65 -2.01,0 -3.65,-1.63 -3.65,-3.65 0,-2.01 1.63,-3.64 3.65,-3.64 2.01,0 3.64,1.63 3.64,3.64zm-25.51 -9.11c0,2.01 -1.63,3.64 -3.65,3.64 -2.01,0 -3.64,-1.63 -3.64,-3.64 0,-2.01 1.63,-3.65 3.64,-3.65 2.01,0 3.65,1.63 3.65,3.65zm5.79 -34.03c5.19,0 9.39,-4.21 9.39,-9.39 0,-5.19 -4.21,-9.39 -9.39,-9.39 -5.19,0 -9.39,4.21 -9.39,9.39 0.01,5.19 4.21,9.39 9.39,9.39zm0 -15.14c3.18,0 5.75,2.57 5.75,5.75 0,3.18 -2.57,5.75 -5.75,5.75 -3.17,0 -5.75,-2.57 -5.75,-5.75 0,-3.17 2.58,-5.74 5.75,-5.75zm52.53 36.41c6.04,0 10.93,-4.9 10.93,-10.93 0,-6.04 -4.9,-10.93 -10.93,-10.93 -6.04,0 -10.93,4.9 -10.93,10.93 0.01,6.04 4.9,10.93 10.93,10.93zm0 -18.22c4.03,0 7.29,3.26 7.29,7.29 0,4.03 -3.26,7.29 -7.29,7.29 -4.03,0 -7.29,-3.26 -7.29,-7.29 0,-4.03 3.26,-7.29 7.29,-7.29zm-10.26 -22.5l2.86 -0.93 5.48 5.78 5.83 0 5.48 -5.78 2.86 0.93 1.03 7.9 4.72 3.43 7.84 -1.46 1.77 2.43 -3.8 7 1.8 5.55 7.19 3.43 0 3.01 -7.19 3.43 -1.8 5.55 3.8 7 -1.77 2.43 -7.84 -1.46 -4.72 3.43 -1.03 7.9 -2.86 0.93 -5.48 -5.78 -5.83 0 -5.48 5.78 -2.86 -0.93 -1.03 -7.9 -4.72 -3.43 -7.84 1.46 -1.77 -2.43 3.8 -7 -1.8 -5.55 -7.19 -3.43 0 -3.01 7.19 -3.43 1.8 -5.55 -3.8 -7 1.77 -2.43 7.84 1.46 4.72 -3.43 1.03 -7.9zm-58.08 5.21l1.2 -2.92 2.97 -0.36 3.52 -3.51 0.36 -2.97 2.92 -1.2 2.36 1.84 4.98 0 2.35 -1.83 2.92 1.2 0.36 2.97 3.51 3.52 2.97 0.36 1.2 2.92 -1.84 2.36 0 4.98 1.84 2.36 -1.2 2.92 -2.97 0.37 -3.52 3.52 -0.37 2.97 -2.91 1.2 -2.36 -1.84 -4.98 -0 -2.36 1.84 -2.92 -1.2 -0.36 -2.97 -3.52 -3.54 -2.97 -0.36 -1.2 -2.92 1.84 -2.36 0 -4.98 -1.83 -2.36zm-0.91 48.3l0.02 -0.29c0.37,-3.76 3.69,-6.52 7.45,-6.19 3.76,0.33 6.55,3.62 6.26,7.39 -0.29,3.76 -3.55,6.59 -7.32,6.34 -3.77,-0.25 -6.63,-3.49 -6.42,-7.25zm32.8 1.79c4.03,0 7.29,3.26 7.29,7.29 0,4.03 -3.26,7.29 -7.29,7.29 -4.03,0 -7.29,-3.26 -7.29,-7.29 0,-4.03 3.26,-7.29 7.29,-7.29zm-27.34 32.8c0.01,-2.83 1.66,-5.4 4.22,-6.59l1.76 -0.57c2.7,-0.48 5.44,0.6 7.09,2.79 1.65,2.19 1.93,5.12 0.72,7.59 -1.21,2.46 -3.7,4.04 -6.44,4.07l-0.09 0c-4.02,-0.01 -7.27,-3.27 -7.27,-7.29zm15.81 6.84c1.99,-2.46 2.81,-5.66 2.25,-8.78 -0.56,-3.11 -2.44,-5.83 -5.17,-7.44l17.8 -5.73c3.85,-1.2 6.72,-4.42 7.48,-8.37 0.76,-3.96 -0.71,-8.01 -3.84,-10.55 -3.13,-2.54 -7.4,-3.16 -11.11,-1.61l-11.07 4.61c1.6,-4.55 0.02,-9.61 -3.88,-12.45 -3.9,-2.84 -9.2,-2.77 -13.04,0.16l1.82 -23.25 0.88 0.11 1.75 1.75 0.47 3.83 6.84 2.83 3.04 -2.37 2.47 0 3.04 2.37 6.82 -2.82 0.47 -3.83 1.75 -1.75 3.83 -0.47 2.83 -6.83 -2.37 -3.04 0 -2.48 2.37 -3.04 -1.4 -3.38 19.55 1.16 -0.3 2.31 -2.19 1.59 -8.55 -1.59 -4.48 6.16 4.16 7.64 -0.83 2.56 -7.86 3.74 0 7.61 7.85 3.74 0.84 2.57 -4.16 7.64 4.48 6.16 8.55 -1.59 2.19 1.59 1.13 8.63 7.24 2.35 5.99 -6.31 2.7 0 5.99 6.32 7.24 -2.35 1.13 -8.63 2.19 -1.59 5.99 1.12 0.44 11.4 -0.47 -1.11 -5.8 -1.19 -4.71 4.57 -1.2 0.4 -6.5 -0.84 -3.93 4.42 1.6 6.36 -0.25 1.24 -3.98 5.21 1.87 5.61 6.31 1.79 0.95 0.84 0 0.01 -57.18 3zm77.09 -13.47l-0.59 2.87 1.33 5.3 -1.37 1.54 -5.42 -0.69 -2.78 0.92 -3.92 3.8 -2.02 -0.41 -2.1 -5.04 -2.19 -1.95 -5.25 -1.49 -0.65 -1.96 3.31 -4.34 0.59 -2.87 -1.34 -5.3 1.37 -1.54 5.42 0.7 2.78 -0.92 3.92 -3.8 2.02 0.42 2.11 5.04 2.19 1.94 5.25 1.49 0.65 1.96 -3.31 4.34z"/>
 </g>
</svg>
