<svg xmlns="http://www.w3.org/2000/svg" xml:space="preserve" version="1.1" style="shape-rendering:geometricPrecision; text-rendering:geometricPrecision; image-rendering:optimizeQuality; fill-rule:evenodd; clip-rule:evenodd"
viewBox="0 0 93.97 77.26"
 xmlns:xlink="http://www.w3.org/1999/xlink"
 xmlns:xodm="http://www.corel.com/coreldraw/odm/2003">
 <g>
  <path d="M90.5 33.43l3.47 -0 0 13.2 -3.2 0 -5.57 30.62 -18.36 0 0 -0.01 -36.71 -0 0 0.01 -13.42 0 0 -0.01 -7.94 -0 -5.57 -30.62 -3.2 0 0 -13.18 3.47 0c1.85,-5.57 3.71,-11.14 5.57,-16.71l7.66 -0 0 -0.01 8.36 -0 0 -5.57 2.78 0 0 -3.16c0,-2.2 0.9,-4.2 2.34,-5.64 1.44,-1.44 3.44,-2.34 5.64,-2.34l0 0.01 14.08 0 0 -0.01 8.22 0c2.2,0 4.2,0.9 5.64,2.34 1.44,1.44 2.34,3.44 2.34,5.64l0 3.16 2.78 0 0 5.57 16.02 0 5.58 16.73zm-0.29 9.43l-11.24 0 0 -5.68 11.24 -0 0 5.68zm-40.29 -39.1l8.22 0c2.32,0 4.21,1.89 4.21,4.21l0 4.24 -2.88 -0 0 -4.22c0,-0.74 -0.6,-1.35 -1.35,-1.35l-22.28 0c-0.74,0 -1.35,0.6 -1.35,1.35l0 4.22 -2.88 0 0 -4.24c0,-2.32 1.89,-4.21 4.21,-4.21l14.08 0zm-19.79 69.72l-4.08 0 0 -5.47 0.1 0 0 -11.24 -8.45 0 0 11.24 0.1 0 0 5.47 -5.89 -0 -5.08 -27.93 8.18 0 0 2.77 2.69 0 0 5.57 8.45 0 0 -5.57 2.69 0 0 -2.77 36.3 0 0 2.77 2.69 0 0 5.57 8.45 0 0 -5.57 2.69 0 0 -2.77 8.18 0 -5.08 27.93 -5.89 0 0 -5.47 0.1 0 0 -11.24 -8.45 0 0 11.24 0.1 0 0 5.47 -37.79 -0zm-9.65 -14.02l2.88 0 0 14.02 -2.88 0 0 -14.02zm50.13 0l2.88 0 0 14.02 -2.88 0 0 -14.02zm2.88 -38.99l0 5.67 -2.88 0 0 -5.67 2.88 0zm-8.36 -2.69l-8.45 0 0 -2.88 8.45 0 0 2.88zm-27.94 -8.45l19.59 0 0 2.88 -2.78 0 0 5.57 -14.02 0 0 -5.57 -2.78 0 0 -2.88zm-8.36 5.57l8.45 0 0 2.88 -8.45 0 0 -2.88zm-5.47 5.57l0 5.67 -2.88 0 0 -5.67 2.88 0zm-19.59 22.39l0 -5.68 11.24 -0 0 5.68 -11.24 0zm19.59 8.34l-2.88 0 0 -2.88 2.88 0 0 2.88zm2.79 -5.57l-8.45 0 0 -11.24 8.45 0 0 11.24zm2.69 -2.77l0 -5.68 36.3 -0 0 5.68 -36.3 0zm23.57 -8.37l-23.57 0 0 -2.79 -13.83 0 0 2.79 -7.93 0 4.67 -14.02 5.94 -0 0 8.36 8.45 0 0 -8.36 41.68 0 0 8.36 8.45 0 0 -8.36 5.94 0 4.67 14.02 -7.93 0 0 -2.79 -13.83 0 0 2.79 -12.73 0zm21.08 16.71l-2.88 0 0 -2.88 2.88 0 0 2.88zm2.79 -5.57l-8.45 0 0 -11.24 8.45 0 0 11.24z"/>
 </g>
</svg>
