<svg xmlns="http://www.w3.org/2000/svg" xml:space="preserve" version="1.1" style="shape-rendering:geometricPrecision; text-rendering:geometricPrecision; image-rendering:optimizeQuality; fill-rule:evenodd; clip-rule:evenodd"
viewBox="0 0 85.85 52.3"
 xmlns:xlink="http://www.w3.org/1999/xlink"
 xmlns:xodm="http://www.corel.com/coreldraw/odm/2003">
 <g>
  <path d="M5.9 8.3c0.41,-2.4 1.65,-4.48 3.4,-5.95 1.75,-1.48 4.01,-2.35 6.44,-2.35l54.37 0c2.43,0 4.69,0.88 6.44,2.35 1.75,1.47 2.99,3.55 3.4,5.95l5.72 33.5 -85.49 0 5.72 -33.5zm59.67 22.37l-7.98 0 0 -9.77 -9.77 0 0 9.77 -1.79 0 -7.98 0 0 -9.77 -9.77 0 0 9.77 -1.79 0 -7.98 0 0 -9.77 9.77 0 0 -9.78 1.79 0 7.98 0 0 9.78 9.77 0 0 -9.78 1.79 0 7.98 0 0 9.78 9.77 0 0 9.77 -1.79 0zm18.49 21.63l-84.05 0 0 -5.23 85.85 0 0 5.23 -1.79 0zm-72.45 -47.22c-1.12,0.94 -1.92,2.28 -2.18,3.82l-5.01 29.31 77 0 -5.01 -29.31c-0.26,-1.54 -1.06,-2.88 -2.18,-3.82 -1.11,-0.94 -2.56,-1.5 -4.13,-1.5l-54.37 0c-1.57,0 -3.01,0.56 -4.13,1.5z"/>
 </g>
</svg>
