<svg xmlns="http://www.w3.org/2000/svg" xml:space="preserve" version="1.1" style="shape-rendering:geometricPrecision; text-rendering:geometricPrecision; image-rendering:optimizeQuality; fill-rule:evenodd; clip-rule:evenodd"
viewBox="0 0 129.99 100.64"
 xmlns:xlink="http://www.w3.org/1999/xlink"
 xmlns:xodm="http://www.corel.com/coreldraw/odm/2003">
 <g>
  <path d="M79.67 0c-16.8,0 -31.69,8.28 -40.83,20.97l-32.55 0c-3.47,0 -6.29,2.82 -6.29,6.29l0 29.35c0,3.47 2.82,6.29 6.29,6.29l2.48 0c-0.23,0.66 -0.39,1.36 -0.39,2.1l0 29.35c0,3.47 2.82,6.29 6.29,6.29l65 0c1.41,0 2.81,-0.07 4.19,-0.19 5.54,-0.59 10.85,-1.9 15.89,-4.01 17.78,-7.77 30.24,-25.52 30.24,-46.13 0,-27.74 -22.57,-50.32 -50.32,-50.32zm0 39.84c-5.78,0 -10.48,4.7 -10.48,10.48 0,5.78 4.7,10.48 10.48,10.48 5.78,0 10.48,-4.7 10.48,-10.48 0,-5.78 -4.7,-10.48 -10.48,-10.48zm0 16.77c-3.47,0 -6.29,-2.82 -6.29,-6.29 0,-3.47 2.82,-6.29 6.29,-6.29 3.47,0 6.29,2.82 6.29,6.29 0,3.47 -2.82,6.29 -6.29,6.29zm0 -41.93c-19.65,0 -35.64,15.99 -35.64,35.64 0,19.65 15.99,35.64 35.64,35.64 19.65,0 35.64,-15.99 35.64,-35.64 0,-19.65 -15.99,-35.64 -35.64,-35.64zm24.76 16.31l-14.53 4.06 -1.49 -14.92c6.43,1.86 12,5.72 16.02,10.86zm-33.49 -10.86l-1.49 14.92 -14.53 -4.06c4.02,-5.14 9.59,-9 16.02,-10.86zm-22.66 29.09l13.55 6.16 -8.47 12.11c-3.24,-4.94 -5.13,-10.83 -5.13,-17.17 0,-0.37 0.04,-0.73 0.06,-1.1l-0 -0zm19.82 30.32l11.57 -11.57 11.57 11.57c-3.59,1.43 -7.48,2.23 -11.57,2.23 -4.09,0 -7.99,-0.81 -11.57,-2.23zm27.15 -1.93l-14.09 -14.09c-0.79,-0.79 -2.18,-0.79 -2.96,0l-14.09 14.09c-3.05,-1.75 -5.77,-3.99 -8.07,-6.62l10.69 -15.27c0.36,-0.51 0.47,-1.15 0.31,-1.76 -0.16,-0.6 -0.59,-1.1 -1.16,-1.35l-17.13 -7.78c0.65,-3.64 1.92,-7.07 3.71,-10.17l18.28 5.11c0.18,0.05 0.38,0.08 0.56,0.08 0.42,0 0.83,-0.13 1.18,-0.36 0.51,-0.35 0.84,-0.91 0.9,-1.52l1.87 -18.73c1.45,-0.21 2.92,-0.35 4.43,-0.35 1.51,0 2.98,0.14 4.43,0.35l1.87 18.73c0.06,0.62 0.39,1.17 0.9,1.52 0.35,0.24 0.77,0.37 1.18,0.37 0.19,0 0.38,-0.03 0.57,-0.08l18.28 -5.11c1.79,3.1 3.06,6.52 3.71,10.17l-17.13 7.78c-0.57,0.26 -0.99,0.75 -1.16,1.35 -0.16,0.6 -0.05,1.25 0.31,1.76l10.69 15.27c-2.3,2.63 -5.03,4.87 -8.08,6.62l0 0zm10.74 -10.12l-8.48 -12.11 13.55 -6.16c0.01,0.37 0.06,0.73 0.06,1.1 0,6.33 -1.9,12.23 -5.13,17.17l0 0zm-99.7 -42.33l29.83 0c-1.25,2.15 -2.34,4.41 -3.26,6.75l-4.66 -2.33c-0.59,-0.3 -1.28,-0.3 -1.88,0l-7.45 3.72 -7.45 -3.72c-0.59,-0.3 -1.28,-0.3 -1.88,0l-5.35 2.68 0 -4.99c0,-1.16 0.94,-2.1 2.1,-2.1zm6.29 49.52l6.29 -3.14 7.45 3.72c0.29,0.15 0.62,0.22 0.94,0.22 0.32,0 0.64,-0.07 0.94,-0.22l6.16 -3.08c2.42,5 5.65,9.54 9.52,13.46l-7.29 -3.65c-0.59,-0.3 -1.29,-0.3 -1.88,0l-7.45 3.72 -7.45 -3.72c-0.59,-0.3 -1.29,-0.3 -1.88,0l-5.35 2.68 -0 -9.99zm17.06 -29.71l-1.45 -0.72c-0.59,-0.3 -1.29,-0.3 -1.88,0l-7.45 3.73 -7.45 -3.72c-0.59,-0.3 -1.29,-0.3 -1.88,0l-5.35 2.68 0 -9.99 6.29 -3.14 7.45 3.72c0.29,0.15 0.62,0.22 0.94,0.22 0.32,0 0.64,-0.07 0.94,-0.22l7.45 -3.73 4.21 2.11c-0.88,2.92 -1.5,5.95 -1.83,9.07l-0 0zm-25.45 11.64l0 -4.99 6.29 -3.14 7.45 3.72c0.29,0.15 0.62,0.22 0.94,0.22 0.32,0 0.64,-0.07 0.94,-0.22l7.45 -3.73 2.12 1.06c-0,0.26 -0.02,0.53 -0.02,0.79 0,2.86 0.25,5.66 0.71,8.39l-23.78 0c-1.16,0 -2.1,-0.94 -2.1,-2.1l-0 -0zm26.75 6.29c0.48,1.85 1.07,3.66 1.75,5.42l-5.44 2.72 -7.45 -3.72c-0.59,-0.3 -1.29,-0.3 -1.88,0l-5.35 2.68 0 -4.99c0,-1.15 0.94,-2.1 2.1,-2.1l16.27 0zm-16.27 33.55c-1.16,0 -2.1,-0.94 -2.1,-2.1l0 -4.99 6.29 -3.14 7.45 3.72c0.59,0.3 1.29,0.3 1.88,0l7.45 -3.72 7.45 3.72c0.29,0.15 0.62,0.22 0.94,0.22 0.32,0 0.64,-0.07 0.94,-0.22l2.31 -1.15c3.69,3.11 7.83,5.7 12.32,7.67l-44.91 0 0 -0zm65 0c-25.43,0 -46.13,-20.69 -46.13,-46.13 0,-25.43 20.69,-46.13 46.13,-46.13 25.43,0 46.13,20.69 46.13,46.13 0,25.43 -20.69,46.13 -46.13,46.13z"/>
 </g>
</svg>
