<svg xmlns="http://www.w3.org/2000/svg" xml:space="preserve" version="1.1" style="shape-rendering:geometricPrecision; text-rendering:geometricPrecision; image-rendering:optimizeQuality; fill-rule:evenodd; clip-rule:evenodd"
viewBox="0 0 95.96 93.31"
 xmlns:xlink="http://www.w3.org/1999/xlink"
 xmlns:xodm="http://www.corel.com/coreldraw/odm/2003">
 <g>
  <path d="M54.94 88.67l-2.73 -11.76c-0.12,-0.51 -0.28,-1.18 -0.48,-1.99 -0.18,-0.7 -0.35,-1.36 -0.53,-1.97l-0.39 -1.37 -0.37 -1.14 -0.52 -1.54c-0.21,-0.6 -0.39,-1.11 -0.54,-1.53l-0.46 -1.24 -0.49 -1.2c-2.88,-7.08 -6.78,-13.64 -11.55,-19.48l-0.01 0.01c-4.78,-5.85 -10.43,-10.99 -16.79,-15.22l-1.22 -0.81 -0.98 -0.6c-0.75,-0.46 -1.56,-0.94 -2.44,-1.44 -0.69,-0.39 -1.51,-0.83 -2.47,-1.34l-12.99 -5.8 4.11 -3.74c1.3,-1.18 3.04,-2.11 4.72,-2.7 2.02,-0.72 4.18,-0.99 5.59,-0.69l0.52 0.11 0.42 0.22c0.78,0.41 1.85,0.91 3.03,1.47 1.98,0.93 4.23,2 5.68,2.8l0.05 -0.08 1.82 1.21 2.01 1.25 -0.04 0.07c0.9,0.61 1.79,1.24 2.67,1.89 0.61,0.45 1.22,0.91 1.84,1.39l0.34 -0.45 10.18 -1.2 6.76 5.5 1.52 3.19 -0.6 1.69 4.91 7.54 -0.92 5.08 -1.73 1.1c1.35,2.12 2.6,4.28 3.75,6.46l0 0.01c1.09,2.07 2.09,4.18 3,6.31l0.08 -0.04 0.9 2.4 0.76 1.84 -0.06 0.03 0.53 1.47 0.1 -0.05 0.76 2.58 0.6 1.82 -0.06 0.03c0.23,0.8 0.47,1.65 0.7,2.56 0.25,0.95 0.48,1.9 0.69,2.84 0.24,1.05 0.47,2.4 0.71,3.75l0 0.01c0.24,1.4 0.49,2.8 0.62,3.4l0.18 0.8 -0.17 0.76c-0.53,2.41 -1.27,4.06 -2.22,5.33 -1.04,1.38 -2.19,2.17 -3.53,2.89l-4.19 2.25 -1.08 -4.64zm18.56 -69.52c0,-0.75 -0.61,-1.36 -1.36,-1.36 -0.75,0 -1.36,0.61 -1.36,1.36 0,0.75 0.61,1.36 1.36,1.36 0.75,0 1.36,-0.61 1.36,-1.36zm-4.08 -4.08c0,-0.75 -0.61,-1.36 -1.36,-1.36 -0.75,0 -1.36,0.61 -1.36,1.36 0,0.75 0.61,1.36 1.36,1.36 0.75,0 1.36,-0.61 1.36,-1.36zm15.35 60.64l-2.73 -11.76c-0.12,-0.51 -0.28,-1.18 -0.48,-1.99 -0.18,-0.7 -0.35,-1.36 -0.53,-1.97l-0.39 -1.37 -0.37 -1.14 -0.52 -1.54c-0.21,-0.6 -0.39,-1.11 -0.54,-1.53l-0.46 -1.24 -0.49 -1.19c-2.88,-7.08 -6.78,-13.64 -11.55,-19.48l-0.01 0.01c-4.78,-5.85 -10.43,-10.99 -16.79,-15.22l-1.22 -0.81 -0.98 -0.6c-0.75,-0.46 -1.56,-0.94 -2.44,-1.44 -0.69,-0.39 -1.51,-0.83 -2.47,-1.34l-12.99 -5.8 4.11 -3.74c1.3,-1.18 3.04,-2.11 4.72,-2.7 2.02,-0.72 4.18,-0.99 5.59,-0.69l0.52 0.11 0.42 0.22c0.78,0.4 1.85,0.91 3.03,1.47 1.98,0.93 4.23,2 5.68,2.8l0.05 -0.08 1.82 1.21 2.01 1.25 -0.04 0.07c0.9,0.61 1.79,1.24 2.67,1.89 0.61,0.45 1.22,0.91 1.84,1.39l0.34 -0.45 10.18 -1.2 6.76 5.5 1.52 3.19 -0.6 1.69 4.91 7.54 -0.92 5.08 -1.73 1.1c1.35,2.12 2.6,4.28 3.75,6.46l0 0.01c1.09,2.07 2.09,4.18 3,6.31l0.08 -0.04 0.9 2.4 0.76 1.84 -0.06 0.03 0.53 1.47 0.1 -0.05 0.76 2.58 0.6 1.82 -0.06 0.03c0.23,0.8 0.47,1.65 0.7,2.56 0.25,0.95 0.48,1.9 0.69,2.84 0.24,1.05 0.47,2.4 0.71,3.75l0 0.01c0.24,1.4 0.49,2.8 0.62,3.4l0.18 0.8 -0.17 0.76c-0.53,2.41 -1.27,4.06 -2.22,5.33 -1.04,1.38 -2.19,2.17 -3.53,2.89l-4.19 2.25 -1.08 -4.64zm3.55 -0.81l-2.73 -11.75c-0.32,-1.4 -0.67,-2.78 -1.05,-4.15l4.95 -2.48c0.53,1.79 1,3.6 1.41,5.43 0.36,1.6 0.97,5.57 1.33,7.17 -0.81,3.7 -2.07,4.79 -3.92,5.78zm-25.11 -59.73l1.32 -1.72 7.14 -0.84 4.91 4 0.53 1.11 -0.69 1.95 5.1 7.84 -0.38 2.08 -3.18 2.01 -0.94 -1.56c-1.66,-2.78 -3.5,-5.45 -5.75,-7.75 -2.56,-2.62 -5.38,-4.74 -8.07,-7.11zm25.46 38.72l-4.93 2.46c-0.35,-1.08 -0.71,-2.15 -1.1,-3.21l4.91 -2.45c0.4,1.06 0.77,2.13 1.13,3.2zm-33.71 -44.19c2.23,1.49 4.39,3.07 6.47,4.76l-0.38 1.63 1.44 1.31c5.32,3.74 9.71,8.46 13.04,14.03l2.17 3.1 1.11 -0.21c0.15,0 0.3,-0.01 0.45,-0.04 2.86,4.41 5.29,9.04 7.28,13.87l-4.89 2.44c-6.02,-14.8 -16.35,-27.47 -29.72,-36.36l3.02 -4.53zm-18.57 -3.48c1.96,-1.78 5.62,-2.84 7.12,-2.53 1.92,1 7.32,3.39 9.16,4.53l-3.02 4.53c-1.67,-1.03 -3.38,-2.01 -5.14,-2.92l-8.11 -3.62zm7.29 25.91c0,-0.75 -0.61,-1.36 -1.36,-1.36 -0.75,0 -1.36,0.61 -1.36,1.36 0,0.75 0.61,1.36 1.36,1.36 0.75,0 1.36,-0.61 1.36,-1.36zm-4.08 -4.08c0,-0.75 -0.61,-1.36 -1.36,-1.36 -0.75,0 -1.36,0.61 -1.36,1.36 0,0.75 0.61,1.36 1.36,1.36 0.75,0 1.36,-0.61 1.36,-1.36zm18.9 59.82l-2.73 -11.75c-0.32,-1.4 -0.67,-2.78 -1.05,-4.15l4.95 -2.48c0.53,1.79 1,3.6 1.41,5.43 0.36,1.59 0.97,5.57 1.33,7.17 -0.81,3.7 -2.07,4.79 -3.92,5.78zm-25.11 -59.73l1.32 -1.72 7.14 -0.84 4.91 4 0.53 1.11 -0.69 1.95 5.1 7.84 -0.38 2.08 -3.18 2.01 -0.94 -1.56c-1.66,-2.78 -3.5,-5.45 -5.75,-7.75 -2.56,-2.62 -5.38,-4.74 -8.07,-7.11zm25.46 38.72l-4.93 2.46c-0.35,-1.08 -0.71,-2.15 -1.1,-3.21l4.91 -2.45c0.4,1.06 0.77,2.13 1.13,3.2zm-33.71 -44.19c2.23,1.48 4.39,3.07 6.47,4.76l-0.38 1.63 1.44 1.31c5.32,3.74 9.71,8.46 13.04,14.03l2.17 3.1 1.11 -0.21c0.15,0 0.3,-0.01 0.45,-0.04 2.86,4.41 5.29,9.04 7.28,13.87l-4.89 2.44c-6.02,-14.8 -16.35,-27.47 -29.72,-36.36l3.02 -4.53zm-18.57 -3.48c1.96,-1.78 5.62,-2.84 7.12,-2.53 1.92,1 7.32,3.39 9.16,4.53l-3.02 4.53c-1.67,-1.03 -3.38,-2.01 -5.14,-2.92l-8.11 -3.62z"/>
 </g>
</svg>
