<svg xmlns="http://www.w3.org/2000/svg" xml:space="preserve" width="7.111mm" height="17.8152mm" version="1.1" style="shape-rendering:geometricPrecision; text-rendering:geometricPrecision; image-rendering:optimizeQuality; fill-rule:evenodd; clip-rule:evenodd"
viewBox="0 0 10.93 27.39"
 xmlns:xlink="http://www.w3.org/1999/xlink"
 xmlns:xodm="http://www.corel.com/coreldraw/odm/2003">
 <g>
  <path d="M8.26 1.67l2.36 1.19c0.1,0.05 0.18,0.12 0.23,0.21 0.05,0.09 0.09,0.19 0.09,0.3l0 1.76c0,0.16 -0.06,0.3 -0.17,0.41 -0.1,0.1 -0.25,0.17 -0.41,0.17l-4.42 0 0 0.86 4.12 0c0.16,-0 0.3,0.06 0.41,0.17 0.1,0.1 0.17,0.25 0.17,0.41l-0 1.76c0,0.11 -0.03,0.21 -0.09,0.3 -0.06,0.09 -0.13,0.16 -0.23,0.21l-2.73 1.38c-0.26,0.13 -0.48,0.33 -0.63,0.57 -0.15,0.24 -0.23,0.52 -0.23,0.82l0 1.52c0,0.16 -0.06,0.3 -0.17,0.41 -0.1,0.1 -0.25,0.17 -0.41,0.17l-0.22 0 0 10.53c0,0.71 -0.29,1.35 -0.75,1.82 -0.47,0.47 -1.11,0.75 -1.82,0.75 -0.34,0 -0.68,-0.07 -0.99,-0.2 -0.31,-0.13 -0.59,-0.32 -0.83,-0.56 -0.24,-0.24 -0.43,-0.53 -0.56,-0.83 -0.13,-0.31 -0.19,-0.64 -0.19,-0.99l0 -10.53 -0.22 0c-0.16,0 -0.3,-0.06 -0.41,-0.17 -0.1,-0.1 -0.17,-0.25 -0.17,-0.41l0 -6.56c0,-0.16 0.06,-0.3 0.17,-0.41 0.1,-0.1 0.25,-0.17 0.41,-0.17l0.22 0 0 -3.23c0,-0.58 0.15,-1.14 0.42,-1.63 0.27,-0.49 0.67,-0.91 1.17,-1.22 0.5,-0.31 1.05,-0.47 1.61,-0.5 0.56,-0.02 1.13,0.09 1.65,0.36l2.61 1.31zm-0.52 1.03l-2.61 -1.31c-0.34,-0.17 -0.71,-0.25 -1.08,-0.23 -0.37,0.02 -0.73,0.13 -1.06,0.33 -0.33,0.2 -0.59,0.48 -0.77,0.8 -0.18,0.32 -0.28,0.69 -0.28,1.07l0 1.21 7.84 0 0 -0.83 -2.04 -1.03zm-5.21 21.18c0.21,-0.21 0.51,-0.35 0.84,-0.35 0.33,0 0.62,0.13 0.84,0.35 0.22,0.21 0.35,0.51 0.35,0.84 0,0.33 -0.13,0.62 -0.35,0.84 -0.22,0.22 -0.51,0.35 -0.84,0.35 -0.33,0 -0.62,-0.13 -0.84,-0.35 -0.21,-0.22 -0.35,-0.51 -0.35,-0.84 0,-0.33 0.13,-0.62 0.35,-0.84zm0.54 1.14c0.08,0.08 0.18,0.13 0.3,0.13 0.12,0 0.22,-0.05 0.3,-0.13 0.08,-0.08 0.13,-0.18 0.13,-0.3 0,-0.12 -0.05,-0.22 -0.13,-0.3 -0.08,-0.08 -0.18,-0.13 -0.3,-0.13 -0.12,0 -0.23,0.05 -0.3,0.13 -0.08,0.08 -0.13,0.18 -0.13,0.3 0,0.12 0.05,0.22 0.13,0.3zm-1.23 -14.97l3.05 0 0 1.15 -3.18 0 0 -1.15 0.14 0zm0 -1.61l3.05 0 0 1.15 -3.18 0 0 -1.15 0.14 0zm2.95 5.85l-2.84 0 0 10.53c0,0.19 0.04,0.38 0.11,0.54 0.07,0.17 0.17,0.33 0.31,0.46 0.13,0.13 0.29,0.24 0.46,0.31 0.17,0.07 0.35,0.11 0.54,0.11 0.39,0 0.75,-0.16 1,-0.42 0.26,-0.26 0.42,-0.61 0.42,-1l0 -10.53zm0 -8.58l-2.84 0 0 0.86 2.84 0 0 -0.86zm4.7 2.85l0 -0.83 -8.33 0 0 5.41 4.43 0 0 -0.94c0,-0.51 0.14,-1 0.4,-1.42 0.26,-0.42 0.63,-0.77 1.09,-1l2.42 -1.22z" fill="#fff"/>
 </g>
</svg>
