<svg xmlns="http://www.w3.org/2000/svg" xml:space="preserve" width="14.8416mm" height="17.639mm" version="1.1" style="shape-rendering:geometricPrecision; text-rendering:geometricPrecision; image-rendering:optimizeQuality; fill-rule:evenodd; clip-rule:evenodd"
viewBox="0 0 71.14 84.55"
 xmlns:xlink="http://www.w3.org/1999/xlink"
 xmlns:xodm="http://www.corel.com/coreldraw/odm/2003">
 <g>
  <path d="M67.75 20.19l-10.17 0c-0.86,0 -1.72,-0.18 -2.52,-0.51 -0.82,-0.34 -1.55,-0.82 -2.16,-1.43 -0.25,-0.25 -0.53,-0.44 -0.82,-0.56l0 -0c-0.29,-0.12 -0.61,-0.18 -0.97,-0.18l-10.8 0 0 44.17 4.02 0 0 22.87 -17.51 0 0 -22.87 4.02 0 0 -44.17 -10.8 0c-0.36,0 -0.69,0.06 -0.98,0.18 -0.28,0.11 -0.55,0.3 -0.81,0.56 -0.62,0.62 -1.35,1.1 -2.15,1.43l-0.01 0c-0.81,0.33 -1.66,0.51 -2.52,0.51l-13.56 0 0 -20.19 13.56 0c0.86,0 1.72,0.18 2.52,0.51 0.82,0.34 1.55,0.82 2.16,1.43 0.25,0.25 0.53,0.44 0.81,0.56 0.29,0.12 0.62,0.18 0.98,0.18l31.07 0c0.36,0 0.69,-0.06 0.98,-0.18 0.28,-0.12 0.55,-0.3 0.81,-0.56 0.62,-0.62 1.35,-1.1 2.15,-1.43l0.01 0c0.81,-0.33 1.66,-0.51 2.52,-0.51l13.56 0 0 20.19 -3.39 0zm-43.43 -7.84l4.5 0 0 -4.5 -4.5 0 0 4.5zm18.01 0l4.5 0 0 -4.5 -4.5 0 0 4.5zm-9 0l4.5 0 0 -4.5 -4.5 0 0 4.5zm34.43 4.45l-10.17 0c-0.86,0 -1.68,-0.34 -2.29,-0.95 -1.12,-1.12 -2.6,-1.73 -4.18,-1.73l-31.07 0c-1.58,0 -3.07,0.62 -4.18,1.73 -0.61,0.61 -1.43,0.95 -2.29,0.95l-10.17 0 0 -13.41 10.17 0c0.86,0 1.68,0.34 2.29,0.95 1.12,1.12 2.6,1.73 4.18,1.73l31.07 0c1.58,0 3.07,-0.62 4.18,-1.73 0.61,-0.61 1.43,-0.95 2.29,-0.95l10.17 0 0 13.41zm-33.52 45.59l0 -45.59 2.68 0 0 45.59 -2.68 0zm6.7 2.68l0 16.09 -10.73 0 0 -16.09 10.73 0z" fill="#fff"/>
 </g>
</svg>
