<svg xmlns="http://www.w3.org/2000/svg" xml:space="preserve" width="4.3168mm" height="17.6389mm" version="1.1" style="shape-rendering:geometricPrecision; text-rendering:geometricPrecision; image-rendering:optimizeQuality; fill-rule:evenodd; clip-rule:evenodd"
viewBox="0 0 3.77 15.41"
 xmlns:xlink="http://www.w3.org/1999/xlink"
 xmlns:xodm="http://www.corel.com/coreldraw/odm/2003">
 <g>
  <path d="M3.77 7.71l0 1.12 -0.62 0c-0.07,0 -0.11,0.03 -0.12,0.06 -0.01,0.02 -0.01,0.05 -0.01,0.08 0,0.03 0,0.06 0.01,0.08 0.01,0.03 0.05,0.06 0.12,0.06l0.62 0 -0.03 5.18 -0.2 0 -0.05 0.18c-0.13,0.43 -0.5,0.71 -0.94,0.85 -0.2,0.06 -0.43,0.09 -0.66,0.09 -0.23,-0 -0.45,-0.03 -0.66,-0.09 -0.44,-0.14 -0.8,-0.42 -0.93,-0.85l-0.05 -0.17 -0.2 0 -0.03 -5.18 0.62 0c0.07,0 0.11,-0.03 0.12,-0.06 0.01,-0.02 0.01,-0.05 0.01,-0.08 0,-0.03 -0,-0.06 -0.01,-0.08 -0.01,-0.03 -0.05,-0.06 -0.12,-0.06l-0.62 0 0 -1.74 1.01 0 0 -4.6 -0.26 -0.84 0.33 -1.65 1.61 0 0.33 1.65 -0.25 0.76 -0.01 4.68 1.01 0 0 0.62zm-1.63 5.97l0 -5.97 1.01 0 0 0.51c-1,0 -1,1.52 0,1.52l-0.03 3.94 -0.98 0zm-0.51 -5.97l0 5.97 -0.98 0 -0.03 -3.94c1,0 1,-1.52 0,-1.52l0 -0.51 1.01 0zm1.26 6.58l-2.01 0c0.2,0.67 1.8,0.67 2.01,0zm-0.71 -13.67l-0.6 0 -0.2 1 0.24 0.78 0 4.81 0.51 0 0.01 -4.89 0.23 -0.7 -0.2 -1z" fill="#fff"/>
 </g>
</svg>
