<svg xmlns="http://www.w3.org/2000/svg" xml:space="preserve" width="9.8492mm" height="17.8154mm" version="1.1" style="shape-rendering:geometricPrecision; text-rendering:geometricPrecision; image-rendering:optimizeQuality; fill-rule:evenodd; clip-rule:evenodd"
viewBox="0 0 22.99 41.58"
 xmlns:xlink="http://www.w3.org/1999/xlink"
 xmlns:xodm="http://www.corel.com/coreldraw/odm/2003">
 <g>
   <path d="M19.61 16.56l-1.03 1.03c0.7,1.14 2.2,3.78 3.25,7.05 0.67,2.08 1.16,4.41 1.16,6.77 0,1.84 -0.13,3.47 -0.32,4.85 -0.19,1.38 -0.43,2.51 -0.65,3.37 -0.15,0.57 -0.48,1.06 -0.92,1.4 -0.44,0.34 -0.99,0.54 -1.58,0.54l-1.67 0c-0.71,0 -1.36,-0.29 -1.82,-0.76 -0.47,-0.47 -0.76,-1.11 -0.76,-1.82 0,-0.13 0.01,-0.27 0.03,-0.4 0.02,-0.13 0.05,-0.27 0.09,-0.39 0.18,-0.54 0.6,-1.98 0.89,-4.12 0.18,-1.3 0.31,-2.87 0.31,-4.66 0,-2.2 -0.97,-4.51 -2.11,-6.46 -1.07,-1.83 -2.28,-3.35 -3,-4.18 -0.72,0.84 -1.93,2.36 -3,4.19 -1.14,1.96 -2.11,4.27 -2.11,6.46 0,1.79 0.13,3.35 0.31,4.66 0.29,2.15 0.72,3.59 0.89,4.12 0.04,0.13 0.07,0.26 0.09,0.39 0.02,0.14 0.03,0.27 0.03,0.4 0,0.71 -0.29,1.36 -0.76,1.82 -0.47,0.47 -1.11,0.76 -1.82,0.76l-1.67 -0c-0.59,0 -1.14,-0.2 -1.58,-0.54 -0.44,-0.34 -0.77,-0.83 -0.92,-1.4 -0.22,-0.86 -0.46,-1.99 -0.65,-3.37 -0.19,-1.38 -0.32,-3.01 -0.32,-4.85 0,-3.13 0.86,-6.2 1.85,-8.7 0.94,-2.37 2,-4.22 2.56,-5.13l-1.09 -1.09 0 -3.22 1.99 0 0 -4.58 2.9 -8.7 6.56 0c0.97,2.9 1.94,5.8 2.9,8.7l0 4.58 1.99 0 0 3.22 -0.06 0.06zm-6.08 -14.82l-1.16 0 0 0.44c0.37,0.16 0.69,0.42 0.93,0.75 0.25,0.36 0.4,0.79 0.4,1.26 0,0.47 -0.15,0.9 -0.4,1.26 -0.23,0.33 -0.55,0.59 -0.93,0.75l0 1.83c0.75,0.11 1.46,0.35 2.09,0.7 0.55,0.3 1.05,0.69 1.48,1.13l0 -0.89 -2.41 -7.24zm-1.71 2.13c-0.08,-0.08 -0.2,-0.13 -0.32,-0.13 -0.13,0 -0.24,0.05 -0.32,0.13 -0.08,0.08 -0.13,0.2 -0.13,0.32 0,0.13 0.05,0.24 0.13,0.32 0.08,0.08 0.2,0.13 0.32,0.13 0.13,0 0.24,-0.05 0.32,-0.13 0.08,-0.08 0.13,-0.2 0.13,-0.32 0,-0.13 -0.05,-0.24 -0.13,-0.32zm-6.84 30.48c-0.19,-1.38 -0.33,-3.04 -0.33,-4.92 0,-1.26 0.26,-2.53 0.68,-3.75 0.39,-1.15 0.91,-2.25 1.48,-3.27l-2.38 -1.19c-0.61,1.26 -1.27,2.82 -1.78,4.52 -0.53,1.78 -0.91,3.73 -0.91,5.68 0,1.76 0.12,3.3 0.3,4.61 0.18,1.31 0.41,2.38 0.61,3.18 0.05,0.19 0.16,0.35 0.3,0.46 0.14,0.11 0.32,0.18 0.51,0.18l1.67 0c0.23,0 0.44,-0.09 0.59,-0.25 0.15,-0.15 0.25,-0.36 0.25,-0.59 0,-0.05 -0,-0.09 -0.01,-0.13 -0.01,-0.04 -0.02,-0.09 -0.03,-0.13 -0.19,-0.58 -0.64,-2.12 -0.96,-4.4zm4.09 -15.34c0.67,-0.88 1.24,-1.53 1.55,-1.87l0 -1.55 -4.5 -0.56 -1.07 0 0 0.76 1.58 1.58 -0.4 0.59c-0.01,0.01 -0.22,0.33 -0.54,0.88 -0.14,0.23 -0.3,0.51 -0.47,0.84l2.49 1.24c0.46,-0.71 0.93,-1.36 1.36,-1.92zm-2.02 -10.02l0 4.41 4.44 0.56 4.37 -0.55c-0.18,-1.02 -0.7,-1.92 -1.44,-2.57 -0.78,-0.69 -1.81,-1.11 -2.93,-1.11l-0.87 0 0 -3.51c-0.37,-0.16 -0.69,-0.42 -0.93,-0.75 -0.25,-0.36 -0.4,-0.79 -0.4,-1.26 0,-0.47 0.15,-0.9 0.4,-1.26 0.23,-0.33 0.55,-0.59 0.93,-0.75l0 -0.44 -1.16 0 -2.41 7.24zm5.31 6.61l0 1.55c0.31,0.34 0.88,0.99 1.55,1.87 0.43,0.56 0.89,1.2 1.36,1.92l2.49 -1.25c-0.18,-0.32 -0.34,-0.6 -0.47,-0.84 -0.32,-0.55 -0.53,-0.86 -0.54,-0.88l-0.4 -0.6 1.58 -1.58 0 -0.76 -1.07 0 -4.5 0.56zm7.67 24.08c0.14,-0.11 0.25,-0.27 0.3,-0.46 0.24,-0.92 0.5,-2.17 0.68,-3.73 0.14,-1.18 0.23,-2.54 0.23,-4.06 0,-1.95 -0.38,-3.9 -0.91,-5.68 -0.51,-1.7 -1.17,-3.26 -1.78,-4.52l-2.38 1.19c0.57,1.02 1.1,2.12 1.48,3.27 0.42,1.22 0.68,2.49 0.68,3.75 0,1.88 -0.14,3.53 -0.33,4.92 -0.31,2.28 -0.77,3.82 -0.96,4.4 -0.01,0.04 -0.02,0.09 -0.03,0.13 -0.01,0.04 -0.01,0.08 -0.01,0.13 0,0.23 0.09,0.44 0.25,0.59 0.15,0.15 0.36,0.25 0.59,0.25l1.67 0c0.19,0 0.37,-0.07 0.51,-0.18z" fill="#fff"/>
 </g>
</svg>
