<svg xmlns="http://www.w3.org/2000/svg" xml:space="preserve" width="6.0423mm" height="17.6389mm" version="1.1" style="shape-rendering:geometricPrecision; text-rendering:geometricPrecision; image-rendering:optimizeQuality; fill-rule:evenodd; clip-rule:evenodd"
viewBox="0 0 7.62 22.24"
 xmlns:xlink="http://www.w3.org/1999/xlink"
 xmlns:xodm="http://www.corel.com/coreldraw/odm/2003">
 <g>
  <path d="M6.44 19.73c-0.72,1.45 -2.47,2.04 -3.92,1.32 -1.45,-0.72 -2.04,-2.47 -1.32,-3.92 0.28,-0.57 0.75,-1.04 1.32,-1.32 0.12,-0.06 0.2,-0.19 0.2,-0.33l0 -8.82c0,-0.14 -0.08,-0.26 -0.2,-0.33 -1.46,-0.74 -2.05,-2.52 -1.31,-3.98 0.26,-0.51 0.66,-0.94 1.15,-1.22l0 2.56c0,0.2 0.16,0.37 0.37,0.37l2.2 0c0.2,0 0.37,-0.16 0.37,-0.37l0 -2.56c1.41,0.83 1.88,2.65 1.05,4.06 -0.29,0.49 -0.71,0.89 -1.22,1.14 -0.12,0.06 -0.2,0.19 -0.2,0.33l0 8.82c0,0.14 0.08,0.27 0.2,0.33 1.45,0.72 2.04,2.47 1.32,3.92zm-2.99 -4.17l0.73 0 0 -8.78 -0.73 0 0 8.78zm0.91 4.91l-1.58 0 -1.24 -1.98 1.24 -1.98 2.09 0 1.17 1.98 -1.17 1.98 -0.5 0zm0 -0.88l-1.1 0 -0.69 -1.1 0.69 -1.1 1.1 0 0.65 1.1 -0.65 1.1zm2.79 0.68c-0.48,0.87 -1.24,1.48 -2.12,1.77 -0.92,0.31 -1.96,0.27 -2.9,-0.19l-0.14 -0.07 -0.01 -0.01c-0.87,-0.48 -1.48,-1.24 -1.77,-2.12 -0.31,-0.92 -0.27,-1.96 0.19,-2.9 0.19,-0.38 0.43,-0.72 0.72,-1.01 0.21,-0.21 0.45,-0.4 0.71,-0.56l0 -8.22c-0.8,-0.49 -1.36,-1.23 -1.64,-2.07 -0.31,-0.93 -0.26,-1.98 0.22,-2.93 0.17,-0.33 0.38,-0.63 0.63,-0.9 0.25,-0.26 0.54,-0.5 0.86,-0.68l1.33 -0.37 0 3.17 1.16 0 0 -3.17 1.33 0.38c0.92,0.54 1.53,1.4 1.77,2.35 0.25,0.95 0.13,2 -0.41,2.91 -0.19,0.32 -0.42,0.61 -0.68,0.86 -0.19,0.18 -0.39,0.33 -0.61,0.47l0 8.22c0.79,0.48 1.35,1.21 1.63,2.04 0.31,0.92 0.27,1.96 -0.19,2.9l-0.07 0.14 -0.01 0.01z" fill="#fff"/>
 </g>
</svg>
