<svg xmlns="http://www.w3.org/2000/svg" xml:space="preserve" width="17.639mm" height="17.639mm" version="1.1" style="shape-rendering:geometricPrecision; text-rendering:geometricPrecision; image-rendering:optimizeQuality; fill-rule:evenodd; clip-rule:evenodd"
viewBox="0 0 195.22 195.22"
 xmlns:xlink="http://www.w3.org/1999/xlink"
 xmlns:xodm="http://www.corel.com/coreldraw/odm/2003">
 <g>
  <path d="M164.7 189.86l-14.82 -14.82 0 -6.3 -48.72 -48.72 0.01 -0.02c-0.98,-0.96 -2.27,-1.45 -3.56,-1.45 -1.3,0 -2.59,0.48 -3.56,1.45l0.02 0.02 -48.72 48.72 0 6.3 -20.18 20.18 -25.16 -25.16 20.18 -20.18 6.3 0 48.72 -48.72 0.02 0.02c0.97,-0.98 1.45,-2.27 1.45,-3.56 0,-1.3 -0.49,-2.59 -1.45,-3.56l-0.02 0.01 -48.72 -48.72 -6.3 0 -20.18 -20.18 25.16 -25.16 20.18 20.18 0 6.3 48.72 48.72c0.98,0.98 2.26,1.47 3.55,1.47 1.3,0 2.59,-0.48 3.56,-1.45l-0.01 -0.02 48.72 -48.72 0 -6.3 20.18 -20.18 25.16 25.16 -20.18 20.18 -6.3 0 -48.72 48.72 -0.02 -0.01c-0.97,0.98 -1.45,2.27 -1.45,3.56 0,1.28 0.49,2.57 1.47,3.55l48.72 48.72 6.3 0 20.18 20.18 -25.16 25.16 -5.36 -5.36zm5.36 -5.36l-12.6 -12.6 0 -3.69 10.75 -10.75 3.69 0 12.6 12.6 -14.45 14.45zm-12.6 -161.19l12.6 -12.6 14.45 14.45 -12.6 12.6 -3.69 0 -10.75 -10.75 0 -3.69zm-134.14 14.45l-12.6 -12.6 14.45 -14.45 12.6 12.6 0 3.69 -10.75 10.75 -3.69 0zm14.45 134.14l-12.6 12.6 -14.45 -14.45 12.6 -12.6 3.69 0 10.75 10.75 0 3.69zm68.76 -57.24c-4.92,-4.91 -12.89,-4.91 -17.81,0l-47.79 47.79 -8.15 -8.15 47.79 -47.79c4.92,-4.92 4.92,-12.89 0,-17.82l-47.79 -47.79 8.15 -8.15 47.79 47.79c4.92,4.92 12.89,4.92 17.81,0l47.79 -47.79 8.15 8.15 -47.79 47.79c-4.92,4.92 -4.92,12.9 0,17.81l47.79 47.79 -8.15 8.15 -47.79 -47.79z" fill="#fff"/>
 </g>
</svg>
