<svg xmlns="http://www.w3.org/2000/svg" xml:space="preserve" width="8.4207mm" height="17.6388mm" version="1.1" style="shape-rendering:geometricPrecision; text-rendering:geometricPrecision; image-rendering:optimizeQuality; fill-rule:evenodd; clip-rule:evenodd"
viewBox="0 0 15.98 33.48"
 xmlns:xlink="http://www.w3.org/1999/xlink"
 xmlns:xodm="http://www.corel.com/coreldraw/odm/2003">
 <g>
  <path d="M1.43 0l8.87 0 5.68 1.89 0 4.79 -1.43 0 -2.43 -0.02 -4.87 0.11 0.06 -1.55 7.25 0.03 0 -2.34 -4.46 -1.49 -8.66 0 0 30.62 4.37 0 0 -1.09 -1.64 0 0 -1.09 1.64 0 0 -1.09 -1.09 0 0 -1.09 1.09 -0 0 -1.09 -1.64 0 0 -1.09 1.64 0 0 -1.09 -1.09 0 0 -1.09 1.09 0 0 -1.09 -2.19 0 0 -12.03 2.19 0 0 -4.92 1.43 -0.03 0 4.61 8.75 0 0 4.79 -5.68 1.89 -0.88 0 0 6.01 -2.19 0 0 10.94 -7.23 0 0 -33.48 1.43 0zm13.12 13.61l-4.46 1.49 -2.1 0 0 6.01 -3.28 0 0 -9.84 9.84 0 0 2.34z" fill="#fff"/>
 </g>
</svg>
