<svg xmlns="http://www.w3.org/2000/svg" xml:space="preserve" width="13.3178mm" height="17.6388mm" version="1.1" style="shape-rendering:geometricPrecision; text-rendering:geometricPrecision; image-rendering:optimizeQuality; fill-rule:evenodd; clip-rule:evenodd"
viewBox="0 0 281.68 373.07"
 xmlns:xlink="http://www.w3.org/1999/xlink"
 xmlns:xodm="http://www.corel.com/coreldraw/odm/2003">
 <g>
  <path d="M265.74 226.85l-24.37 0 0 -0.06c-0.6,0 -1.19,0.29 -1.65,0.75 -0.47,0.46 -0.75,1.06 -0.75,1.65l0.06 0 0 2.34 12.18 0 0 68.44 -12.18 0 0 73.11 -44.07 0 0 -73.11 -4.68 0 0 73.11 -50.16 0 0 -73.11 -4.68 0 0 73.11 -56.25 0 0 -73.11 -4.68 0 0 73.11 -62.34 0 0 -73.11 -12.18 0 0 -68.44 12.18 0 0 -166.84 0.06 0c0.02,-17.9 7.24,-34.06 18.9,-45.72 11.66,-11.66 27.82,-18.88 45.72,-18.9l0 -0.06 76.87 0 0 62.34 -47.62 0 0 -0.06c-11.66,0.01 -20.34,1.56 -25.39,5.47 -4.07,3.15 -6.25,9.15 -6.26,18.86l0.06 0 0 144.91 4.68 0 0 -112.01 0.06 0c0.02,-14.49 5.88,-27.59 15.33,-37.05l0 -0.06c9.45,-9.45 22.57,-15.31 37.11,-15.33l0 -0.06 70.77 0 0 56.25 -47.62 0 0 -0.06c-7.34,0.01 -12.42,1.41 -15.25,4.21l0.03 0.03c-2.82,2.82 -4.23,7.89 -4.24,15.22l0.06 0 0 88.86 4.68 0 0 -63.27 0.06 0c0.01,-11.13 4.51,-21.18 11.75,-28.43l0.06 -0.06c7.25,-7.25 17.3,-11.74 28.43,-11.75l0 -0.06 64.68 0 0 50.16 -40.31 0 0 -0.06c-3.99,0 -7.63,1.65 -10.29,4.3l0.03 0.03c-2.67,2.67 -4.32,6.3 -4.33,10.26l0.06 0 0 38.89 4.68 0 0 -20.62 0.06 0c0.01,-7.75 3.14,-14.77 8.21,-19.85l-0.03 -0.03c5.05,-5.05 12.08,-8.17 19.88,-8.18l0 -0.06 58.59 0 0 44.07 -15.94 0zm0 -15.94l-24.37 0c-10.09,0.01 -18.27,8.19 -18.28,18.28l0 6.09 -12.19 0 0 -24.37c0.01,-6.73 5.46,-12.17 12.19,-12.18l42.65 0 0 12.18zm-109.67 -42.65c0.01,-13.46 10.92,-24.36 24.37,-24.37l48.74 0 0 18.28 -24.37 0c-16.82,0.02 -30.45,13.64 -30.47,30.46l0 42.65 -18.28 0 0 -67.02zm-60.93 -48.74c0.03,-20.18 16.38,-36.53 36.56,-36.56l54.84 0 0 24.37 -31.68 0c-23.54,0.03 -35.31,11.8 -35.34,35.34l0 92.61 -24.37 0 0 -115.76zm-67.02 -54.84c0.03,-26.91 21.84,-48.71 48.74,-48.74l60.93 0 0 30.46 -31.68 0c-30.27,0.04 -47.49,9.94 -47.52,40.21l0 148.67 -30.46 0 0 -170.6zm-12.18 182.78l188.88 0 0 36.56 -188.88 0 0 -36.56zm42.65 109.67l-30.46 0 0 -60.93 30.46 0 0 60.93zm60.93 0l-24.37 0 0 -60.93 24.37 0 0 60.93zm54.84 0l-18.28 0 0 -60.93 18.28 0 0 60.93zm48.74 0l-12.19 0 0 -60.93 12.19 0 0 60.93zm12.18 -73.11l-18.28 0 0 -36.56 18.28 0 0 36.56z" fill="#fff"/>
 </g>
</svg>
