<?xml version="1.0" encoding="UTF-8"?>
<!DOCTYPE svg PUBLIC "-//W3C//DTD SVG 1.1//EN" "http://www.w3.org/Graphics/SVG/1.1/DTD/svg11.dtd">
<!-- Creator: CorelDRAW 2020 (64-Bit) -->
<svg xmlns="http://www.w3.org/2000/svg" xml:space="preserve" width="40.9956mm" height="10.6586mm" version="1.1" style="shape-rendering:geometricPrecision; text-rendering:geometricPrecision; image-rendering:optimizeQuality; fill-rule:evenodd; clip-rule:evenodd"
viewBox="0 0 857.48 222.94"
 xmlns:xlink="http://www.w3.org/1999/xlink"
 xmlns:xodm="http://www.corel.com/coreldraw/odm/2003">
 <defs>
  <style type="text/css">
   <![CDATA[
    .fil0 {fill:#2B2A29;fill-rule:nonzero}
   ]]>
  </style>
 </defs>
 <g id="Слой_x0020_1">
  <metadata id="CorelCorpID_0Corel-Layer"/>
  <g id="_2013756417072">
   <path id="Path" class="fil0" d="M582.23 39.11l49.14 -36.26 -164.51 0 0 217.22 164.51 0 0 -36.26 -117.51 0 0 -55.46 100.42 0 0 -36.26 -100.42 0 0 -52.97 68.37 0zm-424.09 134.03c-12.46,6.75 -26.35,10.31 -40.6,10.31 -42.37,0 -73,-30.22 -73,-71.81 0,-41.59 30.63,-71.81 73,-71.81 15.31,-0.36 30.27,4.62 42.73,13.51l33.83 -24.89 0 0 -2.14 -2.13c-19.58,-17.42 -45.93,-26.31 -75.84,-26.31 -32.4,0 -61.96,11.02 -83.32,30.93 -21.37,20.62 -33.47,49.42 -32.76,79.28 -0.36,30.22 11.4,59.37 32.76,80.7 22.43,20.97 52.35,32.71 82.97,32 33.83,0 63.38,-11.73 83.32,-33.06l-30.27 -22.4 -10.68 5.69zm606.41 -170.29l-89.38 0 0 217.22 47 0 0 -61.5 42.73 0c56.97,0 92.58,-29.86 92.58,-77.86 0,-47.99 -35.61,-77.86 -92.94,-77.86zm-1.07 119.45l-41.66 0 0 -83.19 41.66 0c30.27,0 46.65,14.93 46.65,41.59 0,26.66 -16.38,41.6 -46.65,41.6zm-420.89 -34.84l-56.97 0 0 -48.35 91.16 0 49.14 -36.26 -187.3 0 0 217.22 97.92 0c54.84,0 86.53,-24.89 86.53,-68.26 0,-41.59 -28.49,-64.35 -80.48,-64.35zm-7.84 96.35l-49.14 0 0 -60.08 49.14 0c29.91,0 43.8,9.96 43.8,30.22 0,20.26 -14.96,29.86 -43.8,29.86z"/>
  </g>
 </g>
</svg>
