<?xml version="1.0" encoding="UTF-8"?>
<!DOCTYPE svg PUBLIC "-//W3C//DTD SVG 1.1//EN" "http://www.w3.org/Graphics/SVG/1.1/DTD/svg11.dtd">
<!-- Creator: CorelDRAW 2020 (64-Bit) -->
<svg xmlns="http://www.w3.org/2000/svg" xml:space="preserve" width="63.5mm" height="10.5227mm" version="1.1" style="shape-rendering:geometricPrecision; text-rendering:geometricPrecision; image-rendering:optimizeQuality; fill-rule:evenodd; clip-rule:evenodd"
viewBox="0 0 2676.82 443.58"
 xmlns:xlink="http://www.w3.org/1999/xlink"
 xmlns:xodm="http://www.corel.com/coreldraw/odm/2003">
 <defs>
  <style type="text/css">
   <![CDATA[
    .fil0 {fill:#2B2A29}
   ]]>
  </style>
 </defs>
 <g id="Слой_x0020_1">
  <metadata id="CorelCorpID_0Corel-Layer"/>
  <path class="fil0" d="M2017.49 302.46c18.94,-86.86 25.6,-118.3 30.76,-218.34l109.16 0.17 -0.89 218.61 -139.03 -0.44zm-1673.82 -233.57c-32.01,-41.78 -75.84,-68.76 -152.74,-68.88 -245.96,-0.4 -263.04,385.89 0,386.06 68.65,0.05 135.03,-28.42 160.17,-76.37l-46.32 -48.29c-38.83,18.48 -56.74,59.64 -135.74,42.04 -104.21,-23.22 -109.72,-182.7 -13.39,-215.17 72.11,-24.31 94.6,8.25 135.8,32.84l52.21 -52.22zm2138.89 65.18c10.69,20.92 40.26,83.47 44.92,107.49l-94.34 -1.14 49.41 -106.35zm-79.25 178.01l157.57 0.48 29 68.32 86.93 -1.64 -165.71 -373.03 -58.89 -0.56 -163.51 374.89 84.77 -0.51 29.83 -67.95zm-805.31 -84.78c-38.38,-157.53 173.34,-198.29 205.23,-67.49 39.32,161.28 -173.55,197.55 -205.23,67.49zm-88.94 -9.9c24.18,241.48 410.98,218.24 383.25,-48.29 -25.16,-241.89 -409.72,-216.09 -383.25,48.29zm-683.28 9.9c-39.22,-157.07 171.32,-197.73 205.01,-67.75 41.2,158.95 -172.04,199.77 -205.01,67.75zm-88.47 -4.95c30.73,239.55 417.26,208.58 382.25,-57.58 -32.41,-246.36 -415.84,-204.29 -382.25,57.58zm517.68 0.61c45.13,-1.21 138.11,-16.15 137.3,38.92 -0.81,55.07 -91.4,43.07 -137.5,40.17l0.21 -79.09zm-0.03 -138.85l198.24 -1.18 -1.9 -77.01 -280.16 1.22 0.13 372.66c112.69,7.79 275.54,19.16 302.84,-81.9 16.31,-60.37 -6.71,-114.34 -48.66,-137.03 -44.73,-24.19 -113.99,-14.27 -170.69,-17.06l0.21 -59.7zm-717.53 219.09l-62.06 -0.78 0.35 -74.98c33.26,0.41 110.55,-5.17 128.71,12.25 9.46,9.06 38.02,63.59 -67,63.51zm-62.65 -217.77c46.99,-5.3 147.81,-13.21 123.35,48.39 -18.78,28.78 -87.24,22.28 -123.35,17.17l0 -65.57zm181.57 97.33c12.91,-30.89 39.14,-38.33 30.41,-98.8 -5.45,-37.77 -26.13,-55.77 -57.55,-67.36 -36.76,-13.56 -191.87,-15.45 -237.98,-9.01l0.31 370.52c52.22,12.58 215.07,5.22 255.55,-16.27 30.15,-16 50.91,-39.5 53.16,-85.25 2.85,-57.75 -16.02,-67.67 -43.9,-93.83zm1310.6 198.06l238.74 0.69 2.36 61.89 75.95 -0.61 -1.54 -138.83 -41.15 -3.2 -2.28 -294.77 -268.35 1.22c-17.99,101.79 17.51,120.57 -39.01,294.37l-42.58 1.86 1.52 140.14 75.62 -1.16 0.73 -61.61z"/>
 </g>
</svg>
