<?xml version="1.0" encoding="UTF-8"?>
<!DOCTYPE svg PUBLIC "-//W3C//DTD SVG 1.1//EN" "http://www.w3.org/Graphics/SVG/1.1/DTD/svg11.dtd">
<!-- Creator: CorelDRAW 2020 (64-Bit) -->
<svg xmlns="http://www.w3.org/2000/svg" xml:space="preserve" width="84.1677mm" height="10.5231mm" version="1.1" style="shape-rendering:geometricPrecision; text-rendering:geometricPrecision; image-rendering:optimizeQuality; fill-rule:evenodd; clip-rule:evenodd"
viewBox="0 0 6481.39 810.34"
 xmlns:xlink="http://www.w3.org/1999/xlink"
 xmlns:xodm="http://www.corel.com/coreldraw/odm/2003">
 <defs>
  <style type="text/css">
   <![CDATA[
    .fil0 {fill:#2B2A29}
   ]]>
  </style>
 </defs>
 <g id="Слой_x0020_1">
  <metadata id="CorelCorpID_0Corel-Layer"/>
  <path class="fil0" d="M5276.97 552.55c34.6,-158.66 46.76,-216.11 56.19,-398.85l199.4 0.32 -1.62 399.34 -253.97 -0.8zm-5038.52 -33.34c-15.67,-8.05 -34.03,-12.31 -54.63,-12.31l-103.22 0 0 -52.62 184.49 0 0 -64.03 -262.18 0 0 315.02 180.46 0c21.27,0 39.85,-4.47 55.3,-12.76 15.45,-8.29 27.77,-19.71 36.72,-34.71 8.96,-15 13.44,-32.24 13.44,-52.39 0,-19.92 -4.47,-37.61 -13.44,-52.16 -8.96,-14.55 -21.05,-26.2 -36.94,-34.04zm-38.06 114.19c-6.27,6.27 -15.22,9.4 -27.09,9.4l-92.69 0 0 -74.33 92.69 0c7.62,0 14.11,1.56 19.48,4.48 5.6,2.91 9.85,7.16 12.76,12.76 2.91,5.37 4.25,12.31 4.25,20.15 0,12.09 -3.13,21.27 -9.4,27.54zm240.47 -243.15l-136.35 315.02 80.39 0 25.74 -63.36 138.37 0 25.52 63.36 84.19 0 -136.59 -315.02 -81.27 0 0 0zm-4.7 189.87l44.33 -107.69 43.89 107.69 -88.22 0zm499.29 -69.41l-150.24 0 0 -120.46 -79.93 0 0 315.02 79.93 0 0 -129.64 150.24 0 0 129.64 79.49 0 0 -315.02 -79.49 0 0 120.46zm475.11 194.56l-154.71 -167.93 148.9 -147.1 -96.28 0 -130.76 135.01 0 -135.01 -77.91 0 0 315.02 77.91 0 0 -142.18 130.76 142.18 102.09 0zm-1094.41 -700.81l-88.22 0 -65.82 101.21 -69.85 -101.21 -91.8 0 109.71 152.7 -110.16 162.1 88.43 0 67.17 -104.34 70.98 104.34 91.8 0 -111.5 -157.85 109.26 -156.95zm272.04 15.46c-25.53,-13.21 -55.75,-19.93 -90.67,-19.93 -34.93,0 -65.15,6.71 -90.91,19.93 -25.75,13.43 -45.45,32.01 -59.33,56.2 -13.88,24.18 -20.6,52.61 -20.6,85.75 0,32.69 6.94,61.12 20.6,85.53 13.66,24.4 33.58,43.21 59.33,56.42 25.75,13.21 55.98,19.92 90.91,19.92 34.7,0 64.92,-6.71 90.67,-19.92 25.75,-13.44 45.46,-32.24 59.33,-56.42 13.88,-24.19 20.82,-52.84 20.82,-85.53 0,-32.91 -6.94,-61.57 -20.82,-85.75 -13.88,-23.96 -33.58,-42.77 -59.33,-56.2zm-11.42 195.46c-6.71,14.78 -16.56,25.52 -30,33.14 -13.44,7.61 -29.78,11.42 -49.26,11.42 -19.47,0 -35.82,-3.81 -48.81,-11.42 -12.99,-7.62 -22.84,-18.36 -29.78,-33.14 -6.95,-14.78 -10.3,-32.24 -10.3,-53.29 0,-20.82 3.36,-38.73 10.3,-53.29 6.71,-14.55 16.56,-25.53 29.78,-33.14 13.21,-7.62 29.33,-11.42 48.81,-11.42 19.48,0 36.05,3.8 49.26,11.64 13.44,7.61 23.29,18.58 30,33.14 6.71,14.55 10.08,32.02 10.08,53.06 -0.45,20.82 -3.37,38.5 -10.08,53.29zm261.51 -60.9l-76.57 -150.01 -90.01 0 123.59 229.95 -43.22 84.86 85.98 0 159.42 -314.81 -85.08 0 -74.11 150.01zm486.53 -150.01l-100.52 186.51 -102.33 -186.51 -87.32 0 0 314.81 72.32 0 0 -203.97 81.73 148.22 69.41 0 79.93 -149.34 0 205.1 72.54 0 0 -314.81 -85.75 0zm894.53 121.4c-58.48,-76.33 -138.54,-125.6 -279.01,-125.84 -449.31,-0.72 -480.51,704.93 0,705.24 125.4,0.09 246.67,-51.92 292.58,-139.51l-84.61 -88.22c-70.93,33.75 -103.65,108.95 -247.96,76.8 -190.37,-42.41 -200.43,-333.74 -24.46,-393.07 131.73,-44.4 172.82,15.07 248.07,59.99l95.38 -95.39zm3907.22 119.06c19.52,38.22 73.55,152.47 82.06,196.35l-172.33 -2.08 90.27 -194.27zm-144.77 325.17l287.84 0.89 52.98 124.8 158.8 -3 -302.72 -681.42 -107.57 -1.03 -298.68 684.83 154.86 -0.92 54.49 -124.13zm-1471.1 -154.87c-70.11,-287.77 316.65,-362.22 374.9,-123.29 71.83,294.61 -317.02,360.88 -374.9,123.29zm-162.47 -18.09c44.16,441.13 750.75,398.67 700.1,-88.21 -45.96,-441.87 -748.45,-394.75 -700.1,88.21zm-1248.17 18.09c-71.65,-286.92 312.96,-361.21 374.5,-123.76 75.26,290.36 -314.28,364.92 -374.5,123.76zm-161.6 -9.04c56.14,437.6 762.23,381.02 698.26,-105.18 -59.21,-450.03 -759.64,-373.19 -698.26,105.18zm945.68 1.12c82.43,-2.2 252.29,-29.5 250.81,71.09 -1.49,100.61 -166.97,78.68 -251.18,73.38l0.38 -144.47zm-0.06 -253.65l362.13 -2.16 -3.47 -140.67 -511.79 2.23 0.23 680.75c205.86,14.22 503.33,35.01 553.21,-149.61 29.79,-110.27 -12.25,-208.88 -88.9,-250.31 -81.7,-44.19 -208.24,-26.07 -311.8,-31.17l0.38 -109.06zm-1310.75 400.21l-113.37 -1.43 0.63 -136.96c60.76,0.75 201.96,-9.44 235.13,22.37 17.27,16.56 69.46,116.16 -122.39,116.02zm-114.45 -397.81c85.83,-9.68 270.01,-24.13 225.33,88.4 -34.3,52.58 -159.36,40.7 -225.33,31.37l0.01 -119.77zm331.69 177.79c23.59,-56.42 71.49,-70.02 55.55,-180.49 -9.96,-68.99 -47.73,-101.89 -105.13,-123.06 -67.15,-24.77 -350.5,-28.23 -434.73,-16.46l0.56 676.84c95.39,22.99 392.88,9.53 466.83,-29.72 55.07,-29.23 93,-72.16 97.11,-155.72 5.2,-105.49 -29.26,-123.62 -80.2,-171.4zm2394.13 361.81l436.11 1.26 4.31 113.06 138.74 -1.11 -2.81 -253.61 -75.17 -5.84 -4.17 -538.46 -490.21 2.23c-32.86,185.95 31.98,220.24 -71.27,537.74l-77.78 3.4 2.77 256.01 138.14 -2.13 1.34 -112.55z"/>
 </g>
</svg>
