<?xml version="1.0" encoding="UTF-8"?>
<!DOCTYPE svg PUBLIC "-//W3C//DTD SVG 1.1//EN" "http://www.w3.org/Graphics/SVG/1.1/DTD/svg11.dtd">
<!-- Creator: CorelDRAW 2020 (64-Bit) -->
<svg xmlns="http://www.w3.org/2000/svg" xml:space="preserve" width="63.5002mm" height="11.7326mm" version="1.1" style="shape-rendering:geometricPrecision; text-rendering:geometricPrecision; image-rendering:optimizeQuality; fill-rule:evenodd; clip-rule:evenodd"
viewBox="0 0 2676.84 494.59"
 xmlns:xlink="http://www.w3.org/1999/xlink"
 xmlns:xodm="http://www.corel.com/coreldraw/odm/2003">
 <defs>
  <style type="text/css">
   <![CDATA[
    .fil0 {fill:#2B2A29}
   ]]>
  </style>
 </defs>
 <g id="Слой_x0020_1">
  <metadata id="CorelCorpID_0Corel-Layer"/>
  <path class="fil0" d="M1976.49 367.53l-167.72 0 0 -77.06 158.65 0c24.14,0 43.06,23.51 43.06,36.26 0,18.43 -16.22,40.8 -33.99,40.8zm-865.79 117.86l0 6.8 129.19 0c0,-94.56 3.93,-189.68 36.55,-269.42 5.42,-13.26 11.58,-25.08 18.61,-38.05 62.94,-116 130.23,-19.19 156.95,74.96 21.44,75.55 23.59,146.41 23.59,232.52l129.19 0c0,-141.48 -15.12,-274.87 -77.76,-380.06 -9.2,-15.45 -35.75,-51.73 -47.83,-60.96 -15.37,-11.75 -14.99,-15.27 -38.51,-29.48 -47.69,-28.82 -113.83,-28.7 -162.17,-0.83 -143.86,82.95 -167.81,310.44 -167.81,464.53zm-1110.57 -417.03c0,37.96 15.61,82.23 29.56,106.43 7.29,12.65 17.7,29.67 27.64,40.35 10.31,11.08 25.64,22.85 33.46,34.53 -16.36,4.37 -52.2,54.95 -61.1,70.36 -33.32,57.64 -29.56,107.54 -29.56,172.16l129.19 0 0 -72.53c0,-92.98 124.79,-153.25 202.33,-75.4 40.4,40.56 33.39,90.22 33.39,147.93l122.39 0c10.07,0 6.8,-10.58 6.8,-34 0,-74.2 -15.82,-119.53 -53.74,-170.64 -11.37,-15.33 -28.04,-26.88 -36.92,-40.14 3.25,-4.86 44.83,-36.93 65.72,-83.87 24.88,-55.91 24.94,-93.76 24.94,-158.65l-129.19 0c0,25.55 -2.42,44.68 -2.22,68.04 0.35,41.49 -20.79,72.34 -50.84,94.21 -27.66,20.13 -47.82,19.07 -78.39,19.07 -55.23,0 -106.53,-54.77 -106.53,-126.92l0 -54.4 -126.92 0 0 63.46zm2608.71 351.3l-2.27 2.27 2.27 -2.27zm0 0l0 0zm-172.25 -54.4c-40.74,0 -65.86,-10.16 -91.27,-35.65 -52.8,-52.98 -43.15,-146.73 31.01,-187.8 74.93,-41.49 175.92,20.57 173.48,105.46 -0.11,3.85 -2.08,18.46 -3.07,24.16 -8.47,48.69 -57.39,93.82 -110.15,93.82zm169.98 56.66c-3.56,13.33 -32.24,39.87 -44.91,48.01 -9.41,6.05 -11.75,5.5 -11.75,19.98l126.92 0c0,-81.59 -0.1,-163.19 0,-244.78 0.25,-207.14 -238.21,-310.33 -387.92,-199.81 -54.94,40.56 -98.66,104.24 -103.75,175.03 -3.75,52.17 -0.43,77 20.53,128.74 47.54,117.33 205.86,182.21 326.88,123.48 49.27,-23.91 49.73,-34.41 74,-50.66zm-1643.19 0l-2.26 2.26 2.26 -2.26zm0 0l0 0zm-294.64 -174.52c0,-63.94 54.62,-117.86 108.79,-117.86l15.86 0c56.63,0 111.06,52.71 111.06,108.79 0,27.27 0.81,37.12 -12.03,62.76 -29.9,59.7 -102.47,79.71 -156.33,53.47 -37.98,-18.51 -67.35,-57.94 -67.35,-107.17zm292.38 176.78c-2.6,9.72 -16.15,21.8 -23.23,28.9 -7.85,7.86 -19.84,20.2 -31.17,23.23l0 15.87 126.92 0c0,-81.57 -0.43,-163.26 0.03,-244.81 0.21,-37.88 -9.93,-73.59 -21.37,-101.02 -9.54,-22.87 -32.88,-56.43 -50.56,-74.1l-33.66 -27.54c-96.45,-69.81 -233.66,-55.44 -316.65,27.54 -6.18,6.18 -7.93,9.62 -13.55,15.91 -62.94,70.47 -73.48,170.81 -37.66,258.67 16.51,40.48 48.16,77.33 83.55,102.31 6.35,4.48 10.29,7.33 17.7,11.77 87.29,52.33 209.27,42.61 282.09,-22.54 4.74,-4.24 12.89,-11.07 17.55,-14.19zm985.91 -219.85l-138.26 0 0 -77.06 133.72 0c53.65,0 47.45,77.06 4.53,77.06zm-265.18 287.84l301.44 0c36.59,0 69.72,-11.06 91.02,-26.83 49.6,-36.72 77.67,-99.51 58.08,-163.07 -13.48,-43.72 -37.91,-53.62 -49.38,-70.74 3.06,-5.78 6.29,-10.21 8.81,-16.12 2.68,-6.29 4.87,-12.08 6.82,-18.11 31.99,-98.78 -45.51,-192.42 -138.02,-192.42l-278.78 0 0 487.29z"/>
 </g>
</svg>
