<?xml version="1.0" encoding="UTF-8"?>
<!DOCTYPE svg PUBLIC "-//W3C//DTD SVG 1.1//EN" "http://www.w3.org/Graphics/SVG/1.1/DTD/svg11.dtd">
<!-- Creator: CorelDRAW 2020 (64-Bit) -->
<svg xmlns="http://www.w3.org/2000/svg" xml:space="preserve" width="63.5mm" height="17.252mm" version="1.1" style="shape-rendering:geometricPrecision; text-rendering:geometricPrecision; image-rendering:optimizeQuality; fill-rule:evenodd; clip-rule:evenodd"
viewBox="0 0 2670.56 725.55"
 xmlns:xlink="http://www.w3.org/1999/xlink"
 xmlns:xodm="http://www.corel.com/coreldraw/odm/2003">
 <defs>
  <style type="text/css">
   <![CDATA[
    .fil0 {fill:#2B2A29;fill-rule:nonzero}
   ]]>
  </style>
 </defs>
 <g id="Слой_x0020_1">
  <metadata id="CorelCorpID_0Corel-Layer"/>
  <path id="Path" class="fil0" d="M2117.12 217.31l98.81 -72.91 -330.78 0 0 436.76 330.78 0 0 -72.91 -236.28 0 0 -111.52 201.91 0 0 -72.91 -201.91 0 0 -106.51 137.47 0zm-1466.31 -75.78c17.19,22.16 31.5,46.47 43.68,72.2l-330.78 243.75 -138.9 -87.21 0 -104.37 138.18 86.49 287.82 -210.87zm-566.93 213.96c0.1,-2.16 0.28,-4.34 0.61,-6.66l-0.34 -0.02c3.66,-70.84 34.29,-135.4 81.69,-182.54l0.28 0.28c50.12,-50.75 120.28,-82.2 196.89,-82.2 5.01,0 9.31,0 14.32,0.71l0.05 -0.91c53.21,3.22 102.4,20.59 143.15,48.8l70.88 -52.18c-62.29,-50.03 -141.76,-80.77 -228.4,-80.77l0 0 0 0.72c-93.42,0.18 -178.72,35.76 -243.12,93.97l-0.31 -0.34c-73.2,65.99 -118.88,160.86 -119.55,266.43l-0 0.27 -0 0.27 -0.01 1.08 0 0.37 -0 0.34 0 0c0.18,93.27 35.81,178.44 94.13,242.74l-0.34 0.31c66.1,73.09 161.13,118.69 266.86,119.36l0.27 0 0.27 0 1.08 0.01 0.37 -0 0.34 0 0 -0c93.62,-0.18 179.07,-35.9 243.52,-94.33l0.63 0.69c73.03,-65.76 119.57,-162.27 119.57,-268.78 0,-22.16 -2.15,-43.6 -5.73,-65.05l-78.04 57.9c0,2.14 0,5 0,7.15 0,77.28 -31.63,146.98 -82.42,197.21l-0.64 -0.64c-50.11,51.47 -119.57,82.2 -196.89,82.2l-0.24 0 -0.23 0c-2.31,-0 -4.61,-0.03 -6.91,-0.1l-0.21 -0.01c-2.18,-0.1 -4.38,-0.28 -6.73,-0.61l-0.02 0.34c-71.48,-3.63 -135.67,-34.21 -182.83,-81.55l0.28 -0.28c-50.83,-50.04 -82.33,-119.38 -82.33,-196.58l0 -0.24 0 -0.23 0 -0.23c0,-2.15 0.03,-4.3 0.09,-6.45l0 0 0 -0.22 0.01 -0.22 0 -0.05zm279.11 286.41l0 0zm901.41 -155.12c-25.06,13.58 -52.98,20.73 -81.63,20.73 -85.19,0 -146.77,-60.76 -146.77,-144.4 0,-83.63 61.58,-144.39 146.77,-144.39 30.79,-0.72 60.86,9.29 85.92,27.16l68.02 -50.04 0 0 -4.3 -4.29c-39.38,-35.02 -92.36,-52.89 -152.5,-52.89 -65.15,0 -124.58,22.16 -167.53,62.19 -42.96,41.46 -67.3,99.36 -65.87,159.41 -0.71,60.76 22.91,119.38 65.87,162.27 45.11,42.17 105.25,65.76 166.82,64.33 68.01,0 127.44,-23.59 167.53,-66.48l-60.86 -45.03 -21.47 11.44zm1219.29 -342.4l-179.71 0 0 436.76 94.5 0 0 -123.66 85.92 0c114.56,0 186.15,-60.04 186.15,-156.55 0,-96.5 -71.6,-156.55 -186.87,-156.55zm-2.15 240.18l-83.77 0 0 -167.27 83.77 0c60.86,0 93.79,30.02 93.79,83.63 0,53.61 -32.93,83.64 -93.79,83.64zm-846.27 -70.05l-114.56 0 0 -97.22 183.29 0 98.8 -72.91 -376.6 0 0 436.76 196.89 0c110.26,0 173.98,-50.04 173.98,-137.25 0,-83.63 -57.28,-129.38 -161.81,-129.38zm-15.75 193.72l-98.8 0 0 -120.81 98.8 0c60.14,0 88.07,20.02 88.07,60.76 0,40.74 -30.07,60.05 -88.07,60.05z"/>
 </g>
</svg>
