<?xml version="1.0" encoding="UTF-8"?>
<!DOCTYPE svg PUBLIC "-//W3C//DTD SVG 1.1//EN" "http://www.w3.org/Graphics/SVG/1.1/DTD/svg11.dtd">
<!-- Creator: CorelDRAW 2020 (64-Bit) -->
<svg xmlns="http://www.w3.org/2000/svg" xml:space="preserve" width="40.9956mm" height="10.6586mm" version="1.1" style="shape-rendering:geometricPrecision; text-rendering:geometricPrecision; image-rendering:optimizeQuality; fill-rule:evenodd; clip-rule:evenodd"
viewBox="0 0 9088.86 2363.05"
 xmlns:xlink="http://www.w3.org/1999/xlink"
 xmlns:xodm="http://www.corel.com/coreldraw/odm/2003">
 <defs>
  <style type="text/css">
   <![CDATA[
    .fil0 {fill:#21A038;fill-rule:nonzero}
   ]]>
  </style>
 </defs>
 <g id="Слой_x0020_1">
  <metadata id="CorelCorpID_0Corel-Layer"/>
  <g id="_2013359211776">
   <path id="Path" class="fil0" d="M6171.33 414.52l520.87 -384.37 -1743.74 0 0 2302.41 1743.74 0 0 -384.34 -1245.55 0 0 -587.87 1064.38 0 0 -384.34 -1064.38 0 0 -561.49 724.68 0zm-4495.19 1420.63c-132.09,71.59 -279.3,109.28 -430.3,109.28 -449.1,0 -773.72,-320.29 -773.72,-761.2 0,-440.88 324.62,-761.17 773.72,-761.17 162.33,-3.79 320.85,49 452.94,143.18l358.58 -263.78 0 0 -22.68 -22.61c-207.58,-184.61 -486.86,-278.84 -803.92,-278.84 -343.46,0 -656.73,116.84 -883.18,327.83 -226.47,218.58 -354.77,523.8 -347.25,840.34 -3.77,320.29 120.78,629.3 347.25,855.4 237.78,222.32 554.83,346.68 879.41,339.14 358.54,0 671.83,-124.35 883.18,-350.45l-320.83 -237.4 -113.2 60.28zm6427.62 -1805l-947.34 0 0 2302.41 498.19 0 0 -651.9 452.92 0c603.9,0 981.33,-316.53 981.33,-825.27 0,-508.7 -377.43,-825.25 -985.09,-825.25zm-11.33 1266.15l-441.61 0 0 -881.78 441.61 0c320.83,0 494.44,158.27 494.44,440.88 0,282.61 -173.62,440.9 -494.44,440.9zm-4461.2 -369.29l-603.9 0 0 -512.49 966.23 0 520.85 -384.37 -1985.26 0 0 2302.41 1037.93 0c581.24,0 917.16,-263.78 917.16,-723.51 0,-440.88 -301.96,-682.05 -853,-682.05zm-83.05 1021.21l-520.85 0 0 -636.86 520.85 0c317.06,0 464.25,105.53 464.25,320.32 0,214.79 -158.54,316.55 -464.25,316.55z"/>
  </g>
 </g>
</svg>
