<?xml version="1.0" encoding="UTF-8"?>
<!DOCTYPE svg PUBLIC "-//W3C//DTD SVG 1.1//EN" "http://www.w3.org/Graphics/SVG/1.1/DTD/svg11.dtd">
<!-- Creator: CorelDRAW 2020 (64-Bit) -->
<svg xmlns="http://www.w3.org/2000/svg" xml:space="preserve" width="63.5mm" height="17.252mm" version="1.1" style="shape-rendering:geometricPrecision; text-rendering:geometricPrecision; image-rendering:optimizeQuality; fill-rule:evenodd; clip-rule:evenodd"
viewBox="0 0 6350 1725.2"
 xmlns:xlink="http://www.w3.org/1999/xlink"
 xmlns:xodm="http://www.corel.com/coreldraw/odm/2003">
 <defs>
  <style type="text/css">
   <![CDATA[
    .fil0 {fill:#21A038;fill-rule:nonzero}
    .fil1 {fill:url(#id0);fill-rule:nonzero}
    .fil2 {fill:url(#id1);fill-rule:nonzero}
    .fil3 {fill:url(#id2);fill-rule:nonzero}
    .fil5 {fill:url(#id3);fill-rule:nonzero}
    .fil4 {fill:url(#id4);fill-rule:nonzero}
    .fil6 {fill:url(#id5);fill-rule:nonzero}
   ]]>
  </style>
  <linearGradient id="id0" gradientUnits="userSpaceOnUse" x1="294.75" y1="1451.46" x2="91.47" y2="864.85">
   <stop offset="0" style="stop-opacity:1; stop-color:#F2E913"/>
   <stop offset="0.14902" style="stop-opacity:1; stop-color:#F2E913"/>
   <stop offset="0.301961" style="stop-opacity:1; stop-color:#E7E518"/>
   <stop offset="0.580392" style="stop-opacity:1; stop-color:#CADB26"/>
   <stop offset="0.890196" style="stop-opacity:1; stop-color:#A3CD39"/>
   <stop offset="1" style="stop-opacity:1; stop-color:#A3CD39"/>
  </linearGradient>
  <linearGradient id="id1" gradientUnits="userSpaceOnUse" x1="333" y1="303.01" x2="849.57" y2="106.48">
   <stop offset="0" style="stop-opacity:1; stop-color:#0FA8E0"/>
   <stop offset="0.0588235" style="stop-opacity:1; stop-color:#0FA8E0"/>
   <stop offset="0.541176" style="stop-opacity:1; stop-color:#0099F9"/>
   <stop offset="0.921569" style="stop-opacity:1; stop-color:#0291EB"/>
   <stop offset="1" style="stop-opacity:1; stop-color:#0291EB"/>
  </linearGradient>
  <linearGradient id="id2" gradientUnits="userSpaceOnUse" x1="817.03" y1="1596.07" x2="1432.58" y2="1457.09">
   <stop offset="0" style="stop-opacity:1; stop-color:#A3CD39"/>
   <stop offset="0.121569" style="stop-opacity:1; stop-color:#A3CD39"/>
   <stop offset="0.290196" style="stop-opacity:1; stop-color:#86C339"/>
   <stop offset="0.870588" style="stop-opacity:1; stop-color:#21A038"/>
   <stop offset="1" style="stop-opacity:1; stop-color:#21A038"/>
  </linearGradient>
  <linearGradient id="id3" gradientUnits="userSpaceOnUse" x1="294.36" y1="1409.04" x2="844.08" y2="1614.15">
   <stop offset="0" style="stop-opacity:1; stop-color:#F2E913"/>
   <stop offset="0.129412" style="stop-opacity:1; stop-color:#F2E913"/>
   <stop offset="0.301961" style="stop-opacity:1; stop-color:#EBE716"/>
   <stop offset="0.529412" style="stop-opacity:1; stop-color:#D9E01F"/>
   <stop offset="0.8" style="stop-opacity:1; stop-color:#BBD62D"/>
   <stop offset="0.980392" style="stop-opacity:1; stop-color:#A3CD39"/>
   <stop offset="1" style="stop-opacity:1; stop-color:#A3CD39"/>
  </linearGradient>
  <linearGradient id="id4" gradientUnits="userSpaceOnUse" x1="837.8" y1="81.69" x2="1349.74" y2="239.45">
   <stop offset="0" style="stop-opacity:1; stop-color:#0291EB"/>
   <stop offset="0.0509804" style="stop-opacity:1; stop-color:#0291EB"/>
   <stop offset="0.788235" style="stop-opacity:1; stop-color:#0C8ACB"/>
   <stop offset="1" style="stop-opacity:1; stop-color:#0C8ACB"/>
  </linearGradient>
  <linearGradient id="id5" gradientUnits="userSpaceOnUse" x1="92.56" y1="794.02" x2="312.44" y2="223.12">
   <stop offset="0" style="stop-opacity:1; stop-color:#A3CD39"/>
   <stop offset="0.0705882" style="stop-opacity:1; stop-color:#A3CD39"/>
   <stop offset="0.258824" style="stop-opacity:1; stop-color:#81C55F"/>
   <stop offset="0.921569" style="stop-opacity:1; stop-color:#0FA8E0"/>
   <stop offset="1" style="stop-opacity:1; stop-color:#0FA8E0"/>
  </linearGradient>
 </defs>
 <g id="Слой_x0020_1">
  <metadata id="CorelCorpID_0Corel-Layer"/>
  <g id="_2013804650224">
   <path id="Path" class="fil0" d="M5034.04 516.71l234.94 -173.37 -786.52 0 0 1038.51 786.52 0 0 -173.36 -561.81 0 0 -265.16 480.09 0 0 -173.36 -480.09 0 0 -253.26 326.87 0zm-2027.57 640.78c-59.58,32.29 -125.98,49.29 -194.09,49.29 -202.57,0 -348.99,-144.47 -348.99,-343.34 0,-198.86 146.42,-343.33 348.99,-343.33 73.22,-1.71 144.72,22.1 204.3,64.58l161.74 -118.98 0 0 -10.23 -10.2c-93.63,-83.27 -219.6,-125.77 -362.61,-125.77 -154.92,0 -296.22,52.7 -398.36,147.87 -102.15,98.59 -160.02,236.26 -156.63,379.04 -1.7,144.47 54.48,283.85 156.63,385.83 107.25,100.28 250.26,156.37 396.66,152.97 161.72,0 303.03,-56.09 398.36,-158.07l-144.71 -107.08 -51.06 27.19zm2899.2 -814.15l-427.3 0 0 1038.51 224.71 0 0 -294.04 204.29 0c272.39,0 442.63,-142.77 442.63,-372.24 0,-229.45 -170.24,-372.23 -444.33,-372.23zm-5.11 571.1l-199.19 0 0 -397.73 199.19 0c144.71,0 223.02,71.39 223.02,198.86 0,127.47 -78.31,198.87 -223.02,198.87zm-2012.24 -166.57l-272.39 0 0 -231.16 435.82 0 234.93 -173.37 -895.46 0 0 1038.51 468.16 0c262.17,0 413.69,-118.98 413.69,-326.34 0,-198.86 -136.2,-307.64 -384.75,-307.64zm-37.46 460.62l-234.93 0 0 -287.26 234.93 0c143.01,0 209.4,47.6 209.4,144.48 0,96.88 -71.51,142.78 -209.4,142.78z"/>
   <g id="Group">
    <path id="Path_0" class="fil0" d="M1547.49 336.53c40.87,52.7 74.91,110.49 103.86,171.68l-786.52 579.59 -330.27 -207.36 0 -248.16 328.56 205.66 684.37 -501.41z"/>
    <g id="Path_1">
     <path class="fil1" d="M199.19 863.44c0,-11.89 0,-22.09 1.7,-33.99l-199.18 -10.2c0,13.6 -1.71,28.89 -1.71,42.5 0,237.96 97.03,453.81 253.66,610.19l141.3 -141.08c-120.87,-118.98 -195.77,-283.85 -195.77,-467.42z"/>
     <path class="fil2" d="M863.12 200.57c11.92,0 22.14,0 34.05,1.7l10.21 -198.87c-13.61,0 -28.94,-1.7 -42.55,-1.7 -238.34,0 -454.55,96.89 -611.17,253.25l141.3 141.08c119.17,-120.68 286.01,-195.46 468.16,-195.46z"/>
     <path class="fil3" d="M863.12 1526.32c-11.91,0 -22.12,0 -34.05,-1.7l-10.21 198.87c13.62,0 28.94,1.71 42.56,1.71 238.34,0 454.54,-96.9 611.17,-253.26l-141.31 -141.08c-119.16,122.38 -284.3,195.46 -468.16,195.46z"/>
    </g>
    <g id="Path_2">
     <path class="fil4" d="M1237.66 316.14l168.54 -124.08c-148.12,-118.97 -337.08,-192.06 -543.08,-192.06l0 0 0 198.86c139.6,1.71 268.99,44.2 374.54,117.28z"/>
     <path class="fil0" d="M1727.96 863.44c0,-52.68 -5.11,-103.67 -13.63,-154.67l-185.56 137.68c0,5.1 0,11.89 0,16.99 0,195.47 -85.12,370.54 -219.61,491.21l134.49 147.88c173.65,-156.37 284.31,-385.84 284.31,-639.09z"/>
     <path class="fil5" d="M863.12 1526.32c-195.77,0 -371.13,-84.97 -492,-219.25l-148.1 134.28c158.32,175.06 386.45,283.85 640.1,283.85l0 -198.88 0 0z"/>
     <path class="fil6" d="M418.79 372.24l-134.49 -147.88c-175.34,158.08 -284.3,385.82 -284.3,639.08l199.19 0c0,-193.76 85.11,-370.53 219.6,-491.2z"/>
    </g>
   </g>
  </g>
 </g>
</svg>
