<?xml version="1.0" encoding="UTF-8"?>
<!DOCTYPE svg PUBLIC "-//W3C//DTD SVG 1.1//EN" "http://www.w3.org/Graphics/SVG/1.1/DTD/svg11.dtd">
<!-- Creator: CorelDRAW 2020 (64-Bit) -->
<svg xmlns="http://www.w3.org/2000/svg" xml:space="preserve" width="63.5mm" height="10.5227mm" version="1.1" style="shape-rendering:geometricPrecision; text-rendering:geometricPrecision; image-rendering:optimizeQuality; fill-rule:evenodd; clip-rule:evenodd"
viewBox="0 0 6314.91 1046.46"
 xmlns:xlink="http://www.w3.org/1999/xlink"
 xmlns:xodm="http://www.corel.com/coreldraw/odm/2003">
 <defs>
  <style type="text/css">
   <![CDATA[
    .fil0 {fill:#0498A6}
   ]]>
  </style>
 </defs>
 <g id="Слой_x0020_1">
  <metadata id="CorelCorpID_0Corel-Layer"/>
  <path class="fil0" d="M4759.49 713.55c44.68,-204.9 60.38,-279.09 72.57,-515.09l257.51 0.41 -2.09 515.71 -327.99 -1.03zm-3948.73 -551.03c-75.52,-98.57 -178.92,-162.21 -360.33,-162.51 -580.26,-0.93 -620.54,910.36 0,910.77 161.95,0.12 318.56,-67.06 377.85,-180.17l-109.26 -113.93c-91.6,43.59 -133.86,140.7 -320.22,99.18 -245.85,-54.78 -258.84,-431.01 -31.58,-507.62 170.11,-57.34 223.18,19.46 320.37,77.47l123.18 -123.2zm5045.9 153.76c25.21,49.36 94.98,196.91 105.98,253.57l-222.55 -2.69 116.57 -250.89zm-186.96 419.94l371.72 1.14 68.42 161.16 205.08 -3.88 -390.94 -880.01 -138.92 -1.33 -385.73 884.41 199.99 -1.19 70.37 -160.3zm-1899.82 -200.01c-90.54,-371.64 408.93,-467.78 484.16,-159.23 92.76,380.47 -409.42,466.05 -484.16,159.23zm-209.82 -23.36c57.03,569.68 969.54,514.86 904.13,-113.92 -59.36,-570.65 -966.57,-509.79 -904.13,113.92zm-1611.92 23.36c-92.54,-370.54 404.16,-466.48 483.64,-159.83 97.19,374.98 -405.87,471.27 -483.64,159.83zm-208.7 -11.68c72.51,565.13 984.36,492.06 901.76,-135.84 -76.47,-581.18 -981.02,-481.94 -901.76,135.84zm1221.27 1.44c106.46,-2.84 325.82,-38.1 323.9,91.81 -1.92,129.93 -215.63,101.61 -324.39,94.76l0.49 -186.57zm-0.08 -327.57l467.67 -2.78 -4.48 -181.67 -660.94 2.88 0.3 879.15c265.85,18.37 650.02,45.21 714.43,-193.21 38.47,-142.41 -15.82,-269.75 -114.8,-323.26 -105.51,-57.06 -268.93,-33.66 -402.67,-40.26l0.49 -140.85zm-1692.75 516.85l-146.41 -1.85 0.82 -176.88c78.46,0.97 260.81,-12.19 303.65,28.89 22.31,21.38 89.7,150.02 -158.06,149.84zm-147.81 -513.75c110.84,-12.5 348.69,-31.17 290.99,114.17 -44.29,67.9 -205.81,52.56 -291,40.51l0.01 -154.68zm428.35 229.6c30.46,-72.87 92.33,-90.43 71.74,-233.09 -12.86,-89.09 -61.64,-131.58 -135.77,-158.92 -86.72,-31.99 -452.65,-36.46 -561.42,-21.26l0.73 874.09c123.2,29.69 507.37,12.31 602.88,-38.38 71.12,-37.75 120.1,-93.19 125.41,-201.1 6.71,-136.23 -37.79,-159.65 -103.57,-221.35zm3091.85 467.25l563.21 1.63 5.57 146.01 179.17 -1.43 -3.63 -327.52 -97.08 -7.54 -5.39 -695.39 -633.07 2.87c-42.43,240.15 41.3,284.43 -92.04,694.45l-100.45 4.4 3.58 330.61 178.4 -2.74 1.73 -145.35z"/>
 </g>
</svg>
