<?xml version="1.0" encoding="UTF-8"?>
<!DOCTYPE svg PUBLIC "-//W3C//DTD SVG 1.1//EN" "http://www.w3.org/Graphics/SVG/1.1/DTD/svg11.dtd">
<!-- Creator: CorelDRAW 2020 (64-Bit) -->
<svg xmlns="http://www.w3.org/2000/svg" xml:space="preserve" width="84.1677mm" height="10.5231mm" version="1.1" style="shape-rendering:geometricPrecision; text-rendering:geometricPrecision; image-rendering:optimizeQuality; fill-rule:evenodd; clip-rule:evenodd"
viewBox="0 0 6734.79 842.02"
 xmlns:xlink="http://www.w3.org/1999/xlink"
 xmlns:xodm="http://www.corel.com/coreldraw/odm/2003">
 <defs>
  <style type="text/css">
   <![CDATA[
    .fil0 {fill:#0498A6}
    .fil1 {fill:#0498A6;fill-rule:nonzero}
   ]]>
  </style>
 </defs>
 <g id="Слой_x0020_1">
  <metadata id="CorelCorpID_0Corel-Layer"/>
  <g id="_2013761327424">
   <path class="fil0" d="M5483.28 574.16c35.95,-164.87 48.59,-224.56 58.39,-414.44l207.19 0.33 -1.68 414.95 -263.9 -0.83zm-3177.18 -443.36c-60.76,-79.31 -143.96,-130.51 -289.92,-130.75 -466.88,-0.75 -499.29,732.49 0,732.81 130.31,0.1 256.32,-53.95 304.02,-144.97l-87.91 -91.67c-73.7,35.07 -107.7,113.21 -257.65,79.8 -197.82,-44.07 -208.27,-346.79 -25.41,-408.44 136.88,-46.14 179.57,15.66 257.77,62.33l99.11 -99.12zm4059.97 123.71c20.28,39.71 76.42,158.43 85.27,204.03l-179.07 -2.16 93.8 -201.87zm-150.43 337.88l299.09 0.92 55.05 129.67 165.01 -3.12 -314.55 -708.06 -111.77 -1.07 -310.36 711.6 160.91 -0.96 56.62 -128.98zm-1528.62 -160.93c-72.85,-299.02 329.03,-376.38 389.56,-128.11 74.64,306.13 -329.42,374.99 -389.56,128.11zm-168.83 -18.8c45.89,458.37 780.1,414.26 727.47,-91.66 -47.76,-459.15 -777.71,-410.18 -727.47,91.66zm-1296.97 18.8c-74.46,-298.14 325.19,-375.33 389.14,-128.6 78.2,301.71 -326.56,379.19 -389.14,128.6zm-167.92 -9.39c58.34,454.71 792.03,395.91 725.56,-109.29 -61.52,-467.62 -789.34,-387.77 -725.56,109.29zm982.65 1.16c85.66,-2.29 262.16,-30.65 260.61,73.87 -1.54,104.54 -173.5,81.75 -261.01,76.25l0.39 -150.12zm-0.06 -263.57l376.29 -2.24 -3.6 -146.17 -531.8 2.32 0.24 707.37c213.91,14.78 523.01,36.38 574.84,-155.46 30.95,-114.58 -12.73,-217.04 -92.37,-260.1 -84.9,-45.91 -216.38,-27.09 -323.99,-32.39l0.39 -113.33zm-1362 415.86l-117.8 -1.49 0.66 -142.32c63.13,0.78 209.85,-9.81 244.32,23.24 17.95,17.2 72.17,120.7 -127.18,120.56zm-118.93 -413.36c89.19,-10.06 280.56,-25.08 234.14,91.86 -35.64,54.64 -165.59,42.29 -234.14,32.6l0.01 -124.46zm344.65 184.74c24.51,-58.63 74.29,-72.76 57.72,-187.54 -10.35,-71.69 -49.59,-105.87 -109.24,-127.87 -69.77,-25.74 -364.2,-29.33 -451.72,-17.11l0.58 703.3c99.12,23.88 408.24,9.91 485.08,-30.88 57.23,-30.37 96.64,-74.98 100.91,-161.81 5.4,-109.61 -30.41,-128.46 -83.34,-178.1zm2487.73 375.96l453.16 1.31 4.48 117.48 144.17 -1.15 -2.92 -263.53 -78.11 -6.07 -4.34 -559.51 -509.38 2.31c-34.14,193.22 33.23,228.85 -74.06,558.76l-80.82 3.54 2.88 266.01 143.54 -2.21 1.39 -116.95z"/>
   <g>
    <g>
     <g>
      <path class="fil1" d="M247.77 539.52c-16.28,-8.37 -35.36,-12.79 -56.76,-12.79l-107.25 0 0 -54.68 191.7 0 0 -66.53 -272.43 0 0 327.34 187.52 0c22.1,0 41.41,-4.65 57.46,-13.26 16.05,-8.61 28.85,-20.48 38.15,-36.06 9.31,-15.59 13.96,-33.5 13.96,-54.44 0,-20.7 -4.65,-39.08 -13.96,-54.2 -9.31,-15.12 -21.87,-27.22 -38.38,-35.37zm-39.55 118.66c-6.51,6.51 -15.82,9.77 -28.15,9.77l-96.32 0 0 -77.24 96.32 0c7.91,0 14.66,1.62 20.24,4.66 5.82,3.02 10.23,7.44 13.26,13.26 3.02,5.59 4.42,12.79 4.42,20.94 0,12.56 -3.26,22.1 -9.77,28.61z"/>
      <path class="fil1" d="M458.09 405.51l-141.68 327.34 83.53 0 26.75 -65.84 143.78 0 26.52 65.84 87.48 0 -141.92 -327.34 -84.45 0 0 0zm-4.88 197.29l46.07 -111.9 45.6 111.9 -91.67 0z"/>
      <polygon class="fil1" points="972.01,530.68 815.9,530.68 815.9,405.51 732.85,405.51 732.85,732.85 815.9,732.85 815.9,598.15 972.01,598.15 972.01,732.85 1054.61,732.85 1054.61,405.51 972.01,405.51 "/>
      <polygon class="fil1" points="1465.7,732.85 1304.94,558.36 1459.66,405.51 1359.61,405.51 1223.75,545.8 1223.75,405.51 1142.78,405.51 1142.78,732.85 1223.75,732.85 1223.75,585.12 1359.61,732.85 "/>
      <polygon class="fil1" points="328.5,4.65 236.83,4.65 168.43,109.81 95.85,4.65 0.46,4.65 114.46,163.32 -0,331.76 91.89,331.76 161.69,223.35 235.44,331.76 330.83,331.76 214.96,167.74 "/>
      <path class="fil1" d="M611.17 20.71c-26.53,-13.73 -57.93,-20.71 -94.22,-20.71 -36.3,0 -67.7,6.98 -94.46,20.71 -26.76,13.95 -47.23,33.26 -61.65,58.4 -14.42,25.13 -21.4,54.67 -21.4,89.11 0,33.97 7.21,63.51 21.4,88.87 14.19,25.36 34.9,44.9 61.65,58.63 26.76,13.72 58.16,20.7 94.46,20.7 36.06,0 67.46,-6.98 94.22,-20.7 26.76,-13.96 47.23,-33.5 61.65,-58.63 14.43,-25.13 21.64,-54.91 21.64,-88.87 0,-34.2 -7.21,-63.98 -21.64,-89.11 -14.43,-24.9 -34.9,-44.44 -61.65,-58.4zm-11.87 203.11c-6.98,15.36 -17.21,26.52 -31.17,34.43 -13.96,7.91 -30.94,11.87 -51.19,11.87 -20.24,0 -37.22,-3.96 -50.71,-11.87 -13.5,-7.91 -23.73,-19.08 -30.94,-34.43 -7.22,-15.36 -10.71,-33.5 -10.71,-55.37 0,-21.64 3.49,-40.25 10.71,-55.37 6.98,-15.12 17.21,-26.53 30.94,-34.43 13.72,-7.91 30.48,-11.87 50.71,-11.87 20.24,0 37.46,3.95 51.19,12.1 13.96,7.91 24.2,19.31 31.17,34.43 6.98,15.12 10.47,33.27 10.47,55.14 -0.47,21.64 -3.5,40.01 -10.47,55.37z"/>
      <polygon class="fil1" points="871.04,160.53 791.48,4.65 697.95,4.65 826.38,243.59 781.47,331.76 870.81,331.76 1036.46,4.65 948.05,4.65 "/>
      <polygon class="fil1" points="1376.59,4.65 1272.14,198.45 1165.81,4.65 1075.08,4.65 1075.08,331.76 1150.23,331.76 1150.23,119.82 1235.15,273.83 1307.27,273.83 1390.32,118.65 1390.32,331.76 1465.7,331.76 1465.7,4.65 "/>
     </g>
    </g>
   </g>
  </g>
 </g>
</svg>
