<?xml version="1.0" encoding="UTF-8"?>
<!DOCTYPE svg PUBLIC "-//W3C//DTD SVG 1.1//EN" "http://www.w3.org/Graphics/SVG/1.1/DTD/svg11.dtd">
<!-- Creator: CorelDRAW 2020 (64-Bit) -->
<svg xmlns="http://www.w3.org/2000/svg" xml:space="preserve" width="63.5002mm" height="11.7326mm" version="1.1" style="shape-rendering:geometricPrecision; text-rendering:geometricPrecision; image-rendering:optimizeQuality; fill-rule:evenodd; clip-rule:evenodd"
viewBox="0 0 6314.93 1166.78"
 xmlns:xlink="http://www.w3.org/1999/xlink"
 xmlns:xodm="http://www.corel.com/coreldraw/odm/2003">
 <defs>
  <style type="text/css">
   <![CDATA[
    .fil0 {fill:#EA4D4F}
   ]]>
  </style>
 </defs>
 <g id="Слой_x0020_1">
  <metadata id="CorelCorpID_0Corel-Layer"/>
  <path class="fil0" d="M4662.75 867.03l-395.67 0 0 -181.79 374.28 0c56.94,0 101.59,55.45 101.59,85.54 0,43.48 -38.27,96.25 -80.19,96.25zm-2042.49 278.04l0 16.04 304.77 0c0,-223.07 9.27,-447.47 86.23,-635.59 12.79,-31.28 27.31,-59.17 43.91,-89.77 148.48,-273.66 307.22,-45.27 370.27,176.83 50.59,178.24 55.66,345.4 55.66,548.53l304.77 0c0,-333.76 -35.67,-648.44 -183.45,-896.6 -21.71,-36.46 -84.34,-122.04 -112.83,-143.82 -36.26,-27.73 -35.37,-36.02 -90.86,-69.55 -112.51,-67.98 -268.55,-67.7 -382.57,-1.95 -339.37,195.69 -395.89,732.36 -395.89,1095.88zm-2619.95 -983.81c0,89.56 36.82,193.98 69.74,251.08 17.2,29.83 41.75,70 65.2,95.2 24.31,26.13 60.48,53.9 78.94,81.47 -38.6,10.3 -123.14,129.64 -144.15,165.98 -78.61,135.97 -69.73,253.69 -69.73,406.13l304.78 0 0 -171.1c0,-219.34 294.38,-361.54 477.31,-177.88 95.3,95.69 78.76,212.83 78.76,348.98l288.73 0c23.76,0 16.04,-24.96 16.04,-80.2 0,-175.04 -37.32,-281.97 -126.78,-402.55 -26.83,-36.17 -66.15,-63.41 -87.1,-94.7 7.67,-11.46 105.76,-87.12 155.04,-197.85 58.68,-131.89 58.83,-221.2 58.83,-374.26l-304.77 0c0,60.28 -5.7,105.4 -5.24,160.52 0.82,97.88 -49.05,170.66 -119.94,222.26 -65.26,47.49 -112.8,44.98 -184.93,44.98 -130.29,0 -251.3,-129.21 -251.3,-299.43l0 -128.33 -299.43 0 0 149.72zm6154.21 828.76l-5.35 5.35 5.35 -5.35zm0 0l0 0zm-406.36 -128.33c-96.11,0 -155.37,-23.96 -215.31,-84.1 -124.57,-125 -101.8,-346.15 73.15,-443.03 176.77,-97.89 415.01,48.53 409.27,248.79 -0.27,9.09 -4.9,43.56 -7.24,57 -19.98,114.87 -135.38,221.34 -259.87,221.34zm401.01 133.68c-8.39,31.46 -76.05,94.06 -105.94,113.27 -22.21,14.28 -27.73,12.98 -27.73,47.13l299.43 0c0,-192.48 -0.24,-384.98 0,-577.45 0.6,-488.67 -561.97,-732.1 -915.15,-471.36 -129.61,95.69 -232.75,245.92 -244.75,412.92 -8.85,123.07 -1.02,181.65 48.43,303.71 112.16,276.8 485.64,429.86 771.14,291.29 116.22,-56.42 117.32,-81.17 174.57,-119.51zm-3876.45 0l-5.34 5.34 5.34 -5.34zm0 0l0 0zm-695.09 -411.71c0,-150.85 128.84,-278.04 256.65,-278.04l37.42 0c133.6,0 261.99,124.34 261.99,256.65 0,64.34 1.92,87.56 -28.38,148.06 -70.55,140.85 -241.74,188.05 -368.79,126.14 -89.59,-43.66 -158.9,-136.68 -158.9,-252.82zm689.75 417.05c-6.13,22.92 -38.11,51.43 -54.81,68.18 -18.51,18.55 -46.81,47.67 -73.52,54.8l0 37.43 299.42 0c0,-192.43 -1.02,-385.14 0.08,-577.53 0.51,-89.36 -23.43,-173.62 -50.41,-238.32 -22.5,-53.96 -77.58,-133.12 -119.27,-174.81l-79.4 -64.98c-227.54,-164.69 -551.23,-130.79 -747,64.98 -14.59,14.58 -18.72,22.7 -31.97,37.54 -148.48,166.24 -173.35,402.95 -88.84,610.24 38.94,95.5 113.62,182.43 197.09,241.35 14.98,10.57 24.29,17.28 41.75,27.76 205.92,123.44 493.69,100.51 665.47,-53.17 11.19,-10 30.41,-26.1 41.4,-33.46zm2325.87 -518.64l-326.16 0 0 -181.79 315.47 0c126.56,0 111.93,181.79 10.69,181.79zm-625.58 679.05l711.13 0c86.31,0 164.49,-26.1 214.74,-63.3 117,-86.63 183.24,-234.76 137.02,-384.7 -31.79,-103.15 -89.44,-126.49 -116.49,-166.88 7.21,-13.62 14.84,-24.09 20.77,-38.04 6.32,-14.85 11.49,-28.49 16.1,-42.72 75.47,-233.04 -107.35,-453.93 -325.6,-453.93l-657.67 0 0 1149.57z"/>
 </g>
</svg>
