<svg xmlns="http://www.w3.org/2000/svg" xml:space="preserve" width="16.463mm" height="17.6389mm" version="1.1" style="shape-rendering:geometricPrecision; text-rendering:geometricPrecision; image-rendering:optimizeQuality; fill-rule:evenodd; clip-rule:evenodd"
viewBox="0 0 99.14 106.22"
 xmlns:xlink="http://www.w3.org/1999/xlink"
 xmlns:xodm="http://www.corel.com/coreldraw/odm/2003">
 <g>
  <path d="M99.14 35.41l0 -14.16 -12.39 0 0 -5.31 -21.24 0 0 5.31 -31.87 0 0 -5.31 -21.24 0 0 5.31 -12.39 0 0 14.16 5.31 0 0 56.65 -5.31 0 0 14.16 99.14 0 0 -14.16 -5.31 0 0 -56.65 5.31 0zm-63.76 53.56l34.62 -32.31 -13.7 0 8.85 -14.16 -25.61 0 -10.33 24.78 12.67 0 -6.51 21.69zm-0.85 -25.23l7.38 -17.7 16.88 -0 -8.85 14.16 11.09 0 -18.49 17.25 4.11 -13.71 -12.12 0zm-18.59 -58.42l14.16 0 0 3.54 -14.16 0 0 -3.54zm58.42 8.85l3.54 0 0 -5.31 5.31 0 0 -3.54 -5.31 0 0 -5.31 -3.54 0 0 5.31 -5.31 0 0 3.54 5.31 0 0 5.31zm-5.31 5.31l14.16 0 0 1.77 -14.16 0 0 -1.77zm-53.11 0l14.16 0 0 1.77 -14.16 0 0 -1.77zm-12.39 12.39l0 -7.08 92.05 0 0 7.08 -92.05 0zm92.05 63.73l0 7.08 -92.05 0 0 -7.08 92.05 0zm-5.31 -3.54l-81.43 0 0 -56.65 81.43 0 0 56.65z"/>
 </g>
</svg>