<svg xmlns="http://www.w3.org/2000/svg" xml:space="preserve" width="12.836mm" height="17.639mm" version="1.1" style="shape-rendering:geometricPrecision; text-rendering:geometricPrecision; image-rendering:optimizeQuality; fill-rule:evenodd; clip-rule:evenodd"
viewBox="0 0 44.28 60.85"
 xmlns:xlink="http://www.w3.org/1999/xlink"
 xmlns:xodm="http://www.corel.com/coreldraw/odm/2003">
 <g>
  <path d="M41.55 60.85l-41.55 0 0 -60.85 13.69 0 0 8.16 19.93 0 10.66 12.11 0 40.57 -2.73 0zm-36.23 -9.47l0 -37.04 25.18 0 7.59 7.59 0.88 0.88 0 2.14 0 29.16 -33.65 -0 0 -2.72zm2.73 0l0 -26.72 28.18 0 0 26.72 -28.18 -0zm21.31 -34.31l5.14 5.14 -26.45 0 0 -5.14 21.31 0zm-1.8 20.81l2.41 0.75 0.78 -2.48 -1.68 -0.53 0.53 -1.68 -2.48 -0.78 -0.75 2.41 -3.23 1.69 0 -3.64 1.78 -1.78 -1.84 -1.84 -1.25 1.25 -1.25 -1.25 -1.84 1.84 1.78 1.78 0 3.64 -3.23 -1.69 -0.75 -2.41 -2.48 0.78 0.53 1.68 -1.68 0.53 0.78 2.48 2.41 -0.75 2.93 1.53 -2.93 1.53 -2.41 -0.75 -0.78 2.48 1.68 0.53 -0.53 1.68 2.48 0.78 0.75 -2.41 3.23 -1.69 0 3.64 -1.78 1.78 1.84 1.84 1.25 -1.25 1.25 1.25 1.84 -1.84 -1.78 -1.78 0 -3.64 3.23 1.69 0.75 2.41 2.48 -0.78 -0.53 -1.68 1.68 -0.53 -0.78 -2.48 -2.41 0.75 -2.93 -1.53 2.93 -1.53zm13.98 20.24l-38.81 0 0 -47.22 29.66 0 9.15 10.41 0 36.81zm-38.81 -55.38l8.22 0 0 4.49 -8.22 0 0 -4.49z"/>
 </g>
</svg>
