<svg xmlns="http://www.w3.org/2000/svg" xml:space="preserve" width="17.8211mm" height="17.8153mm" version="1.1" style="shape-rendering:geometricPrecision; text-rendering:geometricPrecision; image-rendering:optimizeQuality; fill-rule:evenodd; clip-rule:evenodd"
viewBox="0 0 159.87 159.82"
 xmlns:xlink="http://www.w3.org/1999/xlink"
 xmlns:xodm="http://www.corel.com/coreldraw/odm/2003">
 <g>
  <path d="M45.96 78.8l1.99 3.34c0.5,0.84 3.52,5.99 5.59,11.18 1.14,2.86 1.99,5.75 1.99,7.97 0,2.72 -1.18,5.23 -3.05,7.05 -1.87,1.82 -4.43,2.96 -7.21,2.96 -2.78,0 -5.34,-1.14 -7.21,-2.96 -1.87,-1.82 -3.05,-4.33 -3.05,-7.05 0,-2.25 0.85,-5.15 1.99,-8.01 2.07,-5.19 5.1,-10.32 5.6,-11.15l2.67 -4.46 0.68 1.13zm113.92 -70.4l0 14.22 -2.74 0 0 99.6 2.74 0 0 15.01 -72.07 0 0 7.59 2.74 0 0 15.01 -90.55 0 0 -15.01 2.74 0 0 -99.6 -2.74 0 0 -15.01 13.22 0 0 -7.61 21.89 0 0 7.6 36.96 0 0 -7.59 -2.74 0 0 -15.01 13.22 0 0 -7.61 21.89 0 0 7.6 55.44 0 0 0.79zm-61.66 -0.79l0 -2.3 -9.45 0 0 2.3 9.45 0zm-69.33 20.3l-9.45 0 0 2.3 9.45 0 0 -2.3zm-22.67 125.7l78.11 0 0 -2.57 -78.11 0 0 2.57zm75.37 -40.04l0 -37.1 -72.63 0 0 37.1 72.63 0zm-72.63 -68.35l0 25.03 72.63 0 0 -25.03 -72.63 0zm72.63 99.6l0 -25.03 -72.63 0 0 25.03 72.63 0zm-75.37 -105.82l78.11 0 0 -2.57 -78.11 0 0 2.57zm72.07 -16.38l0 7.59 12.26 0 0 15.01 -2.74 0 0 2.43 63.11 0 0 -25.03 -72.63 0zm9.52 31.25l0 37.1 63.11 0 0 -37.1 -63.11 0zm63.11 68.35l0 -25.03 -63.11 0 0 25.03 63.11 0zm-63.11 8.79l65.85 0 0 -2.57 -65.85 0 0 2.57zm-12.26 -114.61l78.11 0 0 -2.57 -78.11 0 0 2.57zm39.74 39.8l1.99 3.34c0.5,0.84 3.53,6 5.59,11.18 1.14,2.86 1.99,5.75 1.99,7.97 0,2.72 -1.18,5.23 -3.05,7.05 -1.87,1.82 -4.43,2.96 -7.21,2.96 -2.78,0 -5.34,-1.14 -7.21,-2.96 -1.87,-1.83 -3.05,-4.33 -3.05,-7.05 0,-2.25 0.85,-5.15 1.99,-8.01 2.07,-5.19 5.1,-10.32 5.6,-11.15l2.67 -4.46 0.68 1.13zm-3.52 25.13c0.74,0.71 1.76,1.16 2.83,1.16 1.08,0 2.09,-0.45 2.84,-1.16 0.73,-0.7 1.2,-1.64 1.2,-2.64 0,-1.14 -0.48,-2.85 -1.2,-4.78 -0.76,-2.01 -1.79,-4.24 -2.84,-6.33 -1.02,2 -2.07,4.25 -2.85,6.31 -0.71,1.88 -1.18,3.59 -1.18,4.8 0,1 0.47,1.94 1.2,2.64zm-69.33 22.6c0.74,0.71 1.76,1.16 2.84,1.16 1.08,0 2.09,-0.45 2.83,-1.16 0.73,-0.7 1.2,-1.64 1.2,-2.64 0,-1.13 -0.48,-2.84 -1.2,-4.77 -0.76,-2.01 -1.79,-4.24 -2.84,-6.33 -1.02,2 -2.07,4.25 -2.85,6.31 -0.71,1.88 -1.18,3.59 -1.18,4.8 0,1 0.47,1.94 1.2,2.64z"/>
 </g>
</svg>