<svg xmlns="http://www.w3.org/2000/svg" xml:space="preserve" width="10.1475mm" height="17.6389mm" version="1.1" style="shape-rendering:geometricPrecision; text-rendering:geometricPrecision; image-rendering:optimizeQuality; fill-rule:evenodd; clip-rule:evenodd"
viewBox="0 0 25.77 44.79"
 xmlns:xlink="http://www.w3.org/1999/xlink"
 xmlns:xodm="http://www.corel.com/coreldraw/odm/2003">
 <g>
  <path d="M4.39 13.17l0 -2.77 -1.46 0 0 -5.28 1.46 0 0 -5.12 14.06 0 0 5.12 1.46 0 0 5.28 -1.46 0 0 3.48 7.32 5.75 0 21.44 -2.79 3.72 -21.05 0 -1.92 -3.84 0 -20.24 3.35 -7.54 1.04 0zm7.84 22l6.57 0 0 1.31 -6.57 0 0 -1.31zm3.57 -2.63l3 0 0 1.31c-2.19,0 -4.38,0 -6.57,0l0 -1.31 3.57 0zm2.34 -2.63l0.66 0 0 1.31 -6.57 0 0 -1.31c1.97,0 3.94,0 5.91,0zm-2.63 -1.31c1.45,0 2.63,-1.18 2.63,-2.63 0,-0.79 -2.06,-4.86 -3.12,-3.72 -0.36,0.4 -2.14,2.45 -2.14,3.72 0,1.45 1.18,2.63 2.63,2.63zm0 -4.9c0.7,0.88 1.31,1.86 1.31,2.27 0,1.75 -2.63,1.75 -2.63,0 0,-0.42 0.62,-1.4 1.31,-2.27zm-11.61 -1.3l2.24 -5.35 9.84 0 6.03 5.41 0 15.7 -1.89 2.9 -15.24 0 -1.13 -2.32 0 -15.99 0.15 -0.36zm1.76 0.73l1.75 -4.17 2.19 0 0 20.2 -3.53 0 -0.41 -0.83 0 -15.19zm5.25 -4.17l4.35 0 4.84 4.34 0 14.3 -1.01 1.55 -8.19 0 0 -20.2zm-4.61 -3.89l0 -2.2 7.8 0 9.76 7.67 0 19.89 -1.83 2.44 -18.94 0 -1.19 -2.37 0 -19.43 2.67 -6.01 1.72 0zm0 -13.17l1.46 0 0 2.2 1.46 0 0 -2.2 1.46 0 0 2.2 1.46 0 0 -2.2 1.46 0 0 2.2 1.46 0 0 -2.2 1.46 0 0 3.66 -10.24 0 0 -3.66zm-1.46 5.12l13.17 0 0 1.46 -13.17 0 0 -1.46zm11.71 2.93l0 2.99 -1.97 -1.52 -8.28 0 0 -1.46 10.24 0z"/>
 </g>
</svg>
