<svg xmlns="http://www.w3.org/2000/svg" xml:space="preserve" width="18.1398mm" height="17.639mm" version="1.1" style="shape-rendering:geometricPrecision; text-rendering:geometricPrecision; image-rendering:optimizeQuality; fill-rule:evenodd; clip-rule:evenodd"
viewBox="0 0 438.52 426.42"
 xmlns:xlink="http://www.w3.org/1999/xlink"
 xmlns:xodm="http://www.corel.com/coreldraw/odm/2003">
 <g>
  <path d="M251.08 405.2l-12.46 -53.76c-0.53,-2.34 -1.27,-5.39 -2.21,-9.1 -0.81,-3.21 -1.62,-6.22 -2.41,-9.02l-1.77 -6.28 -1.68 -5.23 -2.38 -7.04c-0.94,-2.75 -1.76,-5.06 -2.47,-6.98l-2.09 -5.68 -2.22 -5.46c-13.16,-32.35 -30.99,-62.32 -52.8,-89.03l-0.03 0.03c-21.85,-26.74 -47.65,-50.22 -76.71,-69.55l-5.56 -3.7 -4.46 -2.75c-3.43,-2.12 -7.14,-4.31 -11.14,-6.59 -3.13,-1.78 -6.9,-3.81 -11.31,-6.11l-59.36 -26.51 18.77 -17.1c5.93,-5.4 13.9,-9.63 21.55,-12.35 9.23,-3.28 19.1,-4.52 25.53,-3.17l2.37 0.5 1.92 1c3.56,1.85 8.46,4.17 13.86,6.72 9.03,4.27 19.32,9.13 25.95,12.81l0.23 -0.35 8.33 5.54 9.18 5.7 -0.2 0.3c4.12,2.8 8.19,5.68 12.2,8.63 2.78,2.04 5.57,4.16 8.39,6.34l1.56 -2.04 46.52 -5.48 30.9 25.14 6.95 14.56 -2.73 7.71 22.41 34.44 -4.21 23.22 -7.93 5c6.19,9.71 11.9,19.55 17.13,29.5l0 0.07c4.98,9.48 9.56,19.1 13.72,28.84l0.37 -0.19 4.12 10.99 3.46 8.4 -0.27 0.13 2.42 6.73 0.44 -0.22 3.47 11.77 2.75 8.3 -0.26 0.13c1.06,3.65 2.13,7.54 3.21,11.68 1.13,4.36 2.19,8.7 3.16,13 1.08,4.81 2.16,10.98 3.24,17.15l0 0.06c1.11,6.4 2.23,12.81 2.85,15.53l0.83 3.67 -0.76 3.49c-2.42,11.03 -5.78,18.56 -10.16,24.37 -4.76,6.32 -10,9.9 -16.13,13.19l-19.15 10.28 -4.93 -21.22zm84.83 -317.7c0,-3.44 -2.78,-6.22 -6.22,-6.22 -3.44,0 -6.22,2.78 -6.22,6.22 0,3.44 2.78,6.22 6.22,6.22 3.44,0 6.22,-2.79 6.22,-6.22zm-18.67 -18.67c0,-3.44 -2.79,-6.22 -6.22,-6.22 -3.44,0 -6.22,2.78 -6.22,6.22 0,3.44 2.78,6.22 6.22,6.22 3.44,0 6.22,-2.78 6.22,-6.22zm70.15 277.08l-12.46 -53.76c-0.53,-2.34 -1.27,-5.39 -2.21,-9.1 -0.81,-3.21 -1.62,-6.22 -2.41,-9.02l-1.77 -6.28 -1.68 -5.23 -2.38 -7.04c-0.94,-2.75 -1.76,-5.06 -2.47,-6.98l-2.09 -5.68 -2.22 -5.46c-13.16,-32.35 -30.99,-62.33 -52.8,-89.03l-0.03 0.02c-21.85,-26.74 -47.66,-50.22 -76.71,-69.54l-5.56 -3.7 -4.46 -2.75c-3.43,-2.12 -7.14,-4.31 -11.14,-6.59 -3.13,-1.78 -6.9,-3.81 -11.31,-6.11l-59.36 -26.51 18.77 -17.11c5.92,-5.4 13.9,-9.63 21.55,-12.35 9.23,-3.28 19.1,-4.52 25.54,-3.17l2.37 0.5 1.92 1c3.56,1.85 8.46,4.17 13.86,6.72 9.03,4.27 19.32,9.13 25.95,12.81l0.23 -0.35 8.33 5.54 9.18 5.7 -0.2 0.3c4.12,2.8 8.19,5.68 12.19,8.63 2.78,2.04 5.58,4.16 8.39,6.35l1.56 -2.04 46.52 -5.47 30.89 25.14 6.96 14.56 -2.73 7.7 22.42 34.44 -4.21 23.22 -7.92 5c6.19,9.7 11.9,19.55 17.13,29.5l0 0.07c4.98,9.48 9.55,19.1 13.72,28.84l0.37 -0.19 4.12 10.98 3.46 8.4 -0.27 0.14 2.42 6.73 0.44 -0.22 3.47 11.77 2.75 8.3 -0.26 0.13c1.06,3.65 2.13,7.54 3.21,11.68 1.14,4.36 2.2,8.7 3.16,13 1.09,4.81 2.16,10.98 3.24,17.15l0 0.07c1.12,6.4 2.23,12.8 2.85,15.53l0.83 3.67 -0.77 3.49c-2.42,11.03 -5.78,18.55 -10.16,24.37 -4.76,6.32 -10.01,9.9 -16.13,13.19l-19.15 10.29 -4.93 -21.22zm16.2 -3.71l-12.46 -53.7c-1.44,-6.38 -3.05,-12.71 -4.82,-18.97l22.64 -11.32c2.41,8.17 4.57,16.44 6.46,24.81 1.65,7.29 4.44,25.46 6.09,32.75 -3.71,16.92 -9.44,21.88 -17.9,26.43zm-114.74 -272.97l6.02 -7.86 32.61 -3.84 22.45 18.26 2.42 5.07 -3.15 8.89 23.31 35.82 -1.73 9.52 -14.53 9.17 -4.28 -7.14c-7.58,-12.72 -15.98,-24.91 -26.26,-35.42 -11.71,-11.98 -24.58,-21.66 -36.87,-32.48zm116.34 176.95l-22.52 11.26c-1.58,-4.94 -3.26,-9.83 -5.04,-14.68l22.42 -11.21c1.81,4.83 3.53,9.71 5.15,14.62zm-154.06 -201.94c10.2,6.79 20.08,14.05 29.58,21.75l-1.75 7.45 6.59 5.98c24.3,17.07 44.35,38.64 59.6,64.12l9.9 14.16 5.08 -0.96c0.69,0 1.37,-0.06 2.04,-0.18 13.07,20.14 24.18,41.32 33.27,63.38l-22.34 11.17c-27.51,-67.65 -74.69,-125.52 -135.79,-166.16l13.8 -20.71zm-84.85 -15.89c8.95,-8.15 25.7,-12.98 32.51,-11.55 8.79,4.57 33.45,15.5 41.87,20.72l-13.81 20.72c-7.63,-4.71 -15.46,-9.17 -23.49,-13.34l-37.08 -16.54zm33.31 118.42c0,-3.44 -2.78,-6.22 -6.22,-6.22 -3.44,0 -6.22,2.78 -6.22,6.22 0,3.44 2.78,6.22 6.22,6.22 3.44,0 6.22,-2.79 6.22,-6.22zm-18.67 -18.67c0,-3.44 -2.79,-6.22 -6.22,-6.22 -3.44,0 -6.22,2.78 -6.22,6.22 0,3.44 2.78,6.22 6.22,6.22 3.44,0 6.22,-2.78 6.22,-6.22zm86.35 273.38l-12.46 -53.69c-1.44,-6.38 -3.05,-12.71 -4.82,-18.97l22.64 -11.32c2.41,8.17 4.57,16.44 6.46,24.81 1.65,7.29 4.44,25.46 6.08,32.75 -3.71,16.92 -9.44,21.89 -17.9,26.43zm-114.74 -272.97l6.01 -7.86 32.61 -3.84 22.44 18.26 2.42 5.07 -3.15 8.89 23.31 35.82 -1.73 9.52 -14.53 9.17 -4.28 -7.14c-7.58,-12.72 -15.98,-24.91 -26.26,-35.42 -11.71,-11.98 -24.58,-21.65 -36.87,-32.48zm116.33 176.95l-22.52 11.26c-1.58,-4.94 -3.26,-9.83 -5.04,-14.68l22.42 -11.21c1.82,4.83 3.53,9.71 5.15,14.63zm-154.06 -201.94c10.2,6.79 20.08,14.05 29.58,21.75l-1.75 7.45 6.59 5.98c24.3,17.07 44.35,38.64 59.61,64.12l9.9 14.16 5.08 -0.96c0.69,0 1.37,-0.06 2.04,-0.18 13.07,20.14 24.18,41.32 33.27,63.38l-22.34 11.17c-27.51,-67.65 -74.69,-125.52 -135.79,-166.16l13.8 -20.71zm-84.85 -15.89c8.95,-8.15 25.7,-12.98 32.51,-11.55 8.79,4.57 33.45,15.5 41.87,20.72l-13.81 20.72c-7.63,-4.71 -15.46,-9.17 -23.49,-13.35l-37.08 -16.54z"/>
 </g>
</svg>
