<svg xmlns="http://www.w3.org/2000/svg" xml:space="preserve" width="18.4712mm" height="17.639mm" version="1.1" style="shape-rendering:geometricPrecision; text-rendering:geometricPrecision; image-rendering:optimizeQuality; fill-rule:evenodd; clip-rule:evenodd"
viewBox="0 0 292.01 278.85"
 xmlns:xlink="http://www.w3.org/1999/xlink"
 xmlns:xodm="http://www.corel.com/coreldraw/odm/2003">
 <g>
  <g>
   <path d="M74.31 212.15l8.34 0 0 8.34 -8.34 0 0 -8.34zm84.82 -155.14l-11.27 25.91 -5.39 0 -11.25 -25.87 -7.7 3.17 3.51 8.07 -72.31 30.42 -3.98 -9.15 -7.73 3.12 37.44 86.11 -10.32 0c-12.5,0 -17.44,16.69 -6.27,23.27 -4.98,5.14 -7.21,12.46 -5.6,19.7l12.69 57.09 131.69 0 18.1 -75.42c16.3,-2.23 28.64,-16.13 28.64,-32.97 0,-14.28 -9.12,-26.79 -22.21,-31.4l20.17 -46.4 -7.74 -3.13 -3.99 9.18c-24.16,-10.17 -48.24,-20.32 -72.29,-30.46l3.5 -8.02 -7.71 -3.21zm73.17 49.34l-4.09 9.41 -49.74 -20.92c-0.31,-6.62 -5.75,-11.92 -12.45,-11.92l-9.06 -0 3.06 -7.03c24.09,10.16 48.17,20.31 72.29,30.46zm-116.23 79.32c13.76,-20.41 45.78,-10.6 45.78,13.97 0,13.84 -11.18,25.01 -25.01,25.01 -20.18,0 -31.8,-22.64 -20.76,-38.98zm8.26 -19.38c-5.44,0 -9.77,-3.16 -11.69,-8.34l48.43 0c-1.71,4.86 -6.29,8.34 -11.73,8.34l-25.02 0zm-44.21 -9.18l16.05 -6.74c1.41,3.29 4.22,5.8 7.65,6.92 0.08,0.46 0.16,0.91 0.26,1.36l-19.69 8.3 -4.28 -9.83zm90.07 -40.85l-37.52 0c-11.06,0 -16.7,13.46 -8.86,21.29 2.34,2.4 5.48,3.72 8.86,3.72l37.52 0c0,2.92 0.74,8.34 -4.17,8.34l-58.36 0c-2.3,0 -4.17,-1.87 -4.17,-4.17l0 -21.09c0,-1.95 0.45,-3.86 1.31,-5.56l10.29 -20.63c2.12,-4.2 6.51,-6.92 11.2,-6.92l39.72 0c2.3,0 4.17,1.87 4.17,4.17l0 20.84zm13.6 62.53l-20.97 0c-1.71,-2.13 -3.65,-4.01 -5.78,-5.64 5.71,-2.25 10.12,-6.95 12.02,-12.71l13.92 5.86c-0.56,4.28 -0.27,8.32 0.81,12.49l0 0zm-13.6 -45.85l-37.52 0c-5.42,0 -5.57,-8.34 0,-8.34l37.52 0 0 8.34zm-72.83 -17.9c-1.1,2.16 -1.8,4.53 -2.07,6.98l-25.73 10.8 -4.09 -9.42 35.08 -14.77 -3.19 6.4zm-2.21 16.08l0 10.63 -18.35 7.71 -3.91 -8.99 22.26 -9.35zm72.52 56l19.55 0c1.91,3.29 4.35,6.22 7.23,8.66l-6.29 16.35 -20.49 0c5.64,-13.91 0,-24.38 0,-25.01zm17.44 -28.97l-9.99 -4.2c2.99,-3.2 3.4,-6.13 3.4,-10.19l12.18 5.13c-2.35,2.76 -4.24,5.88 -5.58,9.26l-0 0zm12.53 -15.38l-19.12 -8.07 0 -10.63 32.01 13.47c-4.65,0.76 -8.98,2.6 -12.89,5.22zm23.15 -9.95l-42.27 -17.79 0 -11.13 46.36 19.51 -4.09 9.41zm-94.5 -49.92c-14.94,0 -19.71,13.99 -20.03,14.28l-44.12 18.57 -4.09 -9.41 72.29 -30.46 3.06 7.03 -7.11 -0zm-38.57 91.68l19.93 -8.41c2.32,3.16 5.43,5.54 9.01,6.95 -2.14,1.63 -4.09,3.52 -5.8,5.66l-21.31 0 -1.82 -4.2zm108.36 95.91l-118.42 0c-1.54,-6.93 -11.56,-50.12 -11.56,-53.44 0,-14.41 19.97,-18.38 25.5,-5.11l17.45 41.87 24.39 -0c4.97,13.94 25.95,9.07 24.09,-5.68l14.53 -7.26 -3.73 -7.46 -14.49 7.25c-6.57,-6.34 -17.34,-3.74 -20.39,4.82l-18.83 -0 -15.31 -36.75c-3.36,-8.07 -11.18,-13.28 -19.94,-13.28 -4.64,0 -10.11,0.79 -12.18,-1.27 -2.6,-2.6 -0.7,-7.06 2.97,-7.06l35.86 -0c-9.02,22.26 7.52,45.86 30.84,45.86 10.18,0 19.68,-4.65 25.98,-12.5l31.08 0 20.03 -52.09c1.46,-3.77 7.12,-2.01 6.19,1.93l-24.04 100.19zm-55.07 -20.84c0,-5.49 8.34,-5.49 8.34,0 0,5.49 -8.34,5.48 -8.34,0zm100.05 -79.2c0,11.46 -7.62,21.09 -18.16,24.02l5.65 -24.93c0,-12.73 -17.77,-16.1 -22.4,-4.16l-8.46 22c-16.4,-17.63 -0.36,-46.15 23.11,-41.46 11.73,2.25 20.25,12.58 20.25,24.54l0 0zm-95.88 29.18c0,1.22 -0.28,2.39 -0.85,3.59l7.53 3.58c1.1,-2.31 1.65,-4.72 1.65,-7.17 0,-9.2 -7.48,-16.68 -16.68,-16.68 -2.45,0 -4.86,0.56 -7.17,1.65l3.58 7.53c5.74,-2.73 11.93,1.68 11.93,7.49zm-8.34 16.68c2.45,0 4.86,-0.55 7.17,-1.65l-3.58 -7.53c-5.74,2.73 -11.93,-1.68 -11.93,-7.49 0,-1.22 0.28,-2.39 0.85,-3.59l-7.53 -3.58c-1.1,2.31 -1.65,4.72 -1.65,7.16 0,9.2 7.48,16.68 16.67,16.68l0 0zm16.68 -116.72l8.34 0 0 8.34 -8.34 0 0 -8.34zm-16.68 0l8.34 0 0 8.34 -8.34 0 0 -8.34zm-16.68 0l8.34 0 0 8.34 -8.34 0 0 -8.34zm157.18 -41.61l-107.24 -43.33 -12.06 29.85 107.24 43.33 12.06 -29.85zm-103.05 -53.78l117.71 47.56 -20.5 50.74 -128.12 -51.77 20.5 -50.74 10.41 4.21z"/>
   <path d="M10.47 47.54l117.65 -47.54 20.5 50.74 -128.12 51.77 -20.5 -50.74 10.47 -4.23zm4.19 10.45l107.24 -43.33 12.06 29.85 -107.24 43.33 -12.06 -29.85z"/>
  </g>
 </g>
</svg>
