<svg xmlns="http://www.w3.org/2000/svg" xml:space="preserve" width="13.815mm" height="17.6389mm" version="1.1" style="shape-rendering:geometricPrecision; text-rendering:geometricPrecision; image-rendering:optimizeQuality; fill-rule:evenodd; clip-rule:evenodd"
viewBox="0 0 55.69 71.1"
 xmlns:xlink="http://www.w3.org/1999/xlink"
 xmlns:xodm="http://www.corel.com/coreldraw/odm/2003">
 <g>
  <path d="M52.62 20.67l-11.41 -11.41c-0.26,-0.26 -0.61,-0.4 -0.97,-0.4l-6.19 -0 0 -1.51c0,-2.35 1.91,-4.27 4.27,-4.27l5.08 0 9.23 9.37 0 8.22zm-24.77 14.7c-0.44,0 -0.85,0.21 -1.11,0.56 -2.92,3.97 -6.07,9.5 -4.48,13.32 0.8,1.92 2.61,3.11 5.39,3.53 0.07,0.01 0.14,0.01 0.2,0.01 0.07,0 0.14,-0 0.2,-0.01 2.77,-0.41 4.58,-1.6 5.39,-3.53 1.59,-3.82 -1.56,-9.35 -4.48,-13.32 -0.26,-0.35 -0.67,-0.56 -1.11,-0.56zm3.05 12.82c-0.15,0.35 -0.58,1.41 -3.05,1.83 -2.46,-0.42 -2.9,-1.47 -3.05,-1.83 -0.73,-1.76 0.4,-5.08 3.05,-9.05 2.65,3.97 3.78,7.29 3.05,9.05zm-21.95 10.89l0 -41.61 28.28 0 8.52 8.52 0.99 0.99 0 2.4 0 32.75 -37.8 -0 0 -3.06zm3.07 0l0 -30.01 31.65 0 0 30.01 -31.65 -0zm23.94 -38.53l5.77 5.77 -29.71 0 0 -5.77 23.94 0zm16.66 47.48l-49.54 0 0 -56.42 36.59 0 12.96 12.96 0 43.47zm-45.42 -64.96l14.45 0 0 5.78 -14.45 0 0 -5.78zm23.76 5.46l0 -1.19c0,-2.02 0.82,-3.86 2.15,-5.19 1.33,-1.33 3.16,-2.15 5.19,-2.15l6.35 0 11.03 11.2 0 59.91 -55.69 0 0 -62.57 4.13 0 0 -8.53 20.59 0 0 8.53 6.24 0z"/>
 </g>
</svg>
