<svg xmlns="http://www.w3.org/2000/svg" xml:space="preserve" width="22.7836mm" height="17.639mm" version="1.1" style="shape-rendering:geometricPrecision; text-rendering:geometricPrecision; image-rendering:optimizeQuality; fill-rule:evenodd; clip-rule:evenodd"
viewBox="0 0 2046.89 1584.7"
 xmlns:xlink="http://www.w3.org/1999/xlink"
 xmlns:xodm="http://www.corel.com/coreldraw/odm/2003">
 <g>
  <path d="M1254.54 0c-264.47,0 -498.94,130.4 -642.95,330.15l-512.55 0c-54.61,0 -99.04,44.44 -99.04,99.04l0 462.2c0,54.61 44.44,99.04 99.04,99.04l39.09 0.01c-3.69,10.37 -6.07,21.39 -6.07,33.01l0 462.2c0,54.61 44.44,99.04 99.04,99.04l1023.45 0.01c22.24,0 44.24,-1.16 66.02,-2.97 87.31,-9.3 170.82,-29.97 250.19,-63.07 279.93,-122.35 476.14,-401.79 476.14,-726.31 0,-436.88 -355.46,-792.35 -792.35,-792.35zm0 627.28c-91.03,0 -165.07,74.06 -165.07,165.07 0,91.02 74.05,165.07 165.07,165.07 91.02,0 165.07,-74.06 165.07,-165.07 0,-91.02 -74.06,-165.07 -165.07,-165.07zm0 264.11c-54.61,0 -99.04,-44.44 -99.04,-99.04 0,-54.61 44.44,-99.04 99.04,-99.04 54.61,0 99.04,44.44 99.04,99.04 0,54.61 -44.44,99.04 -99.04,99.04zm0 -660.29c-309.47,0 -561.24,251.77 -561.24,561.25 0,309.47 251.77,561.24 561.24,561.24 309.47,0 561.24,-251.77 561.24,-561.24 0,-309.48 -251.77,-561.25 -561.24,-561.25zm389.8 256.85l-228.79 63.92 -23.51 -234.93c101.19,29.35 188.94,90.07 252.3,171.01zm-527.31 -170.98l-23.5 234.94 -228.79 -63.92c63.36,-80.98 151.08,-141.7 252.29,-171.02zm-356.81 458.02l213.41 97 -133.44 190.66c-50.98,-77.78 -80.85,-170.55 -80.85,-270.29 0,-5.85 0.66,-11.55 0.89,-17.37l-0.01 -0.01zm312.08 477.39l182.24 -182.24 182.23 182.24c-56.48,22.44 -117.85,35.19 -182.23,35.19 -64.38,0 -125.76,-12.75 -182.24,-35.19zm427.47 -30.38l-221.89 -221.89c-12.38,-12.38 -34.3,-12.38 -46.68,0l-221.89 221.89c-48.03,-27.54 -90.92,-62.86 -127.13,-104.26l168.3 -240.44c5.62,-8.01 7.4,-18.16 4.82,-27.63 -2.58,-9.47 -9.24,-17.29 -18.19,-21.33l-269.68 -122.58c10.17,-57.38 30.2,-111.29 58.36,-160.09l287.81 80.39c2.91,0.83 5.91,1.22 8.89,1.22 6.57,0 13.07,-1.99 18.62,-5.74 8.01,-5.52 13.23,-14.27 14.23,-23.97l29.51 -294.92c22.81,-3.27 45.99,-5.52 69.69,-5.52 23.71,0 46.88,2.25 69.7,5.48l29.51 294.92c0.96,9.7 6.21,18.49 14.23,23.97 5.54,3.79 12.05,5.78 18.62,5.78 2.96,0 5.97,-0.4 8.91,-1.22l287.82 -80.43c28.19,48.79 48.2,102.71 58.36,160.09l-269.69 122.58c-8.95,4.06 -15.61,11.89 -18.19,21.33 -2.58,9.48 -0.79,19.61 4.82,27.63l168.31 240.44c-36.25,41.47 -79.14,76.76 -127.18,104.3l0 0zm169.17 -159.36l-133.49 -190.66 213.42 -96.99c0.23,5.8 0.89,11.52 0.89,17.36 0,99.74 -29.88,192.51 -80.82,270.29l0 0.01zm-1569.9 -666.47l469.77 0c-19.68,33.91 -36.88,69.4 -51.41,106.25l-73.43 -36.72c-9.27,-4.65 -20.23,-4.65 -29.54,0l-117.3 58.64 -117.3 -58.64c-9.27,-4.65 -20.23,-4.65 -29.54,0l-84.25 42.13 0 -78.64c0,-18.19 14.79,-33.02 33.01,-33.02zm99.04 779.74l99.04 -49.52 117.3 58.64c4.63,2.34 9.71,3.49 14.76,3.49 5.05,0 10.13,-1.16 14.75,-3.47l97 -48.5c38.16,78.77 89.04,150.25 149.85,211.93l-114.79 -57.42c-9.28,-4.65 -20.24,-4.65 -29.55,0l-117.27 58.64 -117.3 -58.64c-9.28,-4.65 -20.24,-4.65 -29.55,0l-84.25 42.13 -0.01 -157.28zm268.64 -467.75l-22.77 -11.39c-9.28,-4.65 -20.24,-4.65 -29.55,0l-117.26 58.67 -117.3 -58.63c-9.28,-4.65 -20.24,-4.65 -29.55,0l-84.25 42.13 0 -157.28 99.04 -49.52 117.3 58.64c4.63,2.34 9.71,3.49 14.76,3.49 5.05,0 10.13,-1.15 14.75,-3.47l117.3 -58.67 66.33 33.19c-13.8,46.02 -23.57,93.76 -28.79,142.85l-0.01 0zm-400.7 183.23l0 -78.64 99.04 -49.52 117.3 58.63c4.62,2.34 9.7,3.5 14.75,3.5 5.05,0 10.13,-1.16 14.76,-3.47l117.3 -58.67 33.34 16.67c-0.06,4.16 -0.33,8.28 -0.33,12.44 0,45 3.96,89.08 11.23,132.06l-374.38 0c-18.22,0 -33.01,-14.82 -33.01,-33.01l-0.01 -0.01zm421.27 99.05c7.53,29.14 16.87,57.57 27.54,85.34l-85.65 42.82 -117.3 -58.64c-9.28,-4.65 -20.24,-4.65 -29.55,0l-84.25 42.13 0 -78.64c0,-18.18 14.79,-33.01 33.02,-33.01l256.2 0zm-256.2 528.22c-18.23,0 -33.02,-14.82 -33.02,-33.01l0 -78.65 99.04 -49.52 117.3 58.64c9.28,4.65 20.24,4.65 29.55,0l117.27 -58.64 117.3 58.64c4.63,2.34 9.71,3.49 14.76,3.49 5.05,0 10.13,-1.15 14.76,-3.47l36.35 -18.16c58.1,49.03 123.33,89.83 193.92,120.7l-707.23 0 0 -0.04zm1023.45 0c-400.49,0 -726.31,-325.82 -726.31,-726.31 0,-400.5 325.82,-726.32 726.31,-726.32 400.5,0 726.32,325.82 726.32,726.32 0,400.49 -325.82,726.31 -726.32,726.31z"/>
 </g>
</svg>
