<svg xmlns="http://www.w3.org/2000/svg" xml:space="preserve" width="22.8511mm" height="17.6388mm" version="1.1" style="shape-rendering:geometricPrecision; text-rendering:geometricPrecision; image-rendering:optimizeQuality; fill-rule:evenodd; clip-rule:evenodd"
viewBox="0 0 2285.1 1763.87"
 xmlns:xlink="http://www.w3.org/1999/xlink"
 xmlns:xodm="http://www.corel.com/coreldraw/odm/2003">
 <g>
  <path d="M75.23 98.51l69.57 0 0 -98.51 411.58 0 0 98.51 1172.35 0 0 -98.51 75.24 0 336.34 0 0 98.51 144.79 0 0 1512.93 -223.66 0 0 152.43 -411.57 0 0 -152.43 -1016.38 0 0 152.43 -411.57 0 0 -152.43 -221.93 0 0 -1512.93 75.23 0zm1330.98 916.69l-527.31 0 -166.61 0c-9.65,-0.01 -18.46,5.43 -22.8,14.06 -51.32,101.89 -175.53,142.89 -277.43,91.56 -35.58,-17.92 -65.22,-45.74 -85.34,-80.12l178.3 0c14.09,0 25.51,-11.42 25.51,-25.5l0 -153.03c0,-14.09 -11.41,-25.5 -25.5,-25.5l-178.28 0c57.84,-98.45 184.53,-131.37 282.98,-73.52 34.19,20.08 61.87,49.58 79.76,84.96 4.34,8.62 13.15,14.06 22.8,14.06l166.61 0 527.31 0 166.61 0c9.65,0 18.46,-5.44 22.8,-14.06 17.89,-35.38 45.58,-64.88 79.76,-84.96 98.45,-57.85 225.14,-24.93 282.98,73.52l-178.27 0c-14.09,0 -25.51,11.41 -25.51,25.5l0 153.03c0,14.08 11.42,25.5 25.51,25.5l178.3 0c-20.12,34.38 -49.76,62.2 -85.34,80.12 -101.9,51.33 -226.11,10.33 -277.43,-91.56 -4.34,-8.63 -13.15,-14.07 -22.8,-14.06l-166.61 0zm0 -214.52l-527.31 0 -145.73 0c-9.49,-15.38 -20.49,-29.73 -32.78,-42.83 -17.24,-18.36 -37.31,-34.41 -59.67,-47.54 -63.8,-37.48 -136.75,-45.57 -203.08,-28.35 -66.38,17.24 -126.21,59.86 -163.73,123.72l-26.14 92.48 221.27 0 0 81.05 -221.09 0 25.94 92.48c13.12,22.42 29.22,42.59 47.67,59.92 18.66,17.51 39.82,32.36 62.88,43.98 66.18,33.33 139.5,36.72 204.51,15.27 58.37,-19.25 110.17,-58.55 144.27,-114.17l145.68 0 527.31 0 145.68 0c34.1,55.62 85.9,94.92 144.27,114.17 65.01,21.45 138.33,18.06 204.51,-15.27 23.06,-11.62 44.22,-26.47 62.88,-43.98 18.45,-17.33 34.55,-37.5 47.67,-59.92l25.94 -92.48 -221.09 0 0 -81.05 221.28 0 -26.15 -92.48c-37.52,-63.86 -97.35,-106.48 -163.72,-123.72 -66.34,-17.22 -139.29,-9.13 -203.09,28.35 -22.36,13.13 -42.43,29.18 -59.67,47.54 -12.29,13.1 -23.29,27.45 -32.78,42.83l-145.73 0zm-836.08 -467.56l1149.95 2.55 -5.11 264.93 -1149.94 -2.56 5.1 -264.92zm71.3 190.16l2.21 -115.05 1000.04 2.21 -2.22 115.06 -1000.03 -2.22zm-182.24 837.6l1441.94 0 0 175.34 308.73 0 0 -1362.47 -69.56 0 0 114.79 -68.44 0 0 180.25 -274.69 0 0 -180.25 -68.45 0 0 -114.79 -1172.35 0 0 114.79 -68.44 0 0 180.25 -274.69 0 0 -180.25 -68.45 0 0 -114.79 -69.57 0 0 1362.47 308.74 0 0 -175.34 75.23 0zm0 75.24l1366.71 0 0 100.09 -1366.71 0 0 -100.09zm1265.9 183.5l261.11 0 0 69.03 -261.11 0 0 -69.03zm-1427.94 0l261.1 0 0 69.03 -261.1 0 0 -69.03zm-77.12 -1521.1l0 75.23 0 39.55 261.1 0 0 -39.55 0 -75.23 0 -23.28 -261.1 0 0 23.28zm1845.03 75.23l0 -75.23 0 -23.28 -261.1 0 0 23.28 0 75.23 0 39.55 261.1 0 0 -39.55zm-1776.59 105.99l124.23 0 0 113.82 -124.23 0 0 -113.82zm1583.93 0l124.23 0 0 113.82 -124.23 0 0 -113.82z"/>
 </g>
</svg>
