<svg xmlns="http://www.w3.org/2000/svg" xml:space="preserve" width="17.6829mm" height="17.6389mm" version="1.1" style="shape-rendering:geometricPrecision; text-rendering:geometricPrecision; image-rendering:optimizeQuality; fill-rule:evenodd; clip-rule:evenodd"
viewBox="0 0 132.45 132.12"
 xmlns:xlink="http://www.w3.org/1999/xlink"
 xmlns:xodm="http://www.corel.com/coreldraw/odm/2003">
 <g>
  <path d="M123.61 97.59l-0.85 -22.27 4.15 -5.71 -5.04 -9.26 1.01 -3.11 9.51 -4.53 0 -9.22 -9.51 -4.53 -1.01 -3.11 5.04 -9.26 -5.42 -7.45 -10.36 1.93 -2.65 -1.93 -1.37 -10.44 -8.76 -2.85 -7.25 7.65 -3.27 -0 -7.25 -7.65 -8.76 2.85 -0.43 3.26 -30.65 -1.82 -2.07 -2.07 -0.57 -4.63 -8.27 -3.44 -3.68 2.88 -2.99 0 -3.69 -2.88 -8.28 3.43 -0.57 4.63 -2.12 2.12 -4.64 0.57 -3.44 8.28 2.88 3.69 0 2.99 -2.88 3.68 2.74 6.6 -3.05 39.04c-0.07,0.5 -0.11,1 -0.12,1.5l0 0.08 -0.01 0 0 0.17c-0.01,4.48 2.25,8.65 6.01,11.1 3.75,2.44 8.49,2.82 12.58,1.01l13.06 -5.44c-2.12,5.97 0.33,12.61 5.82,15.78l-20.17 6.5c-6.67,1.33 -11.25,7.5 -10.59,14.28 0.66,6.77 6.35,11.94 13.16,11.95l0.12 0 81.26 -4.26 1.24 2.98 7.02 1.44 5.7 -5.53 1.45 -0.48 7.88 1.01 4.76 -5.36 -1.94 -7.7 0.31 -1.5 4.82 -6.31 -2.26 -6.8 -6.58 -1.87zm-35.34 -27.41c12.19,0 22.07,-9.88 22.07,-22.07 0,-12.19 -9.88,-22.07 -22.07,-22.07 -12.19,0 -22.07,9.88 -22.07,22.07 0.01,12.18 9.89,22.05 22.07,22.07zm0 -39.72c9.75,0 17.65,7.9 17.65,17.65 0,9.75 -7.91,17.65 -17.65,17.65 -9.75,0 -17.65,-7.9 -17.65,-17.65 0.01,-9.74 7.91,-17.64 17.65,-17.65zm22.07 68.41c-6.09,0 -11.03,4.94 -11.03,11.03 0,6.09 4.94,11.03 11.03,11.03 6.09,0 11.03,-4.94 11.03,-11.03 -0.01,-6.09 -4.94,-11.03 -11.03,-11.03zm0 17.65c-3.66,0 -6.62,-2.96 -6.62,-6.62 0,-3.66 2.96,-6.62 6.62,-6.62 3.66,0 6.62,2.96 6.62,6.62 0,3.66 -2.96,6.62 -6.62,6.62zm-86.06 2.21c0,2.44 -1.98,4.41 -4.41,4.41 -2.44,0 -4.41,-1.98 -4.41,-4.41 0,-2.44 1.98,-4.41 4.41,-4.41 2.44,0 4.41,1.98 4.41,4.41zm24.27 -30.89c0,2.44 -1.98,4.41 -4.41,4.41 -2.44,0 -4.41,-1.98 -4.41,-4.41 0,-2.44 1.98,-4.41 4.41,-4.41 2.44,0 4.41,1.98 4.41,4.41zm-30.89 -11.03c0,2.44 -1.98,4.41 -4.41,4.41 -2.44,0 -4.41,-1.98 -4.41,-4.41 0,-2.44 1.98,-4.41 4.41,-4.41 2.44,0 4.41,1.98 4.41,4.41zm7.01 -41.2c6.28,0 11.37,-5.09 11.37,-11.37 0,-6.28 -5.09,-11.37 -11.37,-11.37 -6.28,0 -11.37,5.09 -11.37,11.37 0.01,6.28 5.09,11.37 11.37,11.37zm0 -18.33c3.84,0 6.96,3.12 6.96,6.96 0,3.84 -3.12,6.96 -6.96,6.96 -3.84,0 -6.96,-3.12 -6.96,-6.96 0,-3.84 3.12,-6.95 6.96,-6.96zm63.61 44.09c7.31,0 13.24,-5.93 13.24,-13.24 0,-7.31 -5.93,-13.24 -13.24,-13.24 -7.31,0 -13.24,5.93 -13.24,13.24 0.01,7.31 5.93,13.23 13.24,13.24zm0 -22.07c4.87,0 8.83,3.95 8.83,8.83 0,4.87 -3.95,8.83 -8.83,8.83 -4.88,0 -8.83,-3.95 -8.83,-8.83 0,-4.87 3.95,-8.83 8.83,-8.83zm-12.43 -27.24l3.47 -1.13 6.64 7 7.06 0 6.64 -7 3.47 1.13 1.25 9.57 5.71 4.15 9.49 -1.76 2.14 2.95 -4.61 8.48 2.18 6.72 8.71 4.15 0 3.64 -8.71 4.15 -2.18 6.72 4.61 8.48 -2.14 2.95 -9.49 -1.76 -5.71 4.15 -1.25 9.57 -3.47 1.13 -6.64 -7 -7.06 0 -6.64 7 -3.47 -1.13 -1.25 -9.56 -5.72 -4.15 -9.49 1.76 -2.14 -2.95 4.61 -8.47 -2.18 -6.72 -8.71 -4.15 0 -3.64 8.71 -4.15 2.18 -6.72 -4.61 -8.47 2.14 -2.95 9.49 1.76 5.72 -4.16 1.25 -9.57zm-70.32 6.31l1.46 -3.53 3.6 -0.44 4.26 -4.26 0.44 -3.59 3.53 -1.46 2.85 2.23 6.04 0 2.84 -2.22 3.53 1.46 0.44 3.59 4.25 4.26 3.6 0.44 1.46 3.53 -2.23 2.85 0 6.04 2.23 2.85 -1.46 3.53 -3.6 0.44 -4.26 4.26 -0.44 3.59 -3.53 1.46 -2.85 -2.23 -6.02 -0 -2.85 2.23 -3.53 -1.46 -0.44 -3.6 -4.26 -4.29 -3.59 -0.44 -1.46 -3.53 2.23 -2.85 0 -6.02 -2.22 -2.85zm-1.1 58.48l0.03 -0.35c0.45,-4.55 4.47,-7.89 9.02,-7.49 4.55,0.4 7.94,4.39 7.58,8.94 -0.35,4.55 -4.3,7.98 -8.86,7.68 -4.56,-0.3 -8.03,-4.22 -7.77,-8.78zm39.72 2.17c4.87,0 8.83,3.95 8.83,8.83 0,4.87 -3.95,8.83 -8.83,8.83 -4.88,0 -8.83,-3.95 -8.83,-8.83 0,-4.87 3.95,-8.83 8.83,-8.83zm-33.1 39.72c0.01,-3.43 2,-6.54 5.12,-7.98l2.13 -0.69c3.27,-0.58 6.59,0.72 8.59,3.38 2,2.65 2.33,6.2 0.87,9.19 -1.46,2.98 -4.48,4.89 -7.8,4.93l-0.11 0c-4.87,-0.01 -8.8,-3.96 -8.8,-8.83zm19.14 8.28c2.41,-2.98 3.4,-6.86 2.72,-10.63 -0.68,-3.77 -2.96,-7.06 -6.25,-9.01l21.55 -6.93c4.66,-1.45 8.14,-5.35 9.06,-10.14 0.92,-4.79 -0.87,-9.7 -4.65,-12.77 -3.79,-3.08 -8.96,-3.82 -13.46,-1.94l-13.41 5.59c1.94,-5.51 0.03,-11.64 -4.7,-15.07 -4.73,-3.43 -11.14,-3.36 -15.79,0.19l2.21 -28.15 1.07 0.13 2.12 2.12 0.57 4.63 8.28 3.43 3.69 -2.87 2.99 0 3.68 2.87 8.25 -3.42 0.57 -4.63 2.12 -2.12 4.63 -0.57 3.43 -8.27 -2.87 -3.68 0 -3.01 2.87 -3.69 -1.69 -4.1 23.67 1.4 -0.37 2.8 -2.65 1.92 -10.36 -1.93 -5.42 7.45 5.03 9.26 -1.01 3.1 -9.51 4.53 0 9.22 9.51 4.53 1.01 3.11 -5.03 9.26 5.42 7.45 10.36 -1.93 2.65 1.92 1.37 10.45 8.76 2.85 7.25 -7.65 3.27 0 7.25 7.65 8.76 -2.85 1.37 -10.45 2.65 -1.92 7.26 1.35 0.53 13.81 -0.56 -1.35 -7.02 -1.44 -5.71 5.53 -1.45 0.48 -7.88 -1.01 -4.76 5.36 1.94 7.7 -0.31 1.5 -4.82 6.31 2.26 6.8 7.64 2.17 1.15 1.01 0 0.01 -69.24 3.63zm93.34 -16.31l-0.72 3.47 1.62 6.41 -1.66 1.87 -6.56 -0.84 -3.36 1.12 -4.75 4.61 -2.44 -0.5 -2.55 -6.1 -2.65 -2.36 -6.36 -1.81 -0.79 -2.37 4.01 -5.26 0.71 -3.47 -1.62 -6.42 1.66 -1.87 6.56 0.84 3.36 -1.12 4.75 -4.61 2.44 0.5 2.55 6.11 2.65 2.35 6.36 1.81 0.79 2.37 -4.01 5.26z"/>
 </g>
</svg>