<?xml version="1.0" encoding="UTF-8"?>
<!DOCTYPE svg PUBLIC "-//W3C//DTD SVG 1.1//EN" "http://www.w3.org/Graphics/SVG/1.1/DTD/svg11.dtd">
<!-- Creator: CorelDRAW 2020 (64-Bit) -->
<svg xmlns="http://www.w3.org/2000/svg" xml:space="preserve" width="49.9999mm" height="11mm" version="1.1" style="shape-rendering:geometricPrecision; text-rendering:geometricPrecision; image-rendering:optimizeQuality; fill-rule:evenodd; clip-rule:evenodd"
viewBox="0 0 3790.52 833.92"
 xmlns:xlink="http://www.w3.org/1999/xlink"
 xmlns:xodm="http://www.corel.com/coreldraw/odm/2003">
 <defs>
  <style type="text/css">
   <![CDATA[
    .fil0 {fill:#434242;fill-rule:nonzero}
    .fil1 {fill:#FF0011;fill-rule:nonzero}
   ]]>
  </style>
 </defs>
 <g id="Слой_x0020_1">
  <metadata id="CorelCorpID_0Corel-Layer"/>
  <g id="_2832864192576">
   <path class="fil0" d="M3655.5 739.61l0 -232 26.84 0 15.64 0 35.32 0c16.94,0 30.06,4.27 39.21,12.74 9.17,8.46 13.74,20.36 13.74,35.55l0 19.68c0,11.14 -2.96,20.45 -9.08,27.92 -6.03,7.4 -14.49,12.21 -25.55,14.27 12.35,2.14 21.97,7.1 28.68,14.88 6.79,7.85 10.23,18.16 10.23,30.98l0 22.8c0,16.79 -4.88,29.91 -14.58,39.22 -9.69,9.31 -23.34,13.96 -41.12,13.96l-36.84 0 -15.64 0 -26.84 0zm-3585.32 3.36c-22.35,0 -39.66,-6.03 -51.88,-18 -12.21,-11.98 -18.3,-29 -18.3,-51.04l0 -97.96c0,-23.04 6.1,-40.89 18.3,-53.48 12.21,-12.58 29.53,-18.92 51.88,-18.92 22.51,0 39.91,6.34 52.19,19 12.28,12.66 18.39,30.67 18.39,53.86l0 7.64 -41.96 0 0 -7.64c0,-10.52 -2.52,-18.76 -7.4,-24.56 -4.97,-5.8 -11.75,-8.7 -20.61,-8.7 -8.93,0 -15.87,2.83 -20.9,8.62 -4.97,5.72 -7.48,13.81 -7.48,24.18l0 97.96c0,9.39 2.52,16.63 7.48,21.75 5.03,5.18 11.97,7.69 20.9,7.69 8.85,0 15.72,-2.66 20.68,-8.01 5.03,-5.34 7.55,-12.82 7.55,-22.36l0 -7.4 42.19 0 0 7.4c0,22.2 -6.19,39.44 -18.54,51.65 -12.36,12.21 -29.91,18.31 -52.5,18.31zm164.83 0c-22.35,0 -39.66,-6.71 -52.03,-20.14 -12.36,-13.43 -18.54,-32.35 -18.54,-56.77l0 -81.09c0,-25.93 6.03,-46.01 18.08,-60.12 12.05,-14.19 28.99,-21.29 50.73,-21.29 22.2,0 39.37,6.57 51.42,19.68 12.05,13.12 18.08,31.67 18.08,55.7l0 61.19 -97.66 0 0 -35.09 56.99 0 0 -25.25c0,-12.05 -2.52,-21.36 -7.47,-27.92 -5.04,-6.57 -12.13,-9.85 -21.36,-9.85 -8.93,0 -15.87,3.51 -20.75,10.53 -4.95,7.02 -7.41,17.01 -7.41,29.9l0 84.76c0,11.3 2.6,20.14 7.79,26.47 5.26,6.34 12.59,9.46 22.12,9.46 8.85,0 15.65,-2.29 20.53,-7.01 4.81,-4.65 7.24,-11.37 7.24,-19.99l0 -1.6 40.67 0 0 1.6c0,21.14 -5.95,37.61 -17.85,49.28 -11.98,11.67 -28.76,17.54 -50.59,17.54zm123.37 -3.35l0 -191.8 -41.59 0 0 -40.2 41.59 0 42.48 0 41.59 0 0 40.2 -41.59 0 0 191.8 -42.48 0zm154.14 -40.21l27.69 0c8.25,0 14.57,-2.44 19,-7.17 4.5,-4.81 6.72,-11.44 6.72,-20.14l0 -17.39c0,-8.85 -2.21,-15.56 -6.72,-20.37 -4.43,-4.73 -10.75,-7.17 -19,-7.17l-27.69 0 0 72.25zm0 -112.45l35.09 0c19.38,0 34.33,5.42 44.94,16.17 10.53,10.83 15.87,26.09 15.87,45.77l0 28.99c0,19.54 -5.65,34.71 -17.01,45.55 -11.29,10.75 -27.39,16.17 -48.29,16.17l-30.6 0 -20.36 0 -22.13 0 0 -232 42.49 0 0 79.34zm202.68 246.95l0 -326.3 42.49 0 0 27.34c4.33,-8.54 9.63,-15.38 15.95,-20.56 8.92,-7.17 18.54,-10.83 28.99,-10.83 16.71,0 29.52,6.41 38.52,19.23 9.01,12.82 13.51,30.98 13.51,54.55l0 90.56c0,23.8 -4.65,42.26 -14.03,55.39 -9.39,13.12 -22.74,19.68 -40.06,19.68 -10.83,0 -20.37,-3.43 -28.61,-10.37 -6.06,-5.16 -10.82,-11.91 -14.27,-20.23l0 121.55 -42.49 0zm42.49 -255.65l0 88.95 0 0.36 0 0.36c0.06,7.4 1.14,13.8 3.21,19.19 2.21,5.5 5.34,9.7 9.38,12.58 4.13,2.9 9.01,4.35 14.65,4.35 8.54,0 15.18,-3.28 20.07,-9.92 4.81,-6.63 7.24,-15.94 7.24,-27.85l0 -87.2c0,-11.45 -2.43,-20.45 -7.24,-26.94 -4.88,-6.48 -11.52,-9.69 -20.07,-9.69 -5.64,0 -10.52,1.46 -14.65,4.28 -4.04,2.82 -7.17,6.87 -9.38,12.13 -2.07,5.17 -3.15,11.36 -3.21,18.66l0 0.36 0 0.36zm196.19 164.71c-21.2,0 -37.69,-5.87 -49.43,-17.69 -11.76,-11.75 -17.63,-28.31 -17.63,-49.59l0 -105.98c0,-21.13 5.87,-37.46 17.63,-48.9 11.74,-11.52 28.22,-17.25 49.43,-17.25 21.14,0 37.47,5.72 48.91,17.25 11.52,11.44 17.25,27.77 17.25,48.9l0 106.66c0,21.14 -5.73,37.54 -17.25,49.13 -11.44,11.67 -27.77,17.47 -48.91,17.47zm-0.45 -41.35c7.56,0 13.5,-2.37 17.78,-7.02 4.19,-4.72 6.33,-11.36 6.33,-20.06l0 -103c0,-8.39 -2.14,-14.87 -6.33,-19.53 -4.28,-4.74 -10.22,-7.1 -17.78,-7.1 -7.47,0 -13.35,2.36 -17.69,7.1 -4.28,4.65 -6.49,11.14 -6.49,19.53l0 103c0,8.7 2.21,15.34 6.49,20.06 4.34,4.65 10.22,7.02 17.69,7.02zm151.17 41.35c-20.22,0 -35.93,-4.72 -47.07,-14.19 -11.06,-9.46 -16.63,-22.73 -16.63,-39.89l0 -21.45 40.28 0 0 14.73c0,6.86 2.06,12.21 6.26,16.03 4.12,3.73 9.84,5.64 17.16,5.64 7.33,0 13.05,-2.21 17.09,-6.56 4.12,-4.43 6.19,-10.45 6.19,-18.24l0 -24.8c0,-5.94 -1.99,-10.6 -5.8,-13.88 -3.9,-3.28 -9.23,-4.88 -16.1,-4.88l-27.31 0 0 -37.31 27.31 0c5.19,0 9.23,-1.22 12.14,-3.59 2.9,-2.44 4.42,-5.88 4.42,-10.3l0 -22.36c0,-6.11 -1.83,-10.83 -5.5,-14.19 -3.66,-3.36 -8.77,-5.03 -15.33,-5.03 -6.41,0 -11.45,1.68 -15.11,5.11 -3.65,3.43 -5.42,8.23 -5.42,14.34l0 12.51 -40.28 0 0 -17c0,-17.25 5.34,-30.6 15.87,-39.98 10.6,-9.39 25.55,-14.12 44.93,-14.12 19.53,0 34.55,4.73 45.17,14.19 10.6,9.46 15.87,22.89 15.87,40.13l0 29.07c0,5.49 -1.46,10.91 -4.27,16.1 -2.83,5.18 -8.55,9.61 -17.17,13.2 9.39,2.96 16.17,7.09 20.44,12.35 4.2,5.34 6.34,12.36 6.34,21.14l0 34.02c0,18.77 -5.49,33.34 -16.55,43.64 -10.99,10.39 -26.62,15.56 -46.93,15.56zm185.5 -3.35l0 -93.84 -48.52 0 0 93.84 -42.48 0 0 -232 42.48 0 0 97.88 48.52 0 0 -97.88 42.42 0 0 232 -42.42 0zm209.27 -0.23l-39.51 0 0 -139.22 0 0 -60.35 139.22 -34.02 0 0 -231.78 39.6 0 0 139.26 0 0 60.81 -139.26 33.49 0 0 231.78zm124.14 0.23l0 -83.25c-8.35,10.02 -19.76,15.04 -34.27,15.04 -18,0 -32.04,-5.34 -41.96,-16.03 -10,-10.75 -15.03,-25.86 -15.03,-45.4l0 -102.37 42.49 0 0 101.69c0,7.32 2.06,12.97 6.26,17.01 4.19,3.97 10.14,6.03 17.85,6.03 7.94,0 13.96,-2.43 18.23,-7.25 4.28,-4.88 6.41,-11.6 6.41,-20.29l0 -40.44 0.01 0 0 -56.75 42.42 0 0 232 -42.42 0zm166.32 0l0 -93.84 -48.52 0 0 93.84 -42.49 0 0 -232 42.49 0 0 97.88 48.52 0 0 -97.88 42.42 0 0 232 -42.42 0zm225.6 0l0 -232 42.5 0 0 232 -42.5 0zm-107.72 -40.21l22.12 0c8.16,0 14.49,-2.44 19,-7.17 4.5,-4.81 6.72,-11.44 6.72,-20.14l0 -17.39c0,-8.85 -2.21,-15.56 -6.72,-20.37 -4.5,-4.73 -10.83,-7.17 -19,-7.17l-22.12 0 0 72.25zm0 -112.45l29.53 0c19.37,0 34.33,5.42 44.86,16.17 10.61,10.83 15.95,26.09 15.95,45.77l0 28.99c0,19.54 -5.73,34.71 -17.02,45.55 -11.36,10.75 -27.46,16.17 -48.29,16.17l-25.03 0 -17.01 0 -25.48 0 0 -232 42.49 0 0 79.34zm287.57 152.66l-37.73 -75.28 -35.58 75.28 -46.46 0 62.07 -115.1 -58.55 -116.9 46.76 0 33.02 77.55 32.66 -77.55 46.68 0 -61.22 116.23 64.82 115.77 -46.47 0zm269.26 -112.01l35.33 -120 40.89 0 0 232 -38 0 0 -142.21 0 0 -24.57 80.1 -27.23 0 -24.65 -79.71 0 141.81 -37.99 0 0 -232 40.89 0 35.32 120zm154.93 115.35c-18.91,0 -33.19,-5.41 -42.8,-16.17 -9.62,-10.83 -14.43,-27.09 -14.43,-48.91 0,-26.01 6.03,-45.55 18,-58.43 11.99,-12.9 29.91,-19.3 53.79,-19.3l27.7 0 0 -30.22c0,-9.38 -2.52,-16.63 -7.48,-21.74 -5.03,-5.19 -11.97,-7.7 -20.9,-7.7 -7.79,0 -13.89,2.52 -18.32,7.7 -4.5,5.11 -6.71,12.36 -6.71,21.74l-41.35 0c0,-21.13 5.87,-37.46 17.62,-49.06 11.82,-11.52 28.38,-17.32 49.89,-17.32 21.74,0 38.6,5.8 50.59,17.32 11.98,11.6 18,27.93 18,49.06l0 169.68 -41.35 0 0 -21.46 -0.77 1.78c-3.51,7.78 -8.7,13.49 -15.65,17.32 -6.94,3.81 -15.56,5.72 -25.86,5.72zm42.27 -104.82l-27.47 0c-10.45,0 -18.31,3.28 -23.49,9.92 -5.19,6.64 -7.79,16.63 -7.79,29.83 0,9.16 2.22,15.87 6.79,20.37 4.5,4.5 11.37,6.72 20.45,6.72 10.61,0 18.47,-2.98 23.65,-8.85 5.19,-5.78 7.79,-14.45 7.87,-25.91l0 -0.55 0 -31.51zm74.23 101.47l0 -232 25.93 0 16.56 0 65.68 0 0 40.2 -65.68 0 0 191.8 -42.49 0zm220.49 0l0 -21.46 -0.76 1.78c-3.51,7.78 -8.7,13.49 -15.65,17.32 -6.94,3.81 -15.56,5.72 -25.86,5.72 -18.92,0 -33.19,-5.41 -42.8,-16.17 -9.62,-10.83 -14.43,-27.09 -14.43,-48.91 0,-26.01 6.03,-45.55 18,-58.43 11.98,-12.9 29.91,-19.3 53.79,-19.3l27.69 0 0 -30.22c0,-9.38 -2.52,-16.63 -7.48,-21.74 -5.03,-5.19 -11.97,-7.7 -20.89,-7.7 -7.79,0 -13.89,2.52 -18.32,7.7 -4.5,5.11 -6.71,12.36 -6.71,21.74l-41.35 0c0,-21.13 5.88,-37.46 17.62,-49.06 11.83,-11.52 28.39,-17.32 49.9,-17.32 21.74,0 38.6,5.8 50.58,17.32 11.99,11.6 18.01,27.93 18.01,49.06l0 169.68 -41.35 0zm0 -69.96l0 -31.51 -27.47 0c-10.45,0 -18.31,3.28 -23.5,9.92 -5.19,6.64 -7.78,16.63 -7.78,29.83 0,9.16 2.21,15.87 6.79,20.37 4.5,4.5 11.36,6.72 20.44,6.72 10.61,0 18.48,-2.98 23.65,-8.85 5.19,-5.78 7.79,-14.45 7.86,-25.91l0 -0.55zm130.42 73.31c-20.22,0 -35.93,-4.72 -47.06,-14.19 -11.06,-9.46 -16.63,-22.73 -16.63,-39.89l0 -21.45 40.27 0 0 14.73c0,6.86 2.06,12.21 6.26,16.03 4.12,3.73 9.83,5.64 17.16,5.64 7.32,0 13.04,-2.21 17.09,-6.56 4.12,-4.43 6.18,-10.45 6.18,-18.24l0 -24.8c0,-5.94 -1.98,-10.6 -5.8,-13.88 -3.89,-3.28 -9.23,-4.88 -16.09,-4.88l-27.31 0 0 -37.31 27.31 0c5.19,0 9.23,-1.21 12.13,-3.58 2.9,-2.45 4.42,-5.88 4.42,-10.3l0 -22.35c0,-6.11 -1.83,-10.83 -5.49,-14.19 -3.66,-3.36 -8.77,-5.03 -15.34,-5.03 -6.41,0 -11.45,1.68 -15.11,5.11 -3.65,3.43 -5.41,8.23 -5.41,14.34l0 12.51 -40.27 0 0 -17.01c0,-17.24 5.34,-30.59 15.87,-39.97 10.59,-9.39 25.55,-14.12 44.93,-14.12 19.54,0 34.56,4.73 45.17,14.19 10.6,9.46 15.87,22.89 15.87,40.13l0 29.07c0,5.49 -1.46,10.91 -4.28,16.09 -2.83,5.19 -8.54,9.61 -17.17,13.2 9.39,2.96 16.17,7.1 20.45,12.36 4.2,5.34 6.34,12.36 6.34,21.14l0 34.02c0,18.77 -5.5,33.34 -16.56,43.64 -10.99,10.39 -26.62,15.56 -46.92,15.56zm220.26 -3.58l-39.52 0 0 -139.22 0 0 -60.35 139.22 -34.02 0 0 -231.78 39.6 0 0 139.26 0 0 60.8 -139.26 33.49 0 0 231.78zm115.78 0.23l0 -93.84 -48.52 0 0 93.84 -42.49 0 0 -232 42.49 0 0 97.88 48.52 0 0 -97.88 42.42 0 0 232 -42.42 0zm138.03 3.35c-21.21,0 -37.69,-5.87 -49.44,-17.69 -11.75,-11.75 -17.63,-28.31 -17.63,-49.59l0 -105.98c0,-21.13 5.88,-37.46 17.63,-48.9 11.74,-11.52 28.22,-17.25 49.44,-17.25 21.13,0 37.46,5.72 48.91,17.25 11.52,11.44 17.24,27.77 17.24,48.9l0 106.66c0,21.14 -5.72,37.54 -17.24,49.13 -11.45,11.67 -27.78,17.47 -48.91,17.47zm-0.45 -41.35c7.55,0 13.49,-2.37 17.77,-7.02 4.2,-4.73 6.34,-11.36 6.34,-20.06l0 -103c0,-8.38 -2.14,-14.87 -6.34,-19.52 -4.28,-4.74 -10.22,-7.1 -17.77,-7.1 -7.48,0 -13.36,2.37 -17.7,7.1 -4.27,4.65 -6.49,11.14 -6.49,19.52l0 103c0,8.7 2.22,15.33 6.49,20.06 4.34,4.65 10.22,7.02 17.7,7.02zm137.47 -153.8l0 49.44 24.34 0c14.34,0 21.43,-7.25 21.43,-21.67l0 -12.74c0,-9.99 -5.49,-15.03 -16.47,-15.03l-29.29 0zm0 89.65l0 61.94 33.26 0c5.56,0 9.7,-1.68 12.51,-5.03 2.9,-3.35 4.28,-8.23 4.28,-14.65l0 -16.78c0,-8.01 -2.29,-14.27 -6.94,-18.77 -4.57,-4.5 -10.83,-6.71 -18.76,-6.71l-24.34 0z"/>
   <path class="fil1" d="M3603.97 427.65l0 -46.52c-31.32,-4.67 -56.78,-15.97 -76.39,-33.84 -26.4,-24.17 -39.6,-58.34 -39.6,-102.5l0 -61.92c0,-44.27 13.2,-78.43 39.79,-102.6 19.58,-17.86 44.99,-29.07 76.2,-33.73l0 -46.54 70.47 0 0 46.52c31.36,4.63 56.85,15.87 76.39,33.75 26.5,24.17 39.69,58.34 39.69,102.6l0 61.92c0,44.16 -13.2,78.33 -39.69,102.5 -19.54,17.88 -45.02,29.18 -76.39,33.84l0 46.52 -70.47 0zm-3603.97 0l98.61 -413.47 49.5 0 98.71 413.47 -69.99 0 -12.68 -64.26 -81.6 0 -12.68 64.26 -69.87 0zm151.14 -130.25l-27.78 -140.74 -27.78 140.74 55.55 0zm197.12 63.96l31.54 0c8.73,0 15.53,-2.33 20.39,-6.9 4.85,-4.66 7.28,-11.16 7.28,-19.51l0 -55.41c0,-10.3 -2.52,-18.25 -7.47,-23.88 -4.85,-5.72 -12.03,-8.54 -21.26,-8.54l-30.47 0 0 114.24zm0 -179.66l28.72 0c8.35,0 14.85,-2.72 19.51,-7.96 4.66,-5.34 7,-12.91 7,-22.81l0 -44.36c0,-8.35 -2.33,-14.75 -7,-19.41 -4.65,-4.66 -11.06,-7 -19.21,-7l-29.02 0 0 101.53zm0 -167.53l36.1 0c28.05,0 49.79,7.47 65.33,22.33 15.42,14.94 23.09,35.91 23.09,62.99l0 44.36c0,18.83 -5.24,34.16 -15.72,46.2 -10.58,12.04 -25.34,19.7 -44.55,22.9 20.87,2.82 37.08,10.49 48.53,23.01 11.45,12.52 17.17,28.92 17.17,49.21l0 56.29c0,27.38 -7.67,48.53 -22.9,63.58 -15.24,15.04 -36.78,22.61 -64.64,22.61l-72.8 0 0 -0.01 -40.38 0 0 -413.47 40.38 0 30.38 0zm213.33 413.47l0 -345.83 -68.23 0 0 -67.65 207.04 0 0 67.65 -68.34 0 0 345.83 -70.47 0zm266.74 4.27c-22.23,0 -41.26,-3.88 -57.07,-11.55 -15.83,-7.66 -27.86,-18.73 -36.21,-33.19 -8.35,-14.56 -12.52,-32.03 -12.52,-52.51l0 -227.51c0,-20.67 4.18,-38.25 12.52,-52.7 8.35,-14.56 20.38,-25.53 36.21,-33.2 15.81,-7.57 34.84,-11.35 57.07,-11.35 22.13,0 41.16,3.78 56.97,11.35 15.82,7.67 27.95,18.64 36.3,33.2 8.25,14.46 12.43,32.03 12.43,52.7l0 227.51c0,20.48 -4.18,37.95 -12.43,52.51 -8.35,14.46 -20.48,25.53 -36.3,33.19 -15.81,7.67 -34.84,11.55 -56.97,11.55zm0 -70.56c10.96,0 19.41,-3.01 25.43,-9.23 5.92,-6.12 8.93,-15.04 8.93,-26.59l0 -209.84c0,-11.17 -2.91,-19.9 -8.83,-26.11 -5.82,-6.32 -14.37,-9.42 -25.53,-9.42 -10.87,0 -19.22,3.11 -25.24,9.42 -5.92,6.21 -8.93,14.94 -8.93,26.11l0 209.84c0,11.55 3.01,20.48 8.93,26.59 6.02,6.22 14.37,9.23 25.24,9.23zm286.9 -122.49l70.28 -224.69 65.9 0 0 413.47 -62.8 0 0 -288.66 4.28 18.25 -59.99 197.33 -35.32 0 -59.99 -191.69 5.73 -23.88 0 288.66 -64.26 0 0 -413.47 67.66 0 68.52 224.69zm161.32 188.78l98.61 -413.47 49.49 0 98.71 413.47 -69.98 0 -12.68 -64.26 -81.59 0 -12.68 64.26 -69.87 0zm151.13 -130.25l-27.78 -140.74 -27.77 140.74 55.55 0zm196.83 -97.84l35.62 0c8.64,0 15.53,-2.92 20.39,-8.93 4.95,-5.92 7.47,-14.27 7.47,-24.85l0 -48.62c0,-11.17 -2.43,-19.9 -7.19,-26.01 -4.66,-6.22 -11.64,-9.23 -20.67,-9.32l-35.62 0 0 117.74zm-37.47 -185.37l0 -0.02 75.03 0c20.48,0 37.95,3.59 52.51,10.87 14.46,7.18 25.52,17.66 33.19,31.54 7.67,13.77 11.55,30.57 11.55,50.28l0 69.68c0,19.13 -3.88,35.53 -11.65,49.02 -7.76,13.59 -18.82,23.97 -33.29,31.06 -14.37,7.08 -31.84,10.67 -52.32,10.67l-37.56 0 0 160.36 -70.47 0 0 -413.47 33 0zm320.62 174.3l35.54 -174.31 72.5 0 -49.12 200.81 66.5 212.66 -74.54 0 -51.91 -171.52 -36.52 0 0 171.52 -70.47 0 0 -413.47 70.47 0 0 174.3 37.55 0zm150.46 239.17l0 -413.47 31.25 0 0 -0.02 152.39 0 0 68.81 -113.17 0 0 104.92 99 0 0 68.53 -99 0 0 102.4 113.17 0 0 68.81 -113.17 0 -39.22 0 -31.25 0zm282.64 -0.01l0 -345.83 -68.23 0 0 -67.65 207.02 0 0 67.65 -68.33 0 0 345.83 -70.47 0zm163.74 -181.99l151.8 0 0 67.65 -151.8 0 0 -67.65zm331.66 181.99l0 -170.63 -55.81 0 0 170.63 -70.47 0 0 -413.47 70.47 0 0 176.65 55.81 0 0 -176.65 70.47 0 0 413.47 -70.47 0zm177.78 0l0 -345.83 -68.24 0 0 -67.65 207.04 0 0 67.65 -68.34 0 0 345.83 -70.47 0zm126.85 0l0 -70.56 70.47 0 0 70.56 -70.47 0zm180.23 -228.1l35.62 0c8.64,0 15.53,-2.92 20.39,-8.93 4.95,-5.92 7.47,-14.27 7.47,-24.85l0 -48.62c0,-11.17 -2.43,-19.9 -7.18,-26.01 -4.66,-6.22 -11.65,-9.23 -20.68,-9.32l-35.62 0 0 117.74zm-37.47 -185.37l0 -0.02 75.03 0c20.48,0 37.95,3.59 52.51,10.87 14.46,7.18 25.53,17.66 33.19,31.54 7.67,13.77 11.55,30.57 11.55,50.28l0 69.68c0,19.13 -3.88,35.53 -11.65,49.02 -7.76,13.59 -18.82,23.97 -33.29,31.06 -14.37,7.08 -31.83,10.67 -52.32,10.67l-37.56 0 0 160.36 -70.47 0 0 -413.47 33 0zm320.41 294.3l0 -189.42c-9.55,2.99 -17.72,7.37 -24.46,13.13 -14.08,11.94 -21.07,28.83 -21.07,50.67l0 61.92c0,21.84 7.09,38.72 21.16,50.66 6.8,5.73 14.91,10.08 24.37,13.03zm70.47 -189.47l0 189.58c9.53,-2.96 17.69,-7.35 24.46,-13.14 14.07,-11.94 21.05,-28.82 21.05,-50.66l0 -61.92c0,-21.84 -6.98,-38.73 -21.05,-50.67 -6.78,-5.79 -14.93,-10.19 -24.46,-13.18z"/>
  </g>
 </g>
</svg>
