<svg width="24" height="24" viewBox="0 0 24 24" fill="none" xmlns="http://www.w3.org/2000/svg">
<path fill-rule="evenodd" clip-rule="evenodd" d="M16.256 18.5188C16.4706 18.6708 16.7473 18.7088 16.994 18.6155C17.2406 18.5215 17.422 18.3108 17.4766 18.0555C18.0559 15.3329 19.4612 8.4417 19.9886 5.96509C20.0286 5.77843 19.9619 5.58443 19.8152 5.45977C19.6686 5.33511 19.4652 5.29911 19.2839 5.36644C16.4886 6.40108 7.88018 9.63101 4.36159 10.933C4.13826 11.0156 3.99293 11.2303 4.00027 11.4656C4.00827 11.7016 4.16693 11.9063 4.39559 11.975C5.97355 12.4469 8.04484 13.1036 8.04484 13.1036C8.04484 13.1036 9.01282 16.0269 9.51747 17.5135C9.5808 17.7002 9.7268 17.8468 9.91946 17.8975C10.1115 17.9475 10.3168 17.8948 10.4601 17.7595C11.2708 16.9942 12.5241 15.8109 12.5241 15.8109C12.5241 15.8109 14.9054 17.5568 16.256 18.5188ZM8.91615 12.7343L10.0355 16.4262L10.2841 14.0882C10.2841 14.0882 14.6087 10.1877 17.074 7.96438C17.146 7.89905 17.156 7.78972 17.096 7.71305C17.0366 7.63639 16.9273 7.61839 16.8453 7.67039C13.988 9.49501 8.91615 12.7343 8.91615 12.7343Z" fill="#24A1DE"/>
</svg>
