<svg width="24" height="24" viewBox="0 0 24 24" fill="none" xmlns="http://www.w3.org/2000/svg">
<path fill-rule="evenodd" clip-rule="evenodd" d="M12.5947 13.1634C12.5947 13.1634 12.8794 13.1887 13.032 12.9987L13.3307 12.6234C13.4747 12.4367 13.8227 12.318 14.1633 12.5074C14.614 12.762 15.1967 13.162 15.596 13.5347C15.816 13.72 15.8673 13.9933 15.7173 14.282L15.716 14.288C15.5613 14.56 15.3553 14.8153 15.0947 15.0533L15.0887 15.0573C14.7953 15.302 14.458 15.444 14.0973 15.3266L14.0907 15.3173C13.4427 15.134 11.8881 14.3413 10.8974 13.5513C9.27676 12.2727 8.12478 10.1634 7.80611 9.03275L7.79611 9.02608C7.67878 8.66409 7.82211 8.32676 8.06544 8.0341L8.07011 8.02877C8.30811 7.7681 8.56277 7.56144 8.83543 7.40744L8.84143 7.40611C9.12943 7.25611 9.40276 7.30678 9.58875 7.52744C9.83342 7.7801 10.2927 8.38809 10.6154 8.96008C10.8047 9.30008 10.6861 9.64874 10.5001 9.79207L10.1241 10.0907C9.93475 10.2441 9.95941 10.5287 9.95941 10.5287C9.95941 10.5287 10.5154 12.6327 12.5947 13.1634ZM15.866 11.4194C15.7547 11.4194 15.664 11.3294 15.6633 11.218C15.654 9.99807 15.2873 9.02608 14.574 8.33009C13.8594 7.63344 12.956 7.27611 11.8894 7.26878C11.7774 7.26811 11.6874 7.17678 11.6887 7.06478C11.6894 6.95345 11.7794 6.86412 11.8907 6.86412H11.8921C13.0667 6.87212 14.064 7.26811 14.8567 8.0401C15.65 8.81475 16.058 9.8834 16.068 11.2154C16.0687 11.3267 15.9793 11.418 15.8673 11.4194H15.866ZM14.8027 11.0034H14.798C14.686 11.0007 14.5973 10.9081 14.6 10.7967C14.616 10.1047 14.418 9.54474 13.996 9.08408C13.576 8.62476 12.9994 8.37409 12.2327 8.31809C12.1214 8.30943 12.0374 8.21276 12.0454 8.10143C12.054 7.9901 12.1507 7.9061 12.262 7.9141C13.1247 7.97743 13.8087 8.27943 14.2947 8.81075C14.7833 9.34408 15.0227 10.0154 15.0047 10.8054C15.002 10.9154 14.912 11.0034 14.8027 11.0034ZM13.764 10.6554C13.6567 10.6554 13.5674 10.5714 13.562 10.4627C13.528 9.77607 13.204 9.44008 12.544 9.40408C12.432 9.39808 12.3467 9.30275 12.3527 9.19141C12.3587 9.07942 12.4534 8.99408 12.5654 9.00008C13.4374 9.04675 13.9214 9.54607 13.966 10.4427C13.972 10.5541 13.886 10.6494 13.774 10.6547L13.764 10.6554ZM18.3086 12.968C17.9053 16.2193 15.5273 16.4246 15.0887 16.5653C14.902 16.6253 13.1674 17.0566 10.9874 16.9146C10.9874 16.9146 9.36209 18.8746 8.85476 19.3846C8.77543 19.4639 8.68277 19.4959 8.6201 19.4813C8.53277 19.4599 8.50877 19.3559 8.5101 19.2053L8.52344 16.528C5.34882 15.646 5.53348 12.3307 5.56948 10.5954C5.60548 8.86009 5.93148 7.43811 6.90013 6.48212C8.6401 4.90615 12.2247 5.14148 12.2247 5.14148C15.252 5.15481 16.7026 6.06613 17.0393 6.37146C18.156 7.32744 18.7246 9.61607 18.3086 12.968ZM17.874 5.55947C17.476 5.19414 15.8693 4.02749 12.2907 4.0115C12.2907 4.0115 8.07078 3.75683 6.01348 5.6448C4.86816 6.79012 4.4655 8.46543 4.42283 10.5434C4.38083 12.622 4.3255 16.5153 8.07878 17.5713L8.08278 17.5726L8.08011 19.1833C8.08011 19.1833 8.05678 19.8359 8.4861 19.9692C9.00543 20.1299 9.31009 19.6346 9.80675 19.0999C10.0787 18.8066 10.4541 18.3759 10.7381 18.0466C13.3054 18.2613 15.2793 17.7686 15.504 17.6959C16.022 17.5273 18.9553 17.152 19.4326 13.258C19.9246 9.24341 19.1939 6.70479 17.874 5.55947Z" fill="#665cac"/>
</svg>
