<svg width="24" height="24" viewBox="0 0 24 24" fill="none" xmlns="http://www.w3.org/2000/svg">
<path d="M4.03809 20L5.16275 15.8913C4.46875 14.6887 4.10409 13.3253 4.10475 11.9273C4.10675 7.55667 7.66342 4 12.0334 4C14.1541 4.00067 16.1448 4.82667 17.6421 6.32533C19.1388 7.824 19.9628 9.816 19.9621 11.9347C19.9601 16.306 16.4034 19.8627 12.0334 19.8627C10.7068 19.862 9.39942 19.5293 8.24142 18.8973L4.03809 20ZM8.43609 17.462C9.55342 18.1253 10.6201 18.5227 12.0308 18.5233C15.6628 18.5233 18.6214 15.5673 18.6234 11.9333C18.6248 8.292 15.6801 5.34 12.0361 5.33867C8.40142 5.33867 5.44475 8.29467 5.44342 11.928C5.44275 13.4113 5.87742 14.522 6.60742 15.684L5.94142 18.116L8.43609 17.462ZM16.0274 13.8193C15.9781 13.7367 15.8461 13.6873 15.6474 13.588C15.4494 13.4887 14.4754 13.0093 14.2934 12.9433C14.1121 12.8773 13.9801 12.844 13.8474 13.0427C13.7154 13.2407 13.3354 13.6873 13.2201 13.8193C13.1048 13.9513 12.9888 13.968 12.7908 13.8687C12.5928 13.7693 11.9541 13.5607 11.1974 12.8853C10.6088 12.36 10.2108 11.7113 10.0954 11.5127C9.98009 11.3147 10.0834 11.2073 10.1821 11.1087C10.2714 11.02 10.3801 10.8773 10.4794 10.7613C10.5801 10.6467 10.6128 10.564 10.6794 10.4313C10.7454 10.2993 10.7128 10.1833 10.6628 10.084C10.6128 9.98533 10.2168 9.01 10.0521 8.61333C9.89075 8.22733 9.72742 8.27933 9.60609 8.27333L9.22609 8.26667C9.09409 8.26667 8.87942 8.316 8.69809 8.51467C8.51675 8.71333 8.00475 9.192 8.00475 10.1673C8.00475 11.1427 8.71475 12.0847 8.81342 12.2167C8.91275 12.3487 10.2101 14.35 12.1974 15.208C12.6701 15.412 13.0394 15.534 13.3268 15.6253C13.8014 15.776 14.2334 15.7547 14.5748 15.704C14.9554 15.6473 15.7468 15.2247 15.9121 14.762C16.0774 14.2987 16.0774 13.902 16.0274 13.8193Z" fill="#128C7E"/>
</svg>
