<?xml version="1.0" encoding="UTF-8"?>
<!DOCTYPE svg PUBLIC "-//W3C//DTD SVG 1.1//EN" "http://www.w3.org/Graphics/SVG/1.1/DTD/svg11.dtd">
<!-- Creator: CorelDRAW 2020 (64-Bit) -->
<svg xmlns="http://www.w3.org/2000/svg" xml:space="preserve" width="47.625mm" height="15.3812mm" version="1.1" style="shape-rendering:geometricPrecision; text-rendering:geometricPrecision; image-rendering:optimizeQuality; fill-rule:evenodd; clip-rule:evenodd"
viewBox="0 0 4714.06 1522.47"
 xmlns:xlink="http://www.w3.org/1999/xlink"
 xmlns:xodm="http://www.corel.com/coreldraw/odm/2003">
 <defs>
  <style type="text/css">
   <![CDATA[
    .fil5 {fill:#1A1A1A}
    .fil4 {fill:#0073FA}
    .fil2 {fill:#82D714}
    .fil1 {fill:#FFB919}
    .fil3 {fill:white}
    .fil0 {fill:#19AA1E;fill-rule:nonzero}
   ]]>
  </style>
 </defs>
 <g id="Слой_x0020_1">
  <metadata id="CorelCorpID_0Corel-Layer"/>
  <g id="_2013271014256">
   <g>
    <path class="fil0" d="M1027.71 1522.46l16.43 0 100.06 -0.78c33.59,-0.89 67.48,-2.86 100.71,-8.76 33.72,-5.98 65.09,-15.77 95.72,-31.19 30.08,-15.13 57.66,-34.95 81.54,-58.56 23.88,-23.61 43.89,-50.84 59.2,-80.58 15.63,-30.3 25.5,-61.33 31.56,-94.69 5.97,-32.8 7.96,-66.34 8.86,-99.52 0.43,-15.24 0.6,-30.49 0.68,-45.72 0.08,-11.91 0.1,-23.8 0.11,-35.67l0 -18.67 -0.01 -601.47 -0.1 -27.14c-0.08,-15.26 -0.26,-30.51 -0.68,-45.75 -0.9,-33.22 -2.89,-66.71 -8.86,-99.56 -6.06,-33.34 -15.93,-64.35 -31.56,-94.66 -15.31,-29.76 -35.32,-56.99 -59.2,-80.58 -23.88,-23.64 -51.46,-43.41 -81.54,-58.55 -30.63,-15.42 -61.99,-25.21 -95.72,-31.2 -33.23,-5.89 -67.11,-7.86 -100.71,-8.75 -6.39,-0.18 -12.78,-0.31 -23.05,-0.41l-677.64 -0.27 -65.12 0.67c-33.59,0.89 -67.48,2.86 -100.7,8.75 -33.73,5.99 -65.09,15.78 -95.72,31.2 -30.12,15.13 -57.67,34.91 -81.55,58.55 -23.87,23.59 -43.89,50.82 -59.22,80.58 -15.6,30.31 -25.48,61.32 -31.56,94.66 -5.97,32.84 -7.94,66.34 -8.84,99.56 -0.43,15.24 -0.61,30.49 -0.69,45.75 -0.08,12.14 -0.11,24.31 -0.12,36.48l0 17.83 0.01 601.47 0.11 27.18c0.08,15.23 0.27,30.48 0.69,45.72 0.9,33.18 2.87,66.71 8.84,99.52 6.08,33.36 15.96,64.39 31.56,94.69 15.33,29.74 35.35,56.97 59.22,80.58 23.88,23.61 51.43,43.42 81.55,58.56 30.63,15.42 61.98,25.21 95.72,31.19 33.22,5.9 67.1,7.87 100.7,8.76 6.38,0.18 12.76,0.3 23.03,0.41l626.28 0.38z"/>
    <path class="fil1" d="M1522.56 499.48l-1510.76 -236.06c6.18,-29.21 15.52,-56.71 29.4,-83.66 15.33,-29.76 35.35,-56.99 59.22,-80.58 23.88,-23.64 51.43,-43.41 81.55,-58.55 30.63,-15.42 61.98,-25.21 95.72,-31.2 33.22,-5.89 67.1,-7.86 100.7,-8.75l65.12 -0.67 677.64 0.27c10.27,0.1 16.66,0.23 23.05,0.41 33.59,0.89 67.48,2.86 100.71,8.75 33.72,5.99 65.09,15.78 95.72,31.2 30.08,15.13 57.66,34.91 81.54,58.55 23.88,23.59 43.89,50.82 59.2,80.58 15.63,30.31 25.5,61.32 31.56,94.66 5.97,32.84 7.96,66.34 8.86,99.56 0.43,15.24 0.6,30.49 0.68,45.75l0.1 27.14 0 52.62z"/>
    <path class="fil2" d="M44.58 1348.97l1477.76 -230.9c-0.12,10.11 -0.28,20.21 -0.56,30.32 -0.9,33.18 -2.89,66.71 -8.86,99.52 -6.06,33.36 -15.93,64.39 -31.56,94.69 -15.31,29.74 -35.32,56.97 -59.2,80.58 -23.88,23.61 -51.46,43.42 -81.54,58.56 -30.63,15.42 -61.99,25.21 -95.72,31.19 -33.23,5.9 -67.11,7.87 -100.71,8.76l-101.21 0.79 -641.57 -0.39c-10.27,-0.11 -16.65,-0.23 -23.03,-0.41 -33.59,-0.89 -67.48,-2.86 -100.7,-8.76 -33.73,-5.98 -65.09,-15.77 -95.72,-31.19 -30.12,-15.13 -57.67,-34.95 -81.55,-58.56 -22.16,-21.9 -40.99,-46.94 -55.85,-74.21z"/>
    <path class="fil3" d="M19.17 234.47l512.3 80.06c66.16,-41.89 144.86,-64.84 229.81,-64.84 117.68,0 223.35,44.04 300.3,121.39 9.71,9.76 18.88,19.96 27.47,30.57l433.52 67.73 0 60.2 -389.5 -60.85c28.93,55.53 44.54,117.4 44.54,180.54 0,81.57 -18.24,162.91 -55.95,244.56l-1.15 2.47 -16.03 34.33 -37.87 0c-78.22,0 -130.1,23.4 -164.02,64.86 -26.64,32.56 -42.04,76.44 -47.21,124.33l-0.16 1.49 -0.76 7.65 -0.32 3.33 -0.61 6.51c-1.99,21.38 -3.31,39.51 -3.99,54.29l673 -105.16 -0.07 14.73c-0.08,15.18 -0.26,30.39 -0.68,45.59l-1460.37 228.18c-7.42,-10.84 -14.17,-22.15 -20.2,-33.84 -3.69,-7.16 -7.05,-14.36 -10.13,-21.62l642.72 -100.43 -0.3 -13.51 -0.09 -3.81 -0.06 -1.96 -0.1 -3.01c-0.61,-16.39 -2.11,-37.4 -4.51,-62.85l-0.47 -4.82 -0.82 -8.36c-4.83,-48.15 -20.01,-92.59 -46.57,-125.63 -33.57,-41.74 -84.98,-65.48 -162.56,-65.96l-2.36 0 -37.88 0 -16.02 -34.33c-38.49,-82.49 -57.11,-164.64 -57.11,-247.03 0,-103.63 42.03,-203.82 116.03,-278.19 2.14,-2.15 4.3,-4.27 6.47,-6.36l-460.74 -71.98c0.84,-6.13 1.82,-12.23 2.93,-18.32 2.49,-13.67 5.62,-26.93 9.52,-39.94z"/>
    <path class="fil4" d="M761.28 309.15c212.58,0 356.86,163.62 356.86,340.11 0,70.85 -15.45,144.58 -51.53,221.88 -209.16,0 -260.79,149.79 -270.56,244.04l-0.62 6.28c-3.31,33.64 -5.22,60.64 -5.74,80.98l-56.66 8.85 -0.02 -1.83c-0.21,-21.32 -2.23,-51.24 -6.04,-89.76l-0.17 -1.67c-9.02,-94.05 -59.57,-246.88 -270.84,-246.88 -36.08,-77.3 -51.53,-151.03 -51.53,-221.88 0,-176.5 144.29,-340.11 356.84,-340.11z"/>
   </g>
   <path class="fil5" d="M2226.78 368.63c-185.57,0 -324.74,113 -323.56,309.28l172.49 0c-2.39,-78.51 47.57,-154.64 151.07,-154.64 78.5,0 128.46,52.33 128.46,118.95 0,69 -54.71,107.06 -142.74,149.89 -115.37,55.9 -184.38,82.07 -309.27,123.7l0 226.01 642.34 0 0 -154.64 -409.2 0c59.62,-24.84 117.67,-52.13 170.1,-77.32 139.17,-66.61 221.25,-141.55 221.25,-275.96 0,-161.78 -121.32,-265.26 -300.94,-265.26zm580.48 166.54l333.07 0 0 -154.64 -499.61 0 0 761.29 166.54 0 0 -606.65zm594.76 -154.64l-166.54 0 0 761.29 165.35 0 310.46 -486.51 0 486.51 166.54 0 0 -761.29 -166.54 0 -309.27 486.51 0 -486.51zm1312.04 475.8l-172.48 0c-26.17,84.46 -105.87,142.74 -199.85,142.74 -136.78,0 -226,-117.76 -226,-237.9 0,-120.15 86.83,-237.91 230.76,-237.91 95.16,0 168.91,58.28 195.09,142.74l172.48 0c-24.98,-170.1 -159.4,-297.38 -372.32,-297.38 -235.52,0 -392.54,165.34 -392.54,392.55 0,227.2 157.02,392.54 392.54,392.54 212.92,0 347.34,-124.9 372.32,-297.38z"/>
  </g>
 </g>
</svg>
