<?xml version="1.0" encoding="UTF-8"?>
<!DOCTYPE svg PUBLIC "-//W3C//DTD SVG 1.1//EN" "http://www.w3.org/Graphics/SVG/1.1/DTD/svg11.dtd">
<!-- Creator: CorelDRAW 2020 (64-Bit) -->
<svg xmlns="http://www.w3.org/2000/svg" xml:space="preserve" width="63.5mm" height="14.766mm" version="1.1" style="shape-rendering:geometricPrecision; text-rendering:geometricPrecision; image-rendering:optimizeQuality; fill-rule:evenodd; clip-rule:evenodd"
viewBox="0 0 6314.91 1468.44"
 xmlns:xlink="http://www.w3.org/1999/xlink"
 xmlns:xodm="http://www.corel.com/coreldraw/odm/2003">
 <defs>
  <style type="text/css">
   <![CDATA[
    .fil0 {fill:#E43225;fill-rule:nonzero}
    .fil1 {fill:#F7971D;fill-rule:nonzero}
   ]]>
  </style>
 </defs>
 <g id="Слой_x0020_1">
  <metadata id="CorelCorpID_0Corel-Layer"/>
  <g id="_2013168696032">
   <g id="layer1">
    <g id="g43">
     <g id="g32">
      <polygon id="path12" class="fil0" points="1575.82,1094.08 1575.82,121.88 2150.43,121.88 2150.43,243.77 1694.81,243.77 1694.81,542.68 2104,542.68 2104,664.57 1694.81,664.57 1694.81,969.28 2182.36,969.28 2182.36,1091.18 1575.82,1091.18 "/>
      <polygon id="path14" class="fil0" points="2785.99,1094.08 2588.65,835.8 2391.3,1094.08 2252.01,1094.08 2521.9,748.73 2237.5,391.77 2394.21,391.77 2588.65,658.77 2785.99,391.77 2939.8,391.77 2669.91,748.73 2925.3,1094.08 "/>
      <path id="path16" class="fil0" d="M3116.83 989.6l0 478.84 -118.99 0 0 -716.81c0,-182.83 139.3,-377.27 356.96,-377.27 220.55,0 385.98,139.31 385.98,368.57 0,223.46 -168.32,377.26 -359.86,377.26 -92.86,0 -217.65,-40.62 -264.08,-130.59zm499.15 -246.68c0,-156.71 -101.57,-249.57 -281.5,-240.87 -87.07,2.9 -220.55,66.75 -208.95,290.21 2.89,72.56 78.35,208.95 243.78,208.95 142.2,0 246.67,-81.26 246.67,-258.28l0 0z"/>
      <path id="path18" class="fil0" d="M3842.34 1094.08l0 -702.31 118.99 0 0 75.46c58.04,-66.75 148.01,-89.97 243.78,-89.97l0 127.69c-14.51,-2.89 -156.71,-20.31 -243.78,165.42l0 426.61 -118.99 0 0 -2.9z"/>
      <path id="path20" class="fil0" d="M4237.03 742.92c0,-203.14 145.1,-368.56 345.35,-368.56 249.57,0 342.44,165.42 342.44,377.27l0 58.04 -557.19 0c8.7,133.5 127.69,203.15 237.97,200.25 81.26,-2.9 136.39,-26.11 194.44,-84.16l78.35 81.26c-72.55,69.65 -165.42,116.09 -278.6,116.09 -211.85,-2.9 -362.75,-159.61 -362.75,-380.18l0 0zm336.64 -249.57c-113.18,0 -200.25,98.67 -206.05,206.05l432.41 0c0,-104.47 -75.45,-206.05 -226.36,-206.05z"/>
      <path id="path22" class="fil0" d="M4985.76 995.41l87.07 -78.35c-2.9,0 43.53,46.43 49.34,49.34 20.32,17.4 40.62,29.02 66.75,34.82 75.45,20.32 211.85,14.51 223.46,-89.96 5.81,-58.04 -37.73,-89.96 -87.07,-110.28 -63.85,-23.22 -133.49,-31.92 -197.33,-60.94 -72.56,-31.92 -118.99,-87.07 -118.99,-168.32 0,-211.85 301.82,-246.67 438.22,-148.01 5.81,5.81 72.55,66.75 69.65,66.75l-87.07 69.65c-43.53,-52.24 -84.16,-78.35 -177.03,-78.35 -46.43,0 -110.28,20.32 -121.89,69.65 -17.4,69.64 60.95,95.77 113.18,110.28 69.65,17.41 145.1,29.02 206.05,66.75 84.16,52.24 104.48,165.41 72.56,252.48 -34.83,95.77 -139.31,133.5 -232.17,136.39 -110.28,5.81 -206.05,-29.02 -284.4,-107.37 -5.81,0 -20.32,-14.51 -20.32,-14.51l0 0z"/>
      <path id="path24" class="fil0" d="M5598.11 995.41l87.06 -78.35c-2.9,0 43.54,46.43 49.34,49.34 20.32,17.4 40.62,29.02 66.75,34.82 75.45,20.32 211.85,14.51 223.46,-89.96 5.81,-58.04 -37.73,-89.96 -87.06,-110.28 -63.85,-23.22 -133.5,-31.92 -197.34,-60.94 -72.55,-31.92 -118.99,-87.07 -118.99,-168.32 0,-211.85 301.82,-246.67 438.22,-148.01 5.81,5.81 72.56,66.75 69.65,66.75l-87.07 69.65c-43.53,-52.24 -84.16,-78.35 -177.03,-78.35 -46.43,0 -110.28,20.32 -121.88,69.65 -17.41,69.64 60.94,95.77 113.18,110.28 69.64,17.41 145.1,29.02 206.05,66.75 84.15,52.24 104.47,165.41 72.55,252.48 -34.83,95.77 -139.3,133.5 -232.17,136.39 -110.28,5.81 -206.05,-29.02 -284.4,-107.37 -5.81,0 -20.32,-14.51 -20.32,-14.51l0.01 0z"/>
      <g id="g30">
       <polygon id="path26" class="fil0" points="6164,391.77 6164,316.32 6137.89,316.32 6137.89,301.81 6207.54,301.81 6207.54,316.32 6181.42,316.32 6181.42,391.77 "/>
       <polygon id="path28" class="fil0" points="6294.6,391.77 6294.6,322.13 6268.48,391.77 6262.68,391.77 6236.56,322.13 6236.56,391.77 6222.05,391.77 6222.05,301.81 6245.26,301.81 6268.48,362.75 6291.69,301.81 6314.91,301.81 6314.91,391.77 "/>
      </g>
     </g>
     <g id="g41">
      <path id="path34" class="fil1" d="M769.05 1094.08l-87.06 -232.17 -470.14 0 -87.07 232.17 -124.79 0 377.27 -972.2 136.39 0 374.37 972.2 -118.99 0zm-327.93 -832.9l-177.04 481.75 368.57 -0.01 -191.54 -481.74z"/>
      <polygon id="path36" class="fil1" points="966.39,1094.08 966.39,121.88 1088.27,121.88 1088.27,1094.08 "/>
      <polygon id="path38" class="fil1" points="1271.11,1094.08 1271.11,406.28 1393,406.28 1393,1094.08 "/>
      <path id="XMLID_1_" class="fil1" d="M1509.08 182.82l0 -11.61c-92.86,-2.9 -168.31,-78.35 -171.22,-171.22l-17.41 0c-2.9,92.86 -78.35,168.31 -171.23,171.22l0 11.61c92.87,2.9 168.32,78.35 171.23,171.23l17.41 0c2.9,-92.87 78.35,-168.32 171.22,-171.23l0 0z"/>
     </g>
    </g>
   </g>
  </g>
 </g>
</svg>
