<?xml version="1.0" encoding="UTF-8"?>
<!DOCTYPE svg PUBLIC "-//W3C//DTD SVG 1.1//EN" "http://www.w3.org/Graphics/SVG/1.1/DTD/svg11.dtd">
<!-- Creator: CorelDRAW 2020 (64-Bit) -->
<svg xmlns="http://www.w3.org/2000/svg" xml:space="preserve" width="52.9166mm" height="13.4232mm" version="1.1" style="shape-rendering:geometricPrecision; text-rendering:geometricPrecision; image-rendering:optimizeQuality; fill-rule:evenodd; clip-rule:evenodd"
viewBox="0 0 5256.61 1333.43"
 xmlns:xlink="http://www.w3.org/1999/xlink"
 xmlns:xodm="http://www.corel.com/coreldraw/odm/2003">
 <defs>
  <style type="text/css">
   <![CDATA[
    .fil0 {fill:black}
    .fil4 {fill:#00AAFF}
    .fil1 {fill:#04E061}
    .fil3 {fill:#965EEB}
    .fil2 {fill:#FF4053}
   ]]>
  </style>
 </defs>
 <g id="Слой_x0020_1">
  <metadata id="CorelCorpID_0Corel-Layer"/>
  <g id="_2013490894208">
   <path class="fil0" d="M2008.64 30.12l-453.89 1185.12 243.8 0 93.32 -247.62 481.59 0 93.72 247.62 242 0 -451.09 -1185.12 -249.44 0zm-33.1 719.97l158.52 -416.97 157.92 416.97 -316.44 0zm1024.98 159.53l-196.84 -526.93 -232.58 0 317.05 832.55 230.57 0 311.43 -832.55 -232.58 0 -197.06 526.95 0 -0.02zm722.2 -526.93l-221.32 0 0 832.55 221.32 0 0 -832.55zm-110.76 -60c89.1,0 161.32,-72.22 161.32,-161.33 0.02,-89.11 -72.23,-161.34 -161.32,-161.34 -89.11,0 -161.34,72.22 -161.34,161.34 0,89.1 72.22,161.33 161.34,161.33zm549.41 -162.14l-220.72 0 0 220.73 -129.44 0 0 200.67 129.44 -0.02 0 353.76c0,200.67 110.56,286.95 266.28,286.95 52.54,0.7 104.67,-9.49 153.09,-29.89l0 -206.27c-26.42,9.68 -54.32,14.77 -82.46,15.05 -67.63,0 -116.39,-26.28 -116.39,-116.39l0 -303.2 198.85 0 0 -198.66 -198.66 0 0 -222.73zm664.01 207.08c-85.35,-0.04 -168.78,25.23 -239.76,72.63 -70.98,47.39 -126.3,114.75 -158.98,193.61 -32.67,78.84 -41.25,165.62 -24.6,249.31 16.65,83.71 57.74,160.59 118.08,220.96 60.35,60.35 137.24,101.43 220.96,118.07 83.71,16.64 170.46,8.09 249.31,-24.6 78.83,-32.67 146.24,-87.99 193.61,-158.97 47.37,-70.98 72.69,-154.42 72.63,-239.76 -0.05,-114.36 -45.52,-224 -126.36,-304.87 -80.87,-80.86 -190.5,-126.31 -304.87,-126.36l-0.02 -0.02zm0 642.12c-41.56,0.04 -82.19,-12.24 -116.77,-35.31 -34.59,-23.06 -61.54,-55.86 -77.46,-94.25 -15.93,-38.38 -20.13,-80.63 -12.04,-121.4 8.08,-40.78 28.07,-78.22 57.45,-107.63 29.37,-29.39 66.81,-49.43 107.57,-57.57 40.76,-8.12 83,-3.97 121.39,11.92 38.41,15.9 71.24,42.82 94.36,77.36 23.08,34.55 35.39,75.18 35.39,116.74 -0.1,55.58 -22.25,108.83 -61.64,148.09 -39.36,39.25 -92.65,61.26 -148.25,61.2l0 0.81 0 0.03z"/>
   <path class="fil1" d="M431.42 1333.42c238.28,0 431.43,-193.15 431.43,-431.42 0,-238.28 -193.15,-431.43 -431.43,-431.43 -238.27,0 -431.42,193.15 -431.42,431.43 0,238.27 193.15,431.42 431.42,431.42z"/>
   <path class="fil2" d="M1179.69 1279.05c143.95,0 260.65,-116.7 260.65,-260.65 0,-143.95 -116.7,-260.67 -260.65,-260.67 -143.95,0 -260.66,116.7 -260.66,260.67 0,143.97 116.69,260.65 260.66,260.65z"/>
   <path class="fil3" d="M513.89 414.6c89.11,0 161.32,-72.22 161.32,-161.34 0,-89.1 -72.22,-161.33 -161.32,-161.33 -89.1,0 -161.34,72.22 -161.34,161.33 0,89.11 72.23,161.34 161.34,161.34z"/>
   <path class="fil4" d="M1078.37 701.52c193.73,0 350.76,-157.03 350.76,-350.75 0,-193.71 -157.05,-350.76 -350.76,-350.76 -193.72,0 -350.76,157.03 -350.76,350.76 0,193.72 157.04,350.75 350.76,350.75z"/>
  </g>
 </g>
</svg>
