<?xml version="1.0" encoding="UTF-8"?>
<!DOCTYPE svg PUBLIC "-//W3C//DTD SVG 1.1//EN" "http://www.w3.org/Graphics/SVG/1.1/DTD/svg11.dtd">
<!-- Creator: CorelDRAW 2020 (64-Bit) -->
<svg xmlns="http://www.w3.org/2000/svg" xml:space="preserve" width="49.3888mm" height="13.62mm" version="1.1" style="shape-rendering:geometricPrecision; text-rendering:geometricPrecision; image-rendering:optimizeQuality; fill-rule:evenodd; clip-rule:evenodd"
viewBox="0 0 4903.85 1352.34"
 xmlns:xlink="http://www.w3.org/1999/xlink"
 xmlns:xodm="http://www.corel.com/coreldraw/odm/2003">
 <defs>
  <style type="text/css">
   <![CDATA[
    .fil2 {fill:#fff;fill-rule:nonzero}
    .fil0 {fill:#fff;fill-rule:nonzero}
    .fil1 {fill:rgb(208,0,1);fill-rule:nonzero}
   ]]>
  </style>
 </defs>
 <g id="Слой_x0020_1">
  <metadata id="CorelCorpID_0Corel-Layer"/>
  <g id="_2013494958016">
   <path class="fil0" d="M649.59 1298.24c358.26,0 648.62,-290.6 648.62,-649.11 0,-358.52 -290.39,-649.12 -648.62,-649.12 -358.19,0 -648.62,290.63 -648.62,649.12 0,358.51 290.43,649.11 648.62,649.11z"/>
   <path class="fil1" d="M781.81 919.74c2.02,-8.12 2.02,-18.31 1,-27.46 -0.99,-9.89 -3.77,-19.58 -8.13,-28.51 -2.1,-4.75 -4.84,-9.2 -8.12,-13.21 -5.72,-7.75 -12.59,-14.64 -20.33,-20.35 -15.26,-11.18 -34.55,-17.31 -55.9,-17.31 -6.11,0 -12.2,1.04 -18.31,2.05 -8.18,1.99 -16.06,5.07 -23.38,9.16 -3.06,1.07 -5.84,2.82 -8.15,5.09 -8.11,5.06 -15.26,12.2 -21.33,20.34 -11.18,15.26 -18.31,33.57 -17.31,54.93 2.05,20.34 8.15,37.65 21.36,53.94 17.27,21.35 40.67,33.56 67.11,34.59l8.13 0.01c17.58,-0.94 34.54,-6.97 48.77,-17.3 17.98,-13.81 30.29,-33.73 34.6,-55.97l-0.01 -0.02zm240.92 -58.99c-7.11,-6.28 -15.41,-11.14 -24.37,-14.25 -15.26,-6.11 -34.58,-7.14 -48.8,-5.09 -2.83,0.06 -5.62,0.76 -8.14,2.04 -15.78,5.33 -29.13,16.17 -37.6,30.51 -7.14,12.2 -11.18,26.45 -11.18,42.74 0,4.05 0,7.11 0.98,11.17 2.04,13.24 8.14,25.44 16.26,35.61 4.09,5.09 10.2,10.2 15.26,14.25 7.12,5.09 14.26,8.18 22.37,11.19 2.53,1.29 5.32,2 8.15,2.06 1.01,0 2.02,0 2.02,1 1.04,0 2.05,0 3.05,1.04l20.33 0.01c19.17,-1.88 36.8,-11.44 48.78,-26.49 6.13,-7.09 11.19,-14.22 14.25,-23.37 2.04,-5.1 3.05,-10.2 4.09,-16.29 5.06,-26.45 -6.11,-50.87 -25.43,-66.12l-0.03 0zm-919.04 -160.76c116.93,-1 132.17,109.88 125.05,155.67 -11.17,6.11 -22.34,16.27 -31.51,28.47 -1.01,8.18 4.09,17.31 10.2,25.45 4.05,-1.01 8.11,-1.01 12.17,-2.04 9.15,-2.03 19.35,-5.07 28.48,-8.12 20.34,-5.09 43.73,-10.19 64.04,-5.09 11.17,3.05 21.36,7.12 30.51,12.2 31.5,13.25 55.9,45.77 67.1,72.25 3.05,6.11 6.08,11.17 9.12,17.3 4.09,8.11 5.09,15.26 6.11,22.37 4.09,2.04 10.17,1 11.17,0 3.08,-2.05 5.1,-4.09 6.13,-18.31 3.05,-36.65 -33.56,-172.96 -155.56,-156.68 6.11,-67.15 1.03,-140.42 -54.9,-191.27 -43.7,-40.7 -133.17,-77.35 -230.75,-26.45 0,9.15 -1.03,18.31 -1.03,27.46 0.09,34.73 2.88,69.45 8.12,103.75 26.42,-36.65 62.01,-56.99 95.54,-56.99l0.02 0.04zm400.59 199.43c23.34,24.42 20.3,-36.64 21.34,-84.45 1.01,-41.71 9.15,-106.82 13.22,-129.22 10.16,-54.96 41.68,-72.25 83.36,-78.35 92.51,-14.25 194.16,-2.02 270.42,-24.42 8.15,-2.04 10.17,-7.11 4.09,-11.17 -20.34,-12.23 -63.04,-21.39 -81.35,-24.44 -90.47,-17.3 -167.73,-16.28 -270.42,-8.14 -42.7,4.09 -62.01,22.4 -68.11,42.74 -27.46,91.54 -11.18,205.52 -7.14,238.08 7.14,32.56 20.34,63.07 34.59,79.35zm618.11 -75.29c5.06,32.56 6.11,95.63 12.18,100.72 5.09,4.09 13.24,-1.01 18.3,-11.17 26.42,-52.91 28.48,-109.9 24.42,-123.14 -2.04,-9.12 -7.11,-28.48 -40.67,-39.67 -31.51,-10.16 -63.02,-17.3 -105.7,-28.5 -6.13,-2.03 -16.29,-4.06 -23.43,-13.22 -22.34,-26.45 -50.8,-87.5 -65.03,-87.5 -5.1,0 -6.11,3.05 -7.14,11.2 -4.06,41.71 13.24,96.65 22.36,111.91 36.62,56.96 156.58,25.45 164.72,79.36l-0.01 0z"/>
   <path class="fil2" d="M2842.2 227.53c172.15,0 274.04,111.78 274.04,293.82l0 196.85c0,166.19 -86.07,298.76 -274.04,298.76 -74.19,0 -130.58,-41.54 -164.2,-81.11l0 416.47 -175.13 0.01 0 -1116.91 175.12 0 0 54.43c41.55,-36.61 92.99,-62.33 164.2,-62.33l0.01 0.01zm-1225.72 620.28c40.59,0 62.34,-27.7 68.27,-82.11 9.88,-121.69 23.73,-297.76 40.57,-529.26l543.1 0 0 611.34 83.09 0 0 320.56 -181.01 0 0 -159.27 -413.53 0 0 159.27 -181.04 0 0 -320.53 40.54 0zm229.53 -36.61c-3.95,12.86 -6.95,21.76 -9.89,26.7l-5.94 8.91 259.19 0 0 -451.1 -207.76 0c-10.89,158.28 -20.79,283.92 -27.71,374.92 -1.95,13.6 -4.57,27.23 -7.85,40.59l-0.04 -0.02zm3057.85 196.85l-175.09 0 0 -357.13 6.91 -190.93 -191.92 549.07 -175.09 0 -190.93 -549.07 6.92 190.93 0 357.16 -175.1 0 0 -772.66 254.24 0 191.9 550.02 193.92 -550.04 253.25 0 0 772.63 0.97 0 0 0.02zm-2093.32 -629.16c-85.05,0 -132.54,65.26 -133.55,139.48l0 202.8c0,77.16 46.5,144.43 133.55,144.43 56.4,0 131.59,-18.81 131.59,-144.43l0 -198.87c0.97,-91 -38.58,-143.42 -131.59,-143.42zm765.71 -151.37l-30.67 0c-215.65,0 -293.81,137.51 -293.81,293.82l0 202.8c0,159.27 81.13,291.83 293.81,291.83l29.7 0c213.66,0 293.8,-132.56 293.8,-291.83l0 -202.8c0,-156.32 -78.14,-293.82 -292.82,-293.82l-0.01 0zm119.71 496.62c0,127.61 -72.22,141.44 -130.61,141.44l-10.87 0c-93.99,0 -130.58,-46.48 -130.58,-141.44l0 -202.8c0,-123.69 68.24,-142.49 130.58,-142.49l10.87 0.02c85.08,0 130.61,39.58 130.61,142.48l0 202.8 0 -0.01z"/>
  </g>
 </g>
</svg>
