<?xml version="1.0" encoding="UTF-8"?>
<!DOCTYPE svg PUBLIC "-//W3C//DTD SVG 1.1//EN" "http://www.w3.org/Graphics/SVG/1.1/DTD/svg11.dtd">
<!-- Creator: CorelDRAW 2020 (64-Bit) -->
<svg xmlns="http://www.w3.org/2000/svg" xml:space="preserve" width="44.5955mm" height="9.7324mm" version="1.1" style="shape-rendering:geometricPrecision; text-rendering:geometricPrecision; image-rendering:optimizeQuality; fill-rule:evenodd; clip-rule:evenodd"
viewBox="0 0 4424.54 965.6"
 xmlns:xlink="http://www.w3.org/1999/xlink"
 xmlns:xodm="http://www.corel.com/coreldraw/odm/2003">
 <defs>
  <style type="text/css">
   <![CDATA[
    .fil0 {fill:#005BFF;fill-rule:nonzero}
   ]]>
  </style>
 </defs>
 <g id="Слой_x0020_1">
  <metadata id="CorelCorpID_0Corel-Layer"/>
  <g>
   <path class="fil0" d="M1848.04 718.44l-381.64 0 487.22 -644.71c10.62,-14.16 7.67,-34.8 -6.49,-45.42 -5.31,-4.13 -12.39,-6.49 -19.47,-6.49l-704.88 0c-61.94,0 -112.66,50.73 -112.66,112.66 0,61.93 50.73,112.66 112.66,112.66l316.75 0.01 -488.99 645.3c-11.21,14.16 -8.25,34.21 5.9,45.42 5.9,4.72 12.98,7.07 20.05,6.49l770.94 0c61.94,-2.95 109.71,-56.04 106.77,-118.56 -2.95,-57.8 -48.96,-103.82 -106.77,-106.77l0 -0.6 0.6 0zm2463.25 -696.62c-61.94,0 -112.66,50.73 -112.66,112.66l0 378.1 -608.73 -483.1c-13.56,-11.21 -34.21,-9.44 -45.42,4.72 -4.72,5.9 -7.07,12.98 -7.07,20.65l0 776.84c0,61.94 50.73,112.66 112.66,112.66 61.93,0 112.66,-50.13 112.66,-112.66l0 -378.1 608.73 483.68c14.16,11.21 34.8,8.85 46.01,-5.31 4.72,-5.9 7.07,-12.98 7.07,-20.05l0.01 -777.44c-0.59,-62.53 -50.73,-112.66 -113.25,-112.66l0 0zm-1610.9 717.86c-257.77,0 -450.06,-135.67 -450.06,-257.17 0,-121.51 192.88,-257.17 450.06,-257.17 257.77,0 450.06,135.67 450.06,257.17 0,121.51 -191.7,257.17 -450.06,257.17l0 0zm0 -739.69c-372.79,0 -675.39,215.89 -675.39,482.5 0,266.62 302.6,482.5 675.39,482.5 372.79,0 675.39,-215.89 675.39,-482.5 0,-266.61 -302.6,-482.5 -675.39,-482.5l0 0zm-2217.28 740.27c-142.16,0 -257.77,-115.02 -257.77,-257.17 0,-142.16 115.02,-257.77 257.17,-257.77 142.16,0 257.77,115.02 257.77,257.17l0 0.59c0,141.57 -115.02,256.6 -257.17,257.18l0 0zm0 -740.27c-266.62,0 -482.5,215.89 -483.1,482.5 0,266.62 215.89,482.5 482.5,483.1 266.62,0 482.5,-215.89 483.1,-482.5 0,0 0,-0.59 0,-0.59 -0.59,-266.62 -216.48,-482.51 -482.5,-482.51z"/>
  </g>
 </g>
</svg>
