<?xml version="1.0" encoding="UTF-8"?>
<!DOCTYPE svg PUBLIC "-//W3C//DTD SVG 1.1//EN" "http://www.w3.org/Graphics/SVG/1.1/DTD/svg11.dtd">
<!-- Creator: CorelDRAW 2020 (64-Bit) -->
<svg xmlns="http://www.w3.org/2000/svg" xml:space="preserve" width="65.264mm" height="19.0574mm" version="1.1" style="shape-rendering:geometricPrecision; text-rendering:geometricPrecision; image-rendering:optimizeQuality; fill-rule:evenodd; clip-rule:evenodd"
viewBox="0 0 6491.31 1895.49"
 xmlns:xlink="http://www.w3.org/1999/xlink"
 xmlns:xodm="http://www.corel.com/coreldraw/odm/2003">
 <g id="Слой_x0020_1">
  <metadata id="CorelCorpID_0Corel-Layer"/>
  <g id="_2013363103936">
   <path class="fil4" d="M480.31 1387.32l-182.02 -664.65 119.39 0 139.85 510.48 149.89 -510.52 111.31 0.04 150.42 513.2 140.47 -513.07 119.4 -0.17 -182.1 664.57 -138.39 -0.15 -145.41 -496.35 -145.54 496.48 -137.28 0.14zm5277.97 -151.28l96.41 -55.12c27.43,75.03 83.08,111.79 168.54,111.79 84.65,0 126.2,-35.22 126.2,-87.29 0,-27.57 -11.77,-47.47 -33.71,-61.26 -21.95,-14.54 -62.72,-30.62 -120.72,-47.47 -65.08,-19.14 -97.19,-31.38 -142.67,-60.48 -43.9,-30.62 -65.84,-74.28 -65.84,-134.01 0,-58.95 21.17,-104.89 64.28,-139.35 42.32,-35.23 94.06,-52.07 154.42,-52.07 108.96,0 192.83,55.13 236.73,146.24l-94.06 52.83c-28.22,-61.25 -76.04,-92.65 -142.67,-92.65 -65.06,0 -106.59,32.17 -106.59,82.7 0,49 32.91,71.97 137.16,103.36 25.87,8.42 44.69,14.54 56.44,19.15 12.54,3.83 28.99,10.72 50.17,19.15 21.94,8.41 39.19,18.37 49.38,26.8 36.06,27.57 74.47,72.74 69.76,136.29 0,59.73 -21.95,107.96 -66.63,143.2 -43.89,35.22 -101.9,52.06 -174.02,52.06 -131.69,-0.77 -227.32,-62.02 -262.58,-163.86l0 0zm-378.62 47.01l301.01 0 0 104.19 -412.32 0 0 -664.21 407.62 0 0 104.19 -296.31 0 0 172.37 272.01 0 0 103.43 -272.01 0 0 180.04zm-354.3 -560.29l111.32 0 0 664.47 -111.32 0 0 -664.47zm-480.51 102.64l0 222.28 159.91 0c59.58,0 106.6,-49.05 106.6,-111.14 0,-61.32 -47.81,-111.14 -106.6,-111.14l-159.91 0zm275.13 561.85l-143.43 -242.23 -131.7 0 0 242.23 -111.31 0 0 -664.57 271.99 0c61.16,0 112.88,20.7 154.44,62.85 42.33,40.64 64.27,91.22 64.27,151 0,84.31 -54.08,161.75 -134.82,192.39l154.43 258.32 -123.86 0 0 0zm-870.87 -561.56l0 222.16 159.92 0c59.57,0 106.59,-49.02 106.59,-111.07 0,-61.29 -47.81,-111.09 -106.59,-111.09l-159.92 0 0 0zm275.93 561.54l-144.23 -242.08 -131.7 0 0 242.08 -111.31 0 0 -664.2 271.99 0c61.15,0 112.88,20.68 154.44,62.82 42.33,40.6 64.27,91.17 64.27,150.92 0,84.27 -54.08,161.65 -134.82,192.29l154.43 258.16 -123.06 0 0 0zm-788.57 -104.18l301 0 0 104.19 -412.32 0 0 -664.21 407.61 0 0 104.2 -296.29 0 0 172.36 272 0 0 103.43 -272 0 0 180.04zm-420.94 1.53c51.72,0 92.5,-40.61 92.5,-92.7 0,-52.1 -40.78,-92.7 -92.5,-92.7l-179.51 0 0 186.16 179.51 0 0 -0.77zm-179.51 -458.9l0 174.68 158.33 0c49.39,0 87.02,-38.3 87.02,-87.33 0,-49.03 -37.63,-87.35 -87.02,-87.35l-158.33 0zm383.31 371.56c0,54.39 -19.59,99.59 -59.58,135.6 -39.96,36.02 -86.99,54.41 -145.01,54.41l-290.82 0 0 -664.21 269.65 0c55.65,0 102.69,18.37 141.09,52.85 39.2,35.25 58.02,78.91 58.02,130.99 0,58.24 -23.51,102.67 -68.99,135.62 59.59,30.64 95.63,85.8 95.63,154.74l0 0zm-924.96 86.27c64.27,0 116.8,-21.43 156,-64.31 40.75,-42.88 61.14,-98.01 61.14,-163.1 0,-66.61 -20.39,-120.22 -61.14,-163.09 -39.97,-42.88 -92.51,-64.32 -156,-64.32l-155.2 0 0 454.82 155.2 0zm0 -559.72c93.29,0 170.89,32.16 232.04,95.72 61.92,63.55 93.27,142.42 93.27,235.83 0,92.66 -31.35,171.51 -93.27,235.84 -61.15,63.56 -138.75,95.72 -232.04,95.72l-267.3 0 0 -663.87 267.3 0 0 0.77zm-626.3 558.97l276.69 0 0 104.13 -388.01 0 0 -663.86 111.32 0 0 559.73zm-356.67 -559.73l113.68 0 0 663.86 -113.68 0 0 -663.86z"/>
  </g>
 </g>
</svg>
