<?xml version="1.0" encoding="UTF-8"?>
<!DOCTYPE svg PUBLIC "-//W3C//DTD SVG 1.1//EN" "http://www.w3.org/Graphics/SVG/1.1/DTD/svg11.dtd">
<!-- Creator: CorelDRAW 2020 (64-Bit) -->
<svg xmlns="http://www.w3.org/2000/svg" xml:space="preserve" width="63.5mm" height="15.9391mm" version="1.1" style="shape-rendering:geometricPrecision; text-rendering:geometricPrecision; image-rendering:optimizeQuality; fill-rule:evenodd; clip-rule:evenodd"
viewBox="0 0 6314.91 1585.1"
 xmlns:xlink="http://www.w3.org/1999/xlink"
 xmlns:xodm="http://www.corel.com/coreldraw/odm/2003">
 <defs>
  <style type="text/css">
   <![CDATA[
    .fil1 {fill:#fff;fill-rule:nonzero}
    .fil0 {fill:#fff;fill-rule:nonzero}
   ]]>
  </style>
 </defs>
 <g id="Слой_x0020_1">
  <metadata id="CorelCorpID_0Corel-Layer"/>
  <g id="_2013363120832">
   <path class="fil0" d="M450.19 1.75c-212.15,26.2 -380.2,170.82 -432.92,373.1 -9.25,34.85 -17.26,93.12 -17.26,124.88 0,51.81 15.11,131.05 34.23,179.77 66.91,169.59 215.22,287.99 394.37,315.13 12.64,1.85 42.25,4.32 65.37,5.86 23.44,1.23 43.48,3.08 44.4,4.32 1.85,1.85 -85.41,555.95 -90.35,574.14l-1.54 6.17 6.17 -6.17c8.33,-8.63 243.9,-369.4 337.34,-516.48 57.66,-90.96 72.77,-117.48 105.76,-186.24 61.67,-127.66 82.32,-187.48 97.75,-282.76 8.63,-53.34 9.25,-132.28 1.54,-175.45 -8.94,-49.64 -23.75,-94.36 -45.64,-138.45 -27.14,-54.89 -52.11,-89.72 -95.28,-132.89 -74.62,-74.93 -168.05,-123.04 -272.88,-140.3 -35.15,-5.86 -100.83,-8.32 -131.04,-4.62zm1105.41 290.15c-86.02,8.33 -145.22,49.34 -184.39,127.66 -41.94,83.87 -43.17,173.29 -3.39,257.16 17.26,36.7 35.76,62.59 69.68,97.75 14.8,15.41 27.14,28.98 27.14,30.21 0,1.23 -34.85,78.63 -77.4,172.37 -42.55,93.73 -78.01,171.75 -78.93,173.6 -0.92,2.77 11.1,3.7 43.47,3.7 64.76,0.31 59.21,5.86 108.23,-107.61 47.18,-110.08 93.43,-207.21 103,-216.46 10.79,-11.11 29.6,-13.57 57.35,-7.71l18.5 4.01 0.92 162.5 0.62 162.81 44.71 0 44.71 0 0 -429.52 0 -429.83 -53.04 -1.85c-61.98,-2.48 -87.27,-2.17 -121.19,1.22zm78.02 75.55l6.78 1.85 0 173.29c0,110.69 -1.23,177.3 -3.39,184.7 -4.93,18.19 -13.56,21.89 -43.79,19.42 -84.8,-7.09 -125.8,-37.31 -139.38,-102.37 -16.65,-80.78 -11.71,-160.03 12.34,-208.13 16.34,-31.75 49.33,-57.35 86.33,-66.29 16.35,-4.01 69.08,-5.55 81.1,-2.47zm-1083.22 -46.56c71.23,18.5 126.74,78.32 141.53,153.25 9.25,45.33 5.24,74 -17.26,119.64 -23.44,48.41 -70.62,86.34 -124.58,99.9 -24.35,6.17 -68.76,6.17 -92.19,0.31 -71.54,-18.81 -126.12,-77.7 -141.53,-153.25 -6.47,-31.45 -6.17,-49.03 1.23,-77.7 17.88,-69.68 73.07,-125.5 140.3,-141.84 24.97,-5.86 69.99,-6.17 92.5,-0.31z"/>
   <path class="fil1" d="M4503.37 289.43c-13.87,6.47 -18.8,13.27 -64.42,87.88 -57.68,94.05 -173.31,277.51 -182.56,289.54 -4.31,5.55 -8.93,10.17 -10.78,10.17 -1.55,0 -2.77,-73.7 -2.77,-194.26l0 -194.26 -29.3 0 -29.31 0 0 431.69 0 431.68 29.31 0 29.3 0 0 -218.92c0,-120.57 1.22,-218.93 2.45,-218.93 6.48,0 22.52,26.21 134.45,218.93 65.69,112.85 122.71,208.75 127.03,213.37 4.33,4.32 11.41,8.63 16.03,9.56 9.25,1.85 49.95,-3.7 49.95,-6.78 0,-2.47 -110.39,-193.95 -201.03,-348.13 -32.08,-54.58 -59.21,-104.22 -60.14,-109.77 -1.85,-12.64 -3.39,-10.17 49.95,-94.36 99.9,-158.49 190.26,-305.57 188.71,-307.11 -4,-4.32 -37.93,-4.32 -46.88,-0.31zm1398.35 560.58l0 305.57 70.31 -1.54c50.57,-0.92 75.55,-2.77 89.72,-6.47 51.19,-13.26 90.36,-43.48 111.31,-86.34 15.13,-30.22 21.6,-62.28 21.6,-104.53 -0.33,-78.31 -29.31,-133.82 -85.43,-163.42 -31.75,-16.34 -51.8,-20.96 -104.84,-22.82l-47.18 -1.85 0 -111.93 0 -112.24 -27.75 0 -27.76 0 0 305.57zm166.81 -24.06c32.37,15.73 59.2,53.05 69.37,96.82 12.02,50.57 -8.32,123.34 -42.85,155.71 -22.2,20.67 -55.2,30.22 -104.53,30.22l-30.22 0 0 -144.31c0,-79.55 0.92,-145.53 2.48,-146.77 1.22,-1.54 21.57,-1.85 45.32,-1.23 39.15,1.23 44.71,1.85 60.43,9.56zm-595.4 -258.38l0 23.12 69.37 0 69.38 0 0 280.59 0 280.6 29.28 0 29.3 0 0 -282.14 0 -282.13 69.37 0 69.38 0 0 -21.58 0 -21.59 -168.06 0 -168.04 0 0 23.13zm-3135.87 63.83c0,155.1 -9.25,260.55 -30.85,350.89 -8.94,36.7 -21.27,74.01 -28.36,83.87 -5.86,8.63 -24.05,15.72 -32.07,12.64 -3.7,-1.23 -4.32,12.65 -4.32,95.9l0 97.44 41.63 0 41.62 0 0 -57.04 0 -57.04 131.05 0 131.06 0 0 57.04 0 57.04 41.62 0 41.63 0 -0.63 -96.51 -0.92 -96.21 -23.12 -3.08 -23.13 -3.08 -0.92 -264.56 -0.62 -264.25 -141.83 0 -141.83 0 0 86.96zm189.63 216.77l0 225.09 -77.7 0.92c-56.13,0.62 -78.03,-0.31 -78.03,-2.77 0,-1.85 3.4,-14.8 7.73,-28.67 27.12,-88.81 44.7,-234.96 44.7,-370.32l0 -50.88 51.8 0.62 51.49 0.92 0 225.09zm-670.04 0.62l0.92 304.65 45.64 0.92 45.33 0.92 0 -135.98 0 -135.67 72.46 0 72.46 0 0 134.12 0 134.13 43.17 0 43.17 0 0 -303.72 0 -303.72 -44.71 0 -44.71 0 0 126.43 0 126.42 -70.92 0 -70.92 0 0 -126.42 0 -126.43 -46.25 0 -46.25 0 0.62 304.34zm4411.18 -305.26c-5.25,1.23 -5.55,18.51 -5.55,304.96l0 303.41 26.2 0 26.22 0 0 -303.41 0 -303.41 -6.8 -1.85c-8,-1.85 -32.05,-1.85 -40.08,0.31zm-2838.63 3.08c-12.02,5.86 -19.42,15.73 -33.6,45.02 -23.12,48.1 -106.68,205.36 -113.78,213.68l-7.1 8.94 -0.3 -135.05 0 -134.75 -46.25 0 -46.25 0 0 303.72 0 303.72 46.25 0 46.25 0 0.63 -142.77 0.92 -142.46 8 8.32c4.33,4.62 18.83,28.99 32.08,53.97 113.15,214.29 114.7,217.07 126.43,222.31 4.92,2.16 25.27,3.7 52.73,3.7l44.7 0 -22.21 -42.55c-62.9,-119.64 -85.4,-161.57 -106.07,-197.04 -28.68,-48.72 -33.3,-62.28 -31.75,-91.57 1.22,-24.67 3.4,-29.91 41.32,-97.44 12.03,-21.28 38.85,-71.54 59.51,-111.93l37.62 -73.08 -39.47 0c-29.9,0 -41.93,1.23 -49.65,5.24zm292.93 -8.63c-98.67,24.98 -158.18,117.17 -170.2,262.71 -5.55,66.29 4.33,148.01 24.98,210.91 20.65,62.59 41.62,94.36 78.92,119.94 55.2,37.62 129.83,43.17 190.56,14.19 41.32,-19.74 44.72,-27.45 31.45,-66.61 -4.92,-15.11 -9.55,-27.75 -9.85,-28.36 -0.63,-0.62 -11.72,4.62 -25.3,11.1 -61.36,30.83 -104.83,29.61 -138.13,-4.32 -50.25,-51.19 -69.37,-215.53 -38.85,-334.55 12.33,-47.79 38.23,-87.88 65.98,-101.14 30.52,-14.5 58.28,-10.79 107.3,13.56 15.42,8.02 28.67,13.87 29.3,12.95 0.63,-0.62 3.4,-13.56 5.85,-28.67 2.77,-15.12 5.25,-28.99 6.18,-31.15 3.08,-8.94 -5.25,-25.91 -16.35,-33 -31.13,-20.35 -98.35,-28.67 -141.83,-17.57zm-830.06 -2.77c-53.05,6.78 -93.42,37.62 -115.95,88.19 -56.73,127.96 -65.69,268.26 -25.28,395.91 12.95,40.7 27.45,65.69 53.03,90.96 37.32,37 83.58,55.19 139.08,54.89 48.4,0 96.21,-16.34 122.41,-41.32 9.88,-9.25 11.72,-13.26 11.72,-23.43 0,-11.41 -10.5,-49.03 -15.42,-54.27 -1.22,-1.54 -11.72,2.16 -23.43,8.02 -38.85,19.42 -65.38,27.45 -90.66,27.75 -29,0.32 -45.94,-6.78 -69.37,-28.98 -34.23,-32.38 -45.03,-62.59 -47.18,-133.21l-1.24 -48.4 124.88 0 125.2 0 2.15 -11.42c3.07,-17.26 -0.92,-115.63 -6.47,-148.01 -8.32,-51.18 -24.67,-94.65 -46.88,-125.18 -27.75,-37.62 -82.32,-58.28 -136.58,-51.49zm39.15 80.48c18.81,7.09 32.08,25.28 37.93,50.88 4,16.96 18.5,111 18.5,119.02 0,5.24 -5.85,5.55 -81.7,5.55 -45.03,0 -81.74,-1.23 -81.74,-2.77 0,-5.86 22.21,-102.37 28.08,-122.1 3.37,-12.03 9.85,-26.21 14.17,-32.07 13.87,-18.19 43.18,-26.83 64.75,-18.5zm2302.72 -81.41c-36.38,12.95 -61.66,34.23 -90.03,74.31 -17.27,24.98 -19.42,24.06 -19.42,-7.09 0,-8.63 -0.92,-24.66 -2.16,-36.38l-1.85 -20.67 -22.52 0 -22.79 0 0 399.31 0 399.61 27.12 -0.92 26.83 -0.92 1.55 -105.15 1.52 -105.15 27.76 10.49c73.7,28.36 114.7,28.98 158.5,3.08 76.16,-45.64 123.63,-201.35 108.23,-357.07 -12.95,-131.05 -53.05,-219.85 -112.25,-247.6 -24.06,-11.41 -57.96,-13.87 -80.48,-5.86zm40.1 47.49c61.05,15.41 101.75,135.97 96.21,283.37 -3.09,75.55 -15.72,141.53 -36.08,183.47 -15.12,31.75 -32.37,51.19 -54.9,62.28 -15.11,7.4 -20.95,8.63 -42.23,8.32 -57.35,-0.92 -98.68,-35.15 -105.78,-87.88 -1.52,-10.79 -2.45,-88.49 -1.85,-172.36 0.92,-144.31 1.25,-153.56 7.4,-170.82 3.4,-10.17 8.65,-21.89 11.1,-26.21 22.52,-35.45 59.21,-68.76 85.73,-78.01 18.8,-6.47 22.82,-6.47 40.4,-2.16zm-541.14 -46.25c-29,7.4 -64.15,24.36 -78.62,37.93 -8.95,8.63 -10.8,12.33 -10.8,23.43 0,7.4 2.47,20.67 5.25,29.61l4.92 16.34 17.87 -16.34c33.93,-31.46 67.23,-45.02 111.01,-45.02 41.95,0 73.39,16.03 84.17,43.48 6.18,15.41 12.65,57.04 17.57,115.01 2.78,35.77 2.78,43.17 -0.6,45.33 -2.48,1.54 -13.87,2.77 -25.91,2.77 -32.37,0 -92.82,5.86 -115.63,11.1 -59.2,13.26 -96.21,49.34 -118.72,115.63 -17.58,51.49 -16.96,100.21 2.17,152.63 22.21,61.98 60.42,94.97 114.38,98.98 50.27,3.7 89.12,-14.49 125.5,-59.51 8.95,-10.79 16.95,-19.73 18.2,-19.73 1.22,0 4.62,10.48 7.7,23.12 3.08,12.64 8.63,27.44 12.33,32.99 6.47,9.57 7.73,10.18 24.37,9.88 9.85,-0.31 18.18,-0.92 19.1,-1.54 0.62,-0.92 -0.31,-17.89 -1.85,-38.24 -1.85,-20.35 -4.31,-132.9 -5.55,-249.76 -2.78,-230.95 -2.46,-228.17 -20.66,-263.94 -27.76,-54.89 -111.31,-83.56 -186.24,-64.13zm151.71 357.99c2.46,98.67 -2.48,125.8 -30.22,166.5 -34.23,50.26 -74.31,69.99 -114.71,56.73 -32.37,-10.79 -53.03,-38.24 -65.68,-87.27 -18.5,-72.46 8.95,-152.63 61.05,-179.14 20.05,-10.48 74.31,-18.81 138.46,-21.89l9.55 -0.31 1.55 65.37z"/>
  </g>
 </g>
</svg>
