<?xml version="1.0" encoding="UTF-8"?>
<!DOCTYPE svg PUBLIC "-//W3C//DTD SVG 1.1//EN" "http://www.w3.org/Graphics/SVG/1.1/DTD/svg11.dtd">
<!-- Creator: CorelDRAW 2020 (64-Bit) -->
<svg xmlns="http://www.w3.org/2000/svg" xml:space="preserve" width="63.5mm" height="11.7418mm" version="1.1" style="shape-rendering:geometricPrecision; text-rendering:geometricPrecision; image-rendering:optimizeQuality; fill-rule:evenodd; clip-rule:evenodd"
viewBox="0 0 6314.91 1167.69"
 xmlns:xlink="http://www.w3.org/1999/xlink"
 xmlns:xodm="http://www.corel.com/coreldraw/odm/2003">
 <defs>
  <style type="text/css">
   <![CDATA[
    .fil0 {fill:black;fill-rule:nonzero}
    .fil2 {fill:black;fill-rule:nonzero}
    .fil3 {fill:#FC3F1D;fill-rule:nonzero}
    .fil1 {fill:#FED42B;fill-rule:nonzero}
    .fil4 {fill:white;fill-rule:nonzero}
   ]]>
  </style>
 </defs>
 <g id="Слой_x0020_1">
  <metadata id="CorelCorpID_0Corel-Layer"/>
  <g id="_2013466618064">
   <path class="fil0" d="M2966.88 988.49l125.15 0 174.94 -649.99 0 649.99 140.81 0 0 -859.07 -193.43 0 -174.94 630.08 -174.95 -630.08 -197.69 0 0 859.07 120.89 0 0 -649.99 179.21 649.99zm1029.73 -425.27c0,-152.18 -75.38,-209.08 -231.83,-209.08 -98.14,0 -174.95,29.87 -220.46,56.89l0 120.9c38.4,-29.87 125.15,-61.16 201.96,-61.16 72.54,0 102.41,27.02 102.41,91.02l0 34.13 -22.76 0c-224.71,0 -327.12,75.38 -327.12,201.97 0,126.59 75.38,197.7 190.59,197.7 86.76,0 125.15,-27.03 152.18,-56.89l7.11 0c0,15.64 7.11,38.4 11.38,49.78l145.07 0c-4.27,-49.78 -7.11,-102.41 -7.11,-152.18 -1.42,0 -1.42,-273.08 -1.42,-273.08zm-147.92 277.35c-18.49,27.02 -52.63,49.77 -106.68,49.77 -61.15,0 -91.02,-38.4 -91.02,-91.02 0,-72.54 49.78,-98.13 179.21,-98.13l22.75 0 0 140.81 -4.27 0 0 -1.42zm402.5 -475.04l-136.54 0 0 802.16 147.92 0 0 -250.32c38.4,56.88 91.02,83.91 156.45,83.91 145.07,0 243.21,-113.79 243.21,-322.86 0,-209.08 -95.29,-322.87 -236.1,-322.87 -68.27,0 -125.16,29.87 -167.83,91.03 1.42,-1.42 -7.11,-81.07 -7.11,-81.07zm126.58 520.55c-75.37,0 -118.04,-64 -118.04,-204.8 0,-145.07 41.24,-209.08 125.16,-209.08 79.65,0 120.89,64 120.89,204.81 0,145.06 -41.24,209.07 -128.01,209.07zm743.86 102.41l167.83 0 -236.1 -334.24 209.08 -288.72 -147.92 0 -209.08 288.72 0 -288.72 -147.92 0 0 622.96 147.92 0 0 -304.37 216.19 304.37zm661.36 -41.25l0 -120.9c-45.51,29.87 -120.89,56.89 -193.43,56.89 -106.68,0 -147.92,-49.77 -156.45,-156.45l352.72 0 0 -79.65c0,-216.19 -95.29,-295.84 -243.21,-295.84 -179.2,0 -265.96,136.54 -265.96,327.13 0,216.18 106.67,322.86 292.99,322.86 103.82,-1.42 172.09,-24.19 213.33,-54.05zm-238.94 -475.04c72.54,0 95.29,61.16 95.29,136.54l0 11.38 -206.22 0c4.27,-98.13 42.66,-147.92 110.93,-147.92zm770.88 11.38l0 -118.04 -493.53 0 0 118.04 174.94 0 0 504.91 147.92 0 0 -504.91 170.67 0z"/>
   <path class="fil1" d="M1789.23 1140.66c315.75,0 570.33,-254.59 570.33,-570.33 0,-315.75 -254.59,-570.33 -570.33,-570.33 -315.75,0 -570.34,254.59 -570.34,570.33 -2.84,315.75 256.02,570.33 570.34,570.33z"/>
   <path class="fil2" d="M2309.35 805.25c32.27,-71.58 50.21,-151.09 50.21,-234.91 0,-37.38 -3.61,-73.89 -10.43,-109.23 -81.9,123.58 -160.84,210.99 -202.91,200.26 -72.54,-18.49 -7.11,-250.32 34.14,-399.66l0 -4.27 -231.83 -79.65 -277.35 452.29 38.41 -247.48 -200.55 -69.69 -280.39 366.97c14.51,76.81 44.7,148.06 87.1,210.43l197.56 -261.66 -38.4 270.23 209.07 72.54 254.6 -406.77c-11.39,75.38 -29.87,250.32 136.53,304.37 82.26,25.03 161.28,-4.34 234.25,-63.77z"/>
   <circle class="fil3" cx="570.33" cy="570.33" r="570.33"/>
   <path class="fil4" d="M652.82 320.01l-56.88 0c-98.14,0 -147.92,49.78 -147.92,125.16 0,83.91 34.13,125.15 106.67,174.94l56.89 41.24 -163.56 254.6 -133.7 0 156.45 -231.83c-91.02,-64 -140.81,-125.16 -140.81,-231.83 0,-133.7 91.02,-224.72 265.97,-224.72l174.94 0 0 684.12 -113.79 0 0 -593.09 -4.27 0 0 1.42z"/>
  </g>
 </g>
</svg>
