<?xml version="1.0" encoding="UTF-8"?>
<!DOCTYPE svg PUBLIC "-//W3C//DTD SVG 1.1//EN" "http://www.w3.org/Graphics/SVG/1.1/DTD/svg11.dtd">
<!-- Creator: CorelDRAW 2020 (64-Bit) -->
<svg xmlns="http://www.w3.org/2000/svg" xml:space="preserve" width="63.5mm" height="9.3788mm" version="1.1" style="shape-rendering:geometricPrecision; text-rendering:geometricPrecision; image-rendering:optimizeQuality; fill-rule:evenodd; clip-rule:evenodd"
viewBox="0 0 6314.91 932.7"
 xmlns:xlink="http://www.w3.org/1999/xlink"
 xmlns:xodm="http://www.corel.com/coreldraw/odm/2003">
 <defs>
  <style type="text/css">
   <![CDATA[
    .fil3 {fill:black;fill-rule:nonzero}
    .fil0 {fill:#FF5226;fill-rule:nonzero}
    .fil2 {fill:#FFDD00;fill-rule:nonzero}
    .fil1 {fill:white;fill-rule:nonzero}
   ]]>
  </style>
 </defs>
 <g id="Слой_x0020_1">
  <metadata id="CorelCorpID_0Corel-Layer"/>
  <g id="_2013465625536">
   <path class="fil0" d="M932.69 466.35c0,257.63 -208.71,466.35 -466.35,466.35 -257.63,0 -466.34,-208.72 -466.34,-466.35 0,-257.63 208.71,-466.35 466.34,-466.35 257.64,0 466.35,208.72 466.35,466.35z"/>
   <path class="fil1" d="M541.95 760.09l0 -499.22 -58.6 0c-42.25,0 -74.33,8.91 -96.01,26.86 -21.73,17.32 -32.71,40.33 -32.71,69.14 0,21.73 3.85,40.35 11.48,55.71 7.81,15.38 18.95,29.49 33.7,42.3 14.72,12.76 33.33,26.86 55.67,42.24l55.72 37.43 -163.2 225.71 -122.91 0 155.45 -211.33 72.99 65.25 -57.61 -36.39c-28.98,-18.83 -56.51,-39.72 -82.58,-62.51 -23,-20.4 -40.66,-42.9 -52.81,-67.21 -12.15,-24.29 -18.29,-52.8 -18.29,-85.51 0,-56.17 20.24,-101.68 60.56,-136.32 40.96,-35.16 100.85,-52.78 179.58,-52.78l173.72 0 0 586.64 -114.17 0z"/>
   <path class="fil0" d="M1478.54 932.7c-257.29,0 -466.35,-208.23 -466.35,-465.51 0,-257.3 209.06,-467.18 466.35,-467.18 257.14,0 466.34,209.88 466.34,467.18 0,257.28 -209.2,465.51 -466.34,465.51z"/>
   <polygon class="fil2" points="1406.32,63.14 886.05,874.86 1124.4,874.86 1425.1,406.9 1417.63,403.68 1334.41,738.53 1510.75,769.61 1692.1,541.62 1682.23,536.78 1621.01,795.69 2005.44,722.37 1926.88,593.32 1788.48,625.03 1804.81,643.8 1869.27,373.42 1719,273.01 1522.27,520.45 1531.97,525.3 1612.76,201.13 "/>
   <polygon class="fil2" points="1406.32,63.14 886.05,874.86 1124.4,874.86 1425.1,406.9 1417.63,403.68 1334.41,738.53 1510.75,769.61 1692.1,541.62 1682.23,536.78 1621.01,795.69 1775.51,766.22 1869.27,373.42 1719,273.01 1522.27,520.45 1531.97,525.3 1612.76,201.13 "/>
   <path class="fil3" d="M2123.62 760.09l289.88 -586.64 220.86 0 45.18 357.21 223.77 -357.21 218.9 0 0 586.64 -214.22 0 0 -314.96 -198.69 314.96 -214.23 0 -41.11 -317.69 -157.56 317.69 -172.91 0 0.13 0zm1656.37 -116.1c0,19.93 0.3,39.32 0.95,58.6 0.67,19.11 1.79,38.05 3.74,56.55l-198.69 0c-4.69,-9.08 -8.58,-18.83 -11.53,-28.69 -4.02,-13.26 -6.46,-26.69 -7.75,-40.33 -20.4,24.29 -46.31,44.39 -77.73,60.39 -30.76,15.41 -74.67,23.17 -131.65,23.17 -57.5,0 -103.64,-13.59 -138.29,-40.34 -33.83,-27.03 -50.83,-62.8 -50.83,-107.65 0,-41.62 11.81,-73.53 35.61,-96.05 24.3,-22.96 62.02,-39.01 113.21,-47.91 51.31,-9.71 116.89,-14.43 196.91,-14.43l49.86 0 0 -10.66c0,-20.44 -8.59,-36.1 -25.91,-46.96 -17.33,-10.86 -49.57,-16.38 -97,-16.38 -46.64,0 -90.21,6.19 -130.53,18.32 -39.67,11.5 -72.04,22.97 -96.96,34.49l0 -128.59c28.15,-10.36 65.86,-20.56 113.33,-30.75 47.91,-10.87 102.64,-16.38 164.2,-16.38 62.01,0 114.49,5.86 157.4,17.33 42.9,10.86 75.6,29.79 97.96,56.7 22.34,26.19 33.69,62.63 33.69,109.43l0 190.11zm65.26 -359.15l198.68 0 11.49 81.62c24.45,-31.91 53.43,-55.37 87.42,-70.13 34.03,-14.72 73.04,-22.02 117.27,-22.02 49.87,0 94.72,8.91 134.39,26.9 38.83,17.16 71.54,45.64 94.05,81.59 23,36.44 34.49,82.61 34.49,138.29 0,55.7 -11.49,102.01 -34.49,139.28 -22.34,36.44 -53.76,63.95 -94.05,82.57 -40.35,18.45 -86.48,27.86 -138.29,27.86 -37.09,0.17 -74,-6.62 -108.48,-20.27 -33.37,-14.05 -62.18,-36.11 -86.48,-66.2l0 199.8 -216 0 0 -599.28zm1303.98 236.25c0,-47.43 12.77,-89.71 38.39,-126.77 26.19,-37.11 63.3,-66.25 111.38,-87.3 48.58,-21.85 105.9,-32.71 171.83,-32.71 68.47,0 125.8,11.81 171.94,35.49 46.63,23.79 79.34,57.28 97.79,100.85 19.27,43.56 21.88,95.05 7.79,154.66l-379.25 0c7.63,27.52 24.63,48.24 50.87,62.34 26.86,13.44 66.53,20.23 119.01,20.23 36.6,0 70.43,-3.23 101.85,-9.7 29.47,-6.51 58.6,-14.43 87.29,-24.01l0 114.33c-27.53,12.81 -58.16,23 -92.15,30.63 -33.21,7.75 -77.06,11.65 -131.49,11.65 -119.84,0 -209.04,-22.18 -267.99,-66.23 -58.12,-44.86 -87.26,-106.04 -87.26,-183.47zm617.4 -236.25l548.29 0 0 122.91 -170.99 0 0 351.4 -216.02 0 0 -351.4 -161.28 0 0 -122.91zm-1202.3 0l216.01 0 0 215.06 204.7 -215.06 186.2 0 -190.1 197.89 229.45 276.41 -261.19 0 -169.05 -209.22 0 209.22 -216.01 0 0 -474.3zm907.45 97c-29.49,0 -52.78,8.74 -70.11,25.91 -17.31,16.67 -28.51,38.05 -33.53,64.45l190.11 0c-0.68,-26.4 -7.81,-47.78 -21.23,-64.45 -13.44,-17.16 -35.11,-25.91 -65.24,-25.91zm-1169.42 139.25c0,-38.36 -10.71,-68.82 -31.76,-91.16 -20.57,-23.12 -50.03,-34.65 -88.38,-34.65 -35.15,0 -64.62,10.85 -88.25,32.7 -23.8,21.05 -35.64,52.15 -35.64,93.11 0,40.99 11.52,72.7 34.65,95.04 23.67,21.72 53.43,32.71 89.24,32.71 39.67,0 69.43,-11.65 89.37,-34.66 20.41,-22.96 30.77,-54.05 30.77,-93.09zm-738.53 33.53l-48.92 0c-46.8,0 -80.33,3.89 -100.9,11.65 -19.73,7.63 -29.6,22.34 -29.6,44.07 0,18.61 6.3,32.37 19.06,41.29 13.49,8.41 29.48,12.59 48.13,12.59 28.14,0 51.16,-5.18 68.98,-15.37 18.62,-10.99 33.05,-23.46 43.24,-37.56l0 -56.66z"/>
  </g>
 </g>
</svg>
